<svg id="图层_1" data-name="图层 1" xmlns="http://www.w3.org/2000/svg" viewBox="0 0 496.95 349.34"><defs><style>.cls-1{fill:#2c2c2c;}.cls-2{fill:#3c3c3c;}.cls-3{fill:#fff;}.cls-4{fill:#212121;}.cls-5{fill:#1b1b5c;}</style></defs><title>未标题-1</title><path class="cls-1" d="M237,5.39l4,4-.74.74,1,1,1.46,1.45,1,1,.73-.73,1,1L244.13,15l-1,1,.74.74-8.4,8.39-.74-.74-1,1-1.23,1.22-1,1,.74.74-4.21,4.2L219,23.4l18-18m0-2-.74.73h0L217,23.4l10.36,10.36.74.74,6.17-6.17-.74-.74,1.23-1.23.74.74,10.36-10.36-.74-.74,1.47-1.47h0l.72-.73-2.95-2.95-.73.73-1.45-1.46.73-.73Z" transform="translate(-1.85 0)"/><path class="cls-1" d="M227.36,19.56a3.84,3.84,0,1,1-2.72,6.56,3.84,3.84,0,0,1,2.72-6.56m0-1.39a5.23,5.23,0,1,0,3.7,1.53A5.22,5.22,0,0,0,227.36,18.17Z" transform="translate(-1.85 0)"/><path class="cls-1" d="M224.49,23.4a2.87,2.87,0,1,0,2.87-2.87,2.87,2.87,0,0,0-2.87,2.87Z" transform="translate(-1.85 0)"/><path class="cls-1" d="M236.24,10.68a3.84,3.84,0,1,1-2.72,1.12,3.82,3.82,0,0,1,2.72-1.12m0-1.39a5.23,5.23,0,1,0,3.7,1.53A5.26,5.26,0,0,0,236.24,9.29Z" transform="translate(-1.85 0)"/><path class="cls-1" d="M233.37,14.52a2.87,2.87,0,1,0,2.87-2.87A2.86,2.86,0,0,0,233.37,14.52Z" transform="translate(-1.85 0)"/><path class="cls-2" d="M343.26,12.27H340.8l.3-.29.51-.51a.73.73,0,0,0-1-1l-1.84,1.83h-4.22A3.51,3.51,0,0,0,334,11l.05,0L337,8h2.59a.72.72,0,0,0,.72-.72.73.73,0,0,0-.72-.73h-1.14l.21-.21,1.53-1.53a.72.72,0,0,0,0-1,.71.71,0,0,0-1,0h0l-1.53,1.53-.21.21V4.41a.73.73,0,0,0-.73-.73.73.73,0,0,0-.72.73h0V7L333,9.93l0,.06a3.4,3.4,0,0,0-1.27-.53V5.23l1.83-1.83a.72.72,0,0,0-1-1l-.51.51-.3.3V.72a.72.72,0,0,0-1.44,0h0V3.19l-.3-.3-.51-.51a.72.72,0,0,0-1,0,.71.71,0,0,0,0,1l1.83,1.83V9.46A3.4,3.4,0,0,0,329,10s0,0-.05-.05L326,7V4.41a.73.73,0,1,0-1.45,0h0V5.55l-.21-.21-1.53-1.53a.72.72,0,0,0-1,1h0l1.53,1.53.21.21H322.4a.73.73,0,0,0,0,1.45H325L327.92,11l.06,0a3.51,3.51,0,0,0-.53,1.28h-4.23l-1.83-1.83a.73.73,0,0,0-1,1l.51.51.3.29h-2.47A.73.73,0,0,0,318,13a.72.72,0,0,0,.72.72h2.47l-.3.3-.51.51a.72.72,0,0,0,1,1l1.83-1.83h4.23A3.76,3.76,0,0,0,328,15l-.05,0L325,18H322.4a.72.72,0,0,0,0,1.44h1.14l-.21.22-1.53,1.53a.72.72,0,0,0,0,1,.73.73,0,0,0,1,0l1.53-1.53.21-.21v1.14a.73.73,0,0,0,1.45,0h0V19L329,16.06l0,0a3.9,3.9,0,0,0,1.28.53.17.17,0,0,0,0,.07v4.16l-1.83,1.83a.72.72,0,0,0,0,1,.74.74,0,0,0,1,0l.51-.51.29-.3v2.47a.73.73,0,0,0,1.45,0h0V22.81l.3.3.51.51a.72.72,0,0,0,1-1l-1.83-1.83V16.61a.22.22,0,0,0,0-.08A3.38,3.38,0,0,0,333,16l0,.06L336,19v2.59a.73.73,0,0,0,1.45,0V20.44l.21.21,1.53,1.53a.71.71,0,0,0,1,0,.72.72,0,0,0,0-1l-1.52-1.53-.21-.21h1.14a.72.72,0,0,0,0-1.44H337L334.05,15,334,15a3.76,3.76,0,0,0,.53-1.27h4.23l1.83,1.83a.72.72,0,1,0,1-1h0L341.1,14l-.3-.3h2.47a.73.73,0,1,0,0-1.45Zm-10.1.73A2.17,2.17,0,1,1,331,10.83,2.17,2.17,0,0,1,333.16,13Z" transform="translate(-1.85 0)"/><path class="cls-2" d="M341.28,4.59,341,4.32l-.28.27ZM339.67,3l-.28-.27v.55Z" transform="translate(-1.85 0)"/><path class="cls-1" d="M132.42,310l1.31-.46.25-.1a.29.29,0,0,1,.42.23l11.38,27.72a.24.24,0,0,1-.09.3,4.62,4.62,0,0,1-2,.76.23.23,0,0,1-.21-.14c-.85-2.05-11.27-27.21-11.42-27.89,0,0-.13-.26.05-.31Z" transform="translate(-1.85 0)"/><path class="cls-1" d="M143.69,338.62a.41.41,0,0,1-.38-.25c-1.14-2.76-11.06-26.7-11.42-27.9a.49.49,0,0,1,0-.39.35.35,0,0,1,.21-.18l.28-.11h0l1.31-.46.24-.09a.52.52,0,0,1,.42,0,.49.49,0,0,1,.27.35L146,337.29a.44.44,0,0,1-.17.54,4.6,4.6,0,0,1-2.09.79Zm-11.46-28.36s0,0,0,.05,0,0,0,.05c.13.59,7.23,17.79,11.4,27.86h0a4.41,4.41,0,0,0,1.89-.73,0,0,0,0,0,0-.06l-11.38-27.72a0,0,0,0,1,0,0,.28.28,0,0,0-.05-.1.17.17,0,0,0-.1,0h0l-.25.1h0l-1.31.45Z" transform="translate(-1.85 0)"/><path class="cls-1" d="M136.64,338.42a.39.39,0,0,1-.39.38,6.43,6.43,0,0,1-1.81-.32.46.46,0,0,1-.17-.52L138.68,317a.92.92,0,0,1,.17-.36,1.6,1.6,0,0,0,.28-.72.94.94,0,0,1,0-.16l1-2.95a.19.19,0,0,1,.19-.14s.09-.84.41-.84c0,0,.82-3.18.56.09,0,0,.22.19,0,.91a.44.44,0,0,1,.09.31l-.32,3.11a1,1,0,0,1,0,.17,1.66,1.66,0,0,0-.1.75.78.78,0,0,1,0,.34Z" transform="translate(-1.85 0)"/><path class="cls-1" d="M136.26,339h0a6.15,6.15,0,0,1-1.9-.35h0a.65.65,0,0,1-.24-.74l4.41-20.9a1,1,0,0,1,.2-.44,1.3,1.3,0,0,0,.24-.62,1.17,1.17,0,0,1,0-.2l1-3a.45.45,0,0,1,.2-.23c.05-.27.16-.72.43-.85,0-.13.1-.36.17-.6.22-.67.34-.85.55-.81s.24.33.25.52a9.91,9.91,0,0,1,0,1.09,1.2,1.2,0,0,1,0,.94.65.65,0,0,1,.07.36l-.32,3.11a1.6,1.6,0,0,1-.05.21,1.57,1.57,0,0,0-.09.66,1.13,1.13,0,0,1,0,.41l-4.29,20.86a.59.59,0,0,1-.58.55Zm-1.72-.69a6,6,0,0,0,1.72.29.18.18,0,0,0,.18-.19v0l4.3-20.87a.57.57,0,0,0,0-.26,1.87,1.87,0,0,1,.12-.86.5.5,0,0,0,0-.12l.32-3.11a.22.22,0,0,0,0-.17.19.19,0,0,1,0-.18c.17-.52.07-.69.06-.71a.22.22,0,0,1-.06-.15c0-.34,0-.6,0-.79-.08.23-.16.5-.22.75a.19.19,0,0,1-.19.15,1.39,1.39,0,0,0-.21.67.2.2,0,0,1-.2.18h0l-1,2.95a.31.31,0,0,0,0,.13,1.59,1.59,0,0,1-.32.8.69.69,0,0,0-.13.29L134.47,338a0,0,0,0,0,0,0,.24.24,0,0,0,.08.28Zm6.65-26.2Z" transform="translate(-1.85 0)"/><path class="cls-1" d="M140.39,312.7l.87.14" transform="translate(-1.85 0)"/><path class="cls-1" d="M141.26,313h0l-.88-.14a.2.2,0,0,1-.16-.23.2.2,0,0,1,.23-.16l.87.13a.21.21,0,0,1,.17.23A.2.2,0,0,1,141.26,313Z" transform="translate(-1.85 0)"/><path class="cls-1" d="M135.09,317.93l2.23-1" transform="translate(-1.85 0)"/><path class="cls-1" d="M135.09,318.13a.21.21,0,0,1-.18-.12.2.2,0,0,1,.1-.26l2.23-1a.2.2,0,0,1,.26.1h0a.2.2,0,0,1-.1.26l-2.23,1Z" transform="translate(-1.85 0)"/><path class="cls-1" d="M132.94,310.52l.84,2.18.05.12" transform="translate(-1.85 0)"/><path class="cls-1" d="M133.83,313a.21.21,0,0,1-.19-.13l-.89-2.29a.2.2,0,1,1,.37-.15l.89,2.3a.19.19,0,0,1-.11.25Z" transform="translate(-1.85 0)"/><path class="cls-1" d="M134.27,313.89l-.12-.32-.05-.11" transform="translate(-1.85 0)"/><path class="cls-1" d="M134.27,314.08a.18.18,0,0,1-.18-.12l-.17-.43a.2.2,0,1,1,.37-.15l.16.43a.2.2,0,0,1-.11.26Z" transform="translate(-1.85 0)"/><path class="cls-1" d="M139.33,317.94l-.52,2.44,0,.13" transform="translate(-1.85 0)"/><path class="cls-1" d="M138.78,320.71h0a.2.2,0,0,1-.16-.23l.56-2.57a.19.19,0,0,1,.23-.15.18.18,0,0,1,.15.23l-.55,2.57A.2.2,0,0,1,138.78,320.71Z" transform="translate(-1.85 0)"/><path class="cls-1" d="M138.51,321.78l.11-.49,0-.19" transform="translate(-1.85 0)"/><path class="cls-1" d="M138.51,322h0a.2.2,0,0,1-.15-.24l.14-.68a.2.2,0,0,1,.24-.15.2.2,0,0,1,.15.23l-.15.69A.18.18,0,0,1,138.51,322Z" transform="translate(-1.85 0)"/><path class="cls-1" d="M137.39,316.9l-2.35,1-3.15-7.68a.24.24,0,0,1,.13-.31l1.91-.78a.24.24,0,0,1,.31.13Z" transform="translate(-1.85 0)"/><path class="cls-1" d="M134.94,318.12l-3.23-7.85a.43.43,0,0,1,.24-.57l1.9-.78a.4.4,0,0,1,.34,0,.43.43,0,0,1,.23.23l3.23,7.86Zm-.92-8.84h0l-1.9.78a.07.07,0,0,0,0,.06l3.08,7.49,2-.82-3.08-7.49,0,0Z" transform="translate(-1.85 0)"/><path class="cls-1" d="M102.39,190c-1.51,0-3.24-1.43-2.38-2.85,1.43-2.38,3.8-1,5.71-1.91a119.17,119.17,0,0,0,12.84-8.56c2.66-2.22,12.37-13.8,26.65-20-6.79,5.89-13.87,8.76-21.64,16.81,5.08-4.26,25-17.12,31.15-19.18-4.75,2.85-30,19.5-31.87,21.41,2.37-1,27.59-17.13,32.83-19-11,9-33.79,20.71-35.21,21.42s-13.74,9-14.28,9.51C104.77,189.05,104.29,190,102.39,190Z" transform="translate(-1.85 0)"/><path class="cls-1" d="M99.86,187.45a2.81,2.81,0,0,0,2.53,1.6c1.56,0,2.16-.64,3.11-1.66l.69-.72c.54-.54,12.85-8.34,14.28-9s22.83-12.37,31.4-18.56a31.89,31.89,0,0,1,3.81-2.38c-11,9-33.79,20.71-35.21,21.42s-13.74,9-14.28,9.51l-.69.72c-1,1-1.55,1.66-3.11,1.66C101,190,99.4,188.77,99.86,187.45Z" transform="translate(-1.85 0)"/><path class="cls-1" d="M129.67,170.8c8.37-5.73,21.72-14.49,25.05-16.48-1.38.46-2.81,1.54-5.23,2.85-9.11,5.91-25.22,16.65-26.64,18.56C123.54,175.45,126.17,172.93,129.67,170.8Zm-.73-2.22c2.68-2.19,5.29-4,7.84-5.67a83.35,83.35,0,0,0,8.43-6.22,18.37,18.37,0,0,0-2.38,1.43s-4.13,2.55-6.05,3.84c-4.21,2.84-11.08,8.53-13,11.39A33,33,0,0,1,128.94,168.58Z" transform="translate(-1.85 0)"/><path class="cls-1" d="M102.39,190c-1.51,0-3.24-1.43-2.38-2.85,1.43-2.38,3.8-1,5.71-1.91a119.17,119.17,0,0,0,12.84-8.56c.48.47,1,.47,1,.71a1.06,1.06,0,0,0,1,.72s-13.74,9-14.28,9.51C104.77,189.05,104.29,190,102.39,190Z" transform="translate(-1.85 0)"/><path class="cls-1" d="M99.86,187.45a2.81,2.81,0,0,0,2.53,1.6c1.56,0,2.16-.64,3.11-1.66l.69-.72c.5-.49,11-7.14,13.74-8.75a1,1,0,0,0,.54.19c-1.43.95-13.74,9-14.28,9.51l-.69.72-.34.36a3.36,3.36,0,0,1-2.77,1.3C101,190,99.4,188.77,99.86,187.45Z" transform="translate(-1.85 0)"/><path class="cls-1" d="M207.45,288.15a.76.76,0,0,1,1.08,0h0l6,6a.76.76,0,0,1,0,1.08l-5.83,5.83,6,6,2.46.5a.71.71,0,0,1,.33.15l.06.06,14.74,14.75a1,1,0,0,1,.13.18,3.79,3.79,0,0,1-.59,4.83,4,4,0,0,1-4.89.71l-.15-.09-.06-.06L212,313.32a.65.65,0,0,1-.18-.3l0-.09-.49-2.46-6-6-5.89,5.9a.75.75,0,0,1-1,.06l-.06-.06-6-6a.75.75,0,0,1,0-1.07Zm.17,14-1.26,1.25,6.15,6.16a.89.89,0,0,1,.19.31l0,.08.49,2.47,14.47,14.49.06,0a2.46,2.46,0,0,0,2.88-.38l.11-.11a2.24,2.24,0,0,0,.41-2.87l0-.06L216.62,309l-2.46-.5a.71.71,0,0,1-.33-.15l-.06-.06-6.15-6.15Zm18,20.62,2.15,2.15-.54.54-2.15-2.15ZM214.88,312l9.16,9.16-.54.54-9.16-9.16Zm-2.59-17.9-14,14.06.61.62,14.05-14.07ZM211.22,293l-14.06,14.06.53.54,14.06-14.06-.53-.54Zm-1.08-1.08L196.08,306l.54.54,14.06-14.06-.54-.54ZM208,289.77l-14.05,14.07,1.6,1.6,14.06-14.06L208,289.77Z" transform="translate(-1.85 0)"/><path class="cls-1" d="M177.51,40l-12,12L176.88,55l-9.67,9.33L185,53.78l-12-3.89Z" transform="translate(-1.85 0)"/><path class="cls-1" d="M271.25,180.21l.12-1c.5-4.34.62-7.16.7-9v-.09l0-.86v-.06c0-1-.34-3.7-.8-7.12-.65-4.85-1.75-13-1.15-13.86a2.44,2.44,0,0,0,.44-3.08,8.63,8.63,0,0,0,.27-2.41c-.08-1.1-2.59-1.53-2.61-1.54h-.19l-.19,0s-2.56-.22-2.92.83a8.11,8.11,0,0,0-.34,2.4,2.43,2.43,0,0,0-.37,3.07c.36,1-2.75,8.61-4.62,13.13-1.31,3.2-2.35,5.73-2.57,6.69l0,.06-.18.83,0,.1q-1.09,4.89-1.74,9.86c-.28,2.05-.56,4.43-.83,7.19,0,.52-.08,2.06,6.31,3.25,0,0,.91.19,1.34.23s1.41.13,1.41.13c6.45.46,6.79-1.05,6.91-1.58C270.67,184.62,271,182.26,271.25,180.21Zm-5.37-37.81a3.93,3.93,0,0,1,2-.21h0l.19,0h.08a5.35,5.35,0,0,1,1.73.6,6.57,6.57,0,0,1-.15,1.66l-4.07-.53A6.85,6.85,0,0,1,265.88,142.4Zm-.76,4.55a1.47,1.47,0,0,1,.32-1.95l.07-.05,4.08.53.05.07a1.45,1.45,0,0,1-.19,2c-.75.74-.53,4.05.42,11.39l-.57-.07c-.15-1.24-1.44-2.3-3.18-2.53s-3.25.48-3.72,1.64l-.56-.07C264.62,151,265.67,147.86,265.12,147Zm-4.55,14,.88-2.14.83.11c.15,1.24,1.44,2.3,3.18,2.53s3.25-.48,3.71-1.65l.83.11c.1.73.2,1.49.3,2.29.41,3,.8,5.87.8,6.86l-13-1.68C258.31,166.46,259.41,163.8,260.57,161Zm8.67,26.18c-.1.45-1.54,1.11-6.31.72h-.31l-.57-.09-.37,0-.47-.1c-4.71-.83-5.94-1.83-5.93-2.26q.34-3.59.83-7.14l14.14,1.82Q269.81,183.64,269.24,187.16Z" transform="translate(-1.85 0)"/><path class="cls-1" d="M203.64,186a1.41,1.41,0,0,0-1,0c-.26-.68-.82-2.11-1.59-4.12a1.67,1.67,0,0,0-2.14-1l-1.44.53a1.61,1.61,0,0,0-.94.87,1.69,1.69,0,0,0-.06,1.25l-1.44.48-.08,0A1.67,1.67,0,0,0,194,186l-.76-1.34a1.67,1.67,0,0,0-2.28-.63l-1.11.63a1.68,1.68,0,0,0-.63,2.28l1,1.68a1.68,1.68,0,0,0-1-.33,1.65,1.65,0,0,0-1.19.55l-.85.93a1.67,1.67,0,0,0,.08,2.32l1.28,1.26-3.55-2.91a1.55,1.55,0,0,0-2.11.19l-.72.84a1.51,1.51,0,0,0-.43,1.11,1.38,1.38,0,0,0,.49,1c1.91,1.65,2.8,2.39,3.22,2.73a1.78,1.78,0,0,0-.19.47,1.45,1.45,0,0,0,.29,1.17l3.42,4.33a1.39,1.39,0,0,0-.19.49,1.3,1.3,0,0,0,.32,1.1l1.89,2.11a1.29,1.29,0,0,0,1.16.43l1.76,2.22a1.45,1.45,0,0,0,1.85.36L209,201.49a1.46,1.46,0,0,0,.63-1.79l-1-2.61a1.32,1.32,0,0,0,.22-1.2l-.85-2.71a1.3,1.3,0,0,0-.78-.84,1.21,1.21,0,0,0-.46-.08l-2.16-5.42A1.46,1.46,0,0,0,203.64,186Zm1.65,6.81-15.18,8.62-3.43-4.34,2.27-1.29a7.12,7.12,0,0,0,11.87-7l2.32-1.33Zm2,3.38-15.35,8.72-1.66-1.86,16.27-9.23ZM197.88,183a.15.15,0,0,1,.1-.09l1.43-.53a.17.17,0,0,1,.23.1l1.67,4.31-1.27.73a1.61,1.61,0,0,0-.38.31l-1.79-4.69A.17.17,0,0,1,197.88,183Zm-2.41,2.72a.21.21,0,0,1,.07-.21L197,185l2.53,6.62h0a5.78,5.78,0,0,1-1,2.41l-1.4-2.48Zm-4.86.29,1.1-.63a.19.19,0,0,1,.25.06l5.53,9.76a5.17,5.17,0,0,1-.73.49,6.08,6.08,0,0,1-.68.33l-5.54-9.77a.17.17,0,0,1,.07-.24Zm-2.38,4.81.85-.93a.16.16,0,0,1,.13-.06.17.17,0,0,1,.11,0l3.68,3.74,1.58,2.78a5.06,5.06,0,0,1-.87,0l-5.47-5.35A.18.18,0,0,1,188.23,190.8Zm-4.31.86,0,0s0,0,0,0l3.82,3.13-1.34.76.09-.15c-.16-.11-1.14-.92-3.37-2.84Zm24.25,8.55L195,207.7l-1.52-1.93,13.8-7.84Z" transform="translate(-1.85 0)"/><path class="cls-1" d="M350.82,80.64h36.36A1.6,1.6,0,0,1,389,82.45h0a1.61,1.61,0,0,1-1.82,1.82H350.82A1.61,1.61,0,0,1,349,82.45h0A1.6,1.6,0,0,1,350.82,80.64Z" transform="translate(-1.85 0)"/><path class="cls-1" d="M370.82,80.64v32.72h-3.64V80.64Z" transform="translate(-1.85 0)"/><path class="cls-1" d="M359.18,81.81l10.93,10.92L368.82,94,357.9,83.09Z" transform="translate(-1.85 0)"/><path class="cls-1" d="M380.1,83.09,369.18,94l-1.29-1.29L378.82,81.8Zm-.27,30.27-10.65-10.65L367.89,104l9.37,9.36Z" transform="translate(-1.85 0)"/><path class="cls-1" d="M360.74,113.36l9.37-9.36-1.29-1.29-10.65,10.65Z" transform="translate(-1.85 0)"/><path class="cls-1" d="M228.3,70.21a10,10,0,0,0-1.76,2.22,6.8,6.8,0,0,0-.73,1.82,5.93,5.93,0,0,0-.19,1.87A5,5,0,0,0,226,77.9a3.84,3.84,0,0,0,1,1.32,2.72,2.72,0,0,0,.95.53,2.68,2.68,0,0,0,1.2.12,2.22,2.22,0,0,0,1.48-.65,5.63,5.63,0,0,0,1.06-1.71,5.51,5.51,0,0,1,1.39-2,1.35,1.35,0,0,1,2.14.6l0,.11a5.49,5.49,0,0,1,.21,2.31,10.67,10.67,0,0,1-.88,3.21c-.14.38-.3.75-.4,1.07a11.34,11.34,0,0,0-.53,2.12,4.68,4.68,0,0,0,0,1.87,2.79,2.79,0,0,0,1.16,1.58,3.56,3.56,0,0,0,2,.57,3.49,3.49,0,0,0,2-.57,2.7,2.7,0,0,0,1.16-1.58,4.67,4.67,0,0,0,.07-1.87,12.21,12.21,0,0,0-.54-2.12c-.11-.32-.25-.7-.41-1.07a10.51,10.51,0,0,1-.88-3.21,5.6,5.6,0,0,1,.25-2.42l.05-.11a1.33,1.33,0,0,1,2.1-.49l.09.07a5.9,5.9,0,0,1,1.28,1.94A6.14,6.14,0,0,0,243,79.22a2.2,2.2,0,0,0,1.48.65,2.68,2.68,0,0,0,1.2-.12,2.59,2.59,0,0,0,1-.53,3.89,3.89,0,0,0,.95-1.32,4.45,4.45,0,0,0,.4-1.78,5.93,5.93,0,0,0-.19-1.87,8.27,8.27,0,0,0-.74-1.82,7.52,7.52,0,0,0-.78-1.15,11.4,11.4,0,0,0-2.06-2c-.37-.26-.74-.51-1.11-.72a13.4,13.4,0,0,0-7.85-1.48A12.13,12.13,0,0,0,228.3,70.21Zm14.58-1.1a.75.75,0,0,1,.29.92.58.58,0,0,1-.83.3A12,12,0,0,0,235.48,69a10.33,10.33,0,0,0-6,2.65,7.36,7.36,0,0,0-1.64,2.19h0a4.35,4.35,0,0,0-.46,2.14.65.65,0,0,1-.6.7.63.63,0,0,1-.64-.63,6.77,6.77,0,0,1,.62-2.88,9.46,9.46,0,0,1,1.91-2.57,11.46,11.46,0,0,1,6.75-3A12.79,12.79,0,0,1,242.88,69.11ZM227,68.48a13.8,13.8,0,0,1,8.07-3.63,15,15,0,0,1,9,1.71,10.33,10.33,0,0,1,1.33.86,14.07,14.07,0,0,1,2.45,2.37,10,10,0,0,1,1,1.42,9.2,9.2,0,0,1,1.25,5,7.41,7.41,0,0,1-.6,2.7,6.34,6.34,0,0,1-1.53,2.1,4.16,4.16,0,0,1-1.66.93,4.5,4.5,0,0,1-1.92.2,4.24,4.24,0,0,1-2.67-1.24,8.62,8.62,0,0,1-1.39-2.13,11,11,0,0,0,.65,2,12.63,12.63,0,0,1,.44,1.22,13.48,13.48,0,0,1,.64,2.52,6.51,6.51,0,0,1-.12,2.91,4.94,4.94,0,0,1-2.08,2.89,5.5,5.5,0,0,1-6,0,5.09,5.09,0,0,1-2.08-2.89,7.14,7.14,0,0,1-.12-2.91,12.41,12.41,0,0,1,.65-2.52c.13-.43.28-.81.44-1.22a9.67,9.67,0,0,0,.66-2,7.64,7.64,0,0,1-1.4,2.13,4.17,4.17,0,0,1-2.66,1.24,4.56,4.56,0,0,1-1.91-.2,4.42,4.42,0,0,1-1.67-.93,6.31,6.31,0,0,1-1.54-2.1,7.92,7.92,0,0,1-.6-2.7,9.84,9.84,0,0,1,.27-2.59,10.24,10.24,0,0,1,1-2.44A12.43,12.43,0,0,1,227,68.48Z" transform="translate(-1.85 0)"/><path class="cls-1" d="M108.6,234.86a.77.77,0,0,0-.72-.81l-4.43-.3-1.87-3.31a1.93,1.93,0,0,0,.45-1.12,2,2,0,1,0-2.13,1.87,1.94,1.94,0,0,0,.34,0l1.38,2.46L93,233.06l2.14-2.22.29,0a2,2,0,1,0-1.56-.93l-2.87,3-4.37-.29a.77.77,0,0,0-.14,1.53l.65,10.93a1.47,1.47,0,0,0,1.38,1.39l15.67,1a1.49,1.49,0,0,0,1.55-1.2l2.08-10.76A.77.77,0,0,0,108.6,234.86Zm-9-5.71a.47.47,0,1,1,.44.51A.48.48,0,0,1,99.56,229.15Zm-4-.73a.47.47,0,1,1-.5.44A.47.47,0,0,1,95.59,228.42Zm9.91,11.05-2.4-.16.5-4,2.68.18ZM88,234.27l2.68.18,0,4-2.4-.16Zm4.21.28,4.15.27-.27,4-3.92-.26ZM96,240.38l-.33,5.05-3.55-.23,0-5.07Zm1.53.1,3.83.26-.61,5-3.55-.24Zm.1-1.53.27-4,4.14.28-.49,4Zm-9.29.93,2.3.15,0,5.06-2-.12ZM104.24,246l-1.94-.12.62-5,2.29.15Z" transform="translate(-1.85 0)"/><path class="cls-1" d="M419.61,38.48l-.55,0v-.59a1.91,1.91,0,1,0-3.81,0v2.67a5.75,5.75,0,0,0-.44.54,1.91,1.91,0,0,0-3.75.49V43c-.2-.24-.42-.55-.71-.95a11,11,0,0,0-1.88-2.22,5.5,5.5,0,0,0-7.17,0A11.67,11.67,0,0,0,399.42,42c-.3.43-.54.75-.74,1V41.56a1.91,1.91,0,0,0-3.75-.5c-.14-.18-.3-.36-.46-.54V37.91a1.91,1.91,0,1,0-3.81,0v.59l-.49,0a2.3,2.3,0,0,0,0,4.6c.63,0,.95.33,1.89,1.67A11,11,0,0,0,393.94,47a5.32,5.32,0,0,0,3.59,1.34,6,6,0,0,0,.74,0v.52a1.91,1.91,0,1,0,3.81,0V46c.33-.39.61-.8.9-1.19v1.53a1.91,1.91,0,1,0,3.81,0V44.76c.26.37.52.74.81,1.1v2.92a1.91,1.91,0,1,0,3.81,0v-.54a5.73,5.73,0,0,0,.84.06A5.38,5.38,0,0,0,415.84,47a11.25,11.25,0,0,0,1.87-2.22c.94-1.33,1.27-1.67,1.9-1.67a2.3,2.3,0,0,0,0-4.6Zm0,3.07a2.45,2.45,0,0,0-.62.07A3.39,3.39,0,0,0,417.11,43c-.22.27-.43.57-.65.88a10.25,10.25,0,0,1-1.61,1.93,3.82,3.82,0,0,1-2.6,1,4.41,4.41,0,0,1-.83-.08,3.81,3.81,0,0,1-1.54-.71l-.22-.18c-.18-.16-.35-.33-.52-.51a11.82,11.82,0,0,1-.77-.95c-.11-.16-.21-.31-.33-.46s-.18-.26-.26-.38a7.26,7.26,0,0,0-1-1.17,3.3,3.3,0,0,0-.79-.55,2.77,2.77,0,0,0-1.1-.22,2.6,2.6,0,0,0-1.12.23,3.26,3.26,0,0,0-.8.55,9.24,9.24,0,0,0-1,1.24l-.21.3-.42.59a9.74,9.74,0,0,1-.77.93,5.6,5.6,0,0,1-.43.41,3.24,3.24,0,0,1-.31.24,4,4,0,0,1-.77.44,3.39,3.39,0,0,1-.77.22,3.57,3.57,0,0,1-.74.07,3.84,3.84,0,0,1-2.6-1,10.25,10.25,0,0,1-1.61-1.93c-.22-.31-.43-.61-.65-.89a3.29,3.29,0,0,0-1.93-1.37,2.62,2.62,0,0,0-.57-.06.78.78,0,0,1,0-1.54c.17,0,.33,0,.5,0a3.76,3.76,0,0,1,1.53.53,4.21,4.21,0,0,1,.56.41l.18.16c.2.19.38.39.56.59s.33.41.48.62l.4.56c.17.23.32.46.49.68a5.92,5.92,0,0,0,.88,1,2.63,2.63,0,0,0,1.26.62,2.14,2.14,0,0,0,.52.05,2.57,2.57,0,0,0,.75-.1l.1,0a2.55,2.55,0,0,0,.66-.33,6.23,6.23,0,0,0,1.45-1.59l.19-.27.27-.38A8.63,8.63,0,0,1,402.31,41a4,4,0,0,1,5.19,0,8.4,8.4,0,0,1,1.32,1.53l.29.4.18.25a6.52,6.52,0,0,0,1.37,1.55,2.7,2.7,0,0,0,.67.36.32.32,0,0,0,.09,0,2.79,2.79,0,0,0,.84.13l.39,0A2.58,2.58,0,0,0,414,44.6a5.06,5.06,0,0,0,.87-1c.18-.23.35-.47.53-.72s.25-.36.38-.53.31-.42.47-.62.36-.4.55-.59L417,41a4.21,4.21,0,0,1,.51-.38,3.44,3.44,0,0,1,.77-.38,3.76,3.76,0,0,1,.77-.18,4.63,4.63,0,0,1,.54,0,.72.72,0,0,1,.68.76.73.73,0,0,1-.69.77Zm-9.73,7.23a.38.38,0,0,1-.75,0V47.33a5.24,5.24,0,0,0,.75.44Zm-4.62-2.47a.37.37,0,0,1-.74,0V43.14a1.1,1.1,0,0,1,.37-.06,1.44,1.44,0,0,1,.37.05v3.18Zm-4.7,2.47a.38.38,0,0,1-.75,0v-1a4.56,4.56,0,0,0,.75-.41Zm-8.35-10.87a.37.37,0,0,1,.37-.37.38.38,0,0,1,.37.37v1.32a4.65,4.65,0,0,0-.74-.37Zm4.2,3.65a.37.37,0,1,1,.74,0v2.08a1.75,1.75,0,0,1-.74-.59Zm16.93,0V43.1a1.63,1.63,0,0,1-.74.55v-2a.37.37,0,1,1,.74,0Zm3.45-3.7a.37.37,0,1,1,.74,0v1a4.71,4.71,0,0,0-.74.38Z" transform="translate(-1.85 0)"/><path class="cls-1" d="M148.6,270H147a26.48,26.48,0,0,1,1.64-9.26,24.24,24.24,0,0,1,4.52-7.58,21.16,21.16,0,0,1,6.72-5.14,19.06,19.06,0,0,1,8.27-1.89v1.61C157.37,247.74,148.6,257.73,148.6,270Z" transform="translate(-1.85 0)"/><path class="cls-1" d="M168.82,247.8a1.8,1.8,0,0,1-1-.32,2.22,2.22,0,0,1-.83-2,4.55,4.55,0,0,1,.72-2.22,4.34,4.34,0,0,1,3.29-1.67l.6,0,.2.57a4.86,4.86,0,0,1-.19,3.78,3.84,3.84,0,0,1-2.32,1.81A2.15,2.15,0,0,1,168.82,247.8Zm1.57-4.46a2.22,2.22,0,0,0-1.36.82c-.6,1-.55,1.85-.32,2a.28.28,0,0,0,.22,0,2.27,2.27,0,0,0,1.28-1.08A2.71,2.71,0,0,0,170.39,243.34Z" transform="translate(-1.85 0)"/><path class="cls-1" d="M170.58,251.86A3.64,3.64,0,0,1,168,251a4.45,4.45,0,0,1-1.2-2,2.22,2.22,0,0,1,.37-2.1,1.92,1.92,0,0,1,1.38-.64,3.77,3.77,0,0,1,2.64,1.19,4.88,4.88,0,0,1,1,3.64l-.07.58-.57.12A5.12,5.12,0,0,1,170.58,251.86Zm-1.44-2.06a2.18,2.18,0,0,0,1.5.45,2.6,2.6,0,0,0-.56-1.68,2.19,2.19,0,0,0-1.45-.73.38.38,0,0,0-.23.08C168.21,248.14,168.34,249,169.14,249.8Zm-4.45-1.8a1.77,1.77,0,0,1-1.05-.33,2.22,2.22,0,0,1-.83-2,4.6,4.6,0,0,1,.73-2.22,4.33,4.33,0,0,1,3.29-1.67l.59,0,.2.57a4.9,4.9,0,0,1-.18,3.78,3.9,3.9,0,0,1-2.32,1.81A2.18,2.18,0,0,1,164.69,248Zm1.56-4.47a2.23,2.23,0,0,0-1.35.82c-.61,1-.56,1.85-.33,2a.28.28,0,0,0,.22,0,2.24,2.24,0,0,0,1.28-1.08A2.65,2.65,0,0,0,166.25,243.53Z" transform="translate(-1.85 0)"/><path class="cls-1" d="M166.52,252.13a3.61,3.61,0,0,1-2.57-.91,4.35,4.35,0,0,1-1.2-2,2.23,2.23,0,0,1,.37-2.1,1.93,1.93,0,0,1,1.39-.63,3.71,3.71,0,0,1,2.63,1.19,4.88,4.88,0,0,1,1,3.64l-.07.58-.57.12A5.33,5.33,0,0,1,166.52,252.13Zm-1.45-2.06a2.14,2.14,0,0,0,1.51.45,2.63,2.63,0,0,0-.57-1.68,2.15,2.15,0,0,0-1.44-.72.3.3,0,0,0-.24.08C164.14,248.41,164.28,249.3,165.07,250.07Z" transform="translate(-1.85 0)"/><path class="cls-1" d="M160.44,249.4a1.61,1.61,0,0,1-.67-.14,2.15,2.15,0,0,1-1.21-1.75,4.63,4.63,0,0,1,.26-2.32,4.46,4.46,0,0,1,2.87-2.35l.59-.16.32.52a4.87,4.87,0,0,1,.57,3.74,3.92,3.92,0,0,1-1.93,2.28A1.9,1.9,0,0,1,160.44,249.4Zm1.06-4.76a2.36,2.36,0,0,0-1.17,1.12c-.42,1.12-.14,1.94.06,2a.26.26,0,0,0,.21,0,2.37,2.37,0,0,0,1.05-1.37A2.56,2.56,0,0,0,161.5,244.64Z" transform="translate(-1.85 0)"/><path class="cls-1" d="M162.33,253a3.08,3.08,0,0,1-1.65-.44,4.27,4.27,0,0,1-1.57-1.68,2.24,2.24,0,0,1-.06-2.13,1.94,1.94,0,0,1,1.24-.92,3.69,3.69,0,0,1,2.8.58c1.47.93,1.7,3.1,1.73,3.35l.05.56-.52.24A5.3,5.3,0,0,1,162.33,253ZM161,249.4l-.27,0a.4.4,0,0,0-.24.15c-.16.29.19,1.1,1.08,1.67a2.17,2.17,0,0,0,1.57.09,2.62,2.62,0,0,0-.87-1.52A2.42,2.42,0,0,0,161,249.4Z" transform="translate(-1.85 0)"/><path class="cls-1" d="M156.63,251.53l-.25,0a2.14,2.14,0,0,1-1.6-1.4,4.66,4.66,0,0,1-.26-2.32,4.61,4.61,0,0,1,2.23-3l.54-.31.44.44a4.74,4.74,0,0,1,1.4,3.5,4,4,0,0,1-1.35,2.69A1.83,1.83,0,0,1,156.63,251.53Zm.38-4.94a2.47,2.47,0,0,0-.9,1.4c-.14,1.18.29,1.9.5,1.93a.29.29,0,0,0,.2-.08,2.52,2.52,0,0,0,.73-1.62A2.59,2.59,0,0,0,157,246.59Z" transform="translate(-1.85 0)"/><path class="cls-1" d="M158.89,254.77a2.71,2.71,0,0,1-.83-.13c-1.75-.56-2.83-2-2.47-3.29a1.92,1.92,0,0,1,1-1.21,3.71,3.71,0,0,1,2.82-.14c1.66.53,2.38,2.59,2.46,2.82l.17.53-.43.35A4.79,4.79,0,0,1,158.89,254.77Zm-.79-3.37a1.71,1.71,0,0,0-.74.15.43.43,0,0,0-.22.23c-.09.32.42,1,1.4,1.32a2.21,2.21,0,0,0,1.57-.32,2.53,2.53,0,0,0-1.18-1.25A3,3,0,0,0,158.1,251.4Z" transform="translate(-1.85 0)"/><path class="cls-1" d="M153.28,254.54A1.89,1.89,0,0,1,152,254a4.1,4.1,0,0,1-1.09-2.82,4.72,4.72,0,0,1,1.71-3.34l.48-.39.51.36a4.67,4.67,0,0,1,2,3.2,4.6,4.6,0,0,1-.48,2.29,2.1,2.1,0,0,1-1.73,1.24Zm-.11-5a2.41,2.41,0,0,0-.08,3.25.38.38,0,0,0,.19.11c.23,0,.7-.72.66-1.87A2.57,2.57,0,0,0,153.17,249.57Z" transform="translate(-1.85 0)"/><path class="cls-1" d="M155.87,257.4l-.34,0c-1.82-.24-3.13-1.47-3-2.81a2,2,0,0,1,.8-1.37,3.73,3.73,0,0,1,2.75-.63c1.72.22,2.77,2.14,2.89,2.35l.25.49-.36.41A4.58,4.58,0,0,1,155.87,257.4Zm-.13-1.62a2.23,2.23,0,0,0,1.5-.62,2.39,2.39,0,0,0-1.34-1,2.16,2.16,0,0,0-1.55.31.49.49,0,0,0-.2.28C154.12,255.08,154.73,255.66,155.74,255.78ZM172.55,249a3.46,3.46,0,0,1-2-.57,2,2,0,0,1-.86-1.33c-.21-1.33,1.05-2.63,2.85-3s3.25,1.23,3.42,1.4l.38.4-.23.49c-.11.23-1.08,2.18-2.79,2.49A4.11,4.11,0,0,1,172.55,249Zm.46-3.28-.18,0c-1,.17-1.59.79-1.54,1.11a.46.46,0,0,0,.2.27,2.21,2.21,0,0,0,1.56.23,2.49,2.49,0,0,0,1.31-1.07A2.59,2.59,0,0,0,173,245.74Z" transform="translate(-1.85 0)"/><path class="cls-1" d="M157.22,270h-4.86l-.47-.79.22-.4a39.07,39.07,0,0,1,3.3-4.92c2.63-3.31,5.11-5,7.36-5.08a10.24,10.24,0,0,1,6.4,2.23,15,15,0,0,1,2.63,2.48l.42.53-.91,1-.58-.37a12.4,12.4,0,0,0-3.1-1.33,6,6,0,0,0-5.35.73c-1.2.91-3.38,4-4.38,5.53l-.23.38Zm-3-1.61h2.57c.77-1.16,3-4.47,4.52-5.58a7.22,7.22,0,0,1,5.82-1.21,8.13,8.13,0,0,0-4.31-1.19c-1.73.05-3.86,1.6-6.15,4.48A36.75,36.75,0,0,0,154.22,268.36Z" transform="translate(-1.85 0)"/><path class="cls-1" d="M349.61,179.9a12.7,12.7,0,0,0,.44-3.37,10.78,10.78,0,0,0-2.27-6.91c-.61-.76-.79-1.82-.6-3.55.52-4.78,1.66-8.16,3.23-9.52a2,2,0,0,0,.68-1.67,1.81,1.81,0,0,0-.87-1.49,3.55,3.55,0,0,0-3.48-.09,3.53,3.53,0,0,0-3.37-.89,1.79,1.79,0,0,0-1.26,1.19,2,2,0,0,0,.18,1.79c1.13,1.75,1.29,5.32.44,10.05-.31,1.7-.78,2.67-1.58,3.23a10.83,10.83,0,0,0-4.11,6,13.31,13.31,0,0,0-.53,3.36,10.42,10.42,0,0,0-3.19,6.19l-.73,5.09c-.75,5.26,2.41,10.11,7,10.77l.82.12c4.62.66,9-3.11,9.76-8.37l.73-5.09A10.27,10.27,0,0,0,349.61,179.9Zm-10.14,18.17a6.4,6.4,0,0,1-4-2.85,8.21,8.21,0,0,1-1.19-5.68l.72-5.09a8.26,8.26,0,0,1,2.75-5.12,6.39,6.39,0,0,1,4.62-1.61Zm3.63-22.23a7.68,7.68,0,0,0-4.76.88A9.43,9.43,0,0,1,342,170.3a6.72,6.72,0,0,0,2.39-4.55c.66-3.69,1.08-8.66-.67-11.47a2.09,2.09,0,0,1,2.13.77.78.78,0,0,0,.59.27.75.75,0,0,0,.64-.1,2.06,2.06,0,0,1,2.25-.13c-2.46,2.2-3.45,7.09-3.85,10.82a6.69,6.69,0,0,0,1,5,8.69,8.69,0,0,1,1.85,5.57,14.58,14.58,0,0,1-.11,1.62,7.65,7.65,0,0,0-4.32-2.18Zm5.43,15.74a8.26,8.26,0,0,1-2.75,5.12,6.39,6.39,0,0,1-4.62,1.61L344.07,178a6.4,6.4,0,0,1,4,2.85,8.27,8.27,0,0,1,1.2,5.68l-.73,5.09Z" transform="translate(-1.85 0)"/><path class="cls-1" d="M350.4,183.19l3.08-.86a.93.93,0,0,0,.57-.5l3.35-7a1,1,0,0,0-.33-1.3.83.83,0,0,0-1.16.42l-3.16,6.57-2.7.75a1,1,0,0,0-.66,1.17.87.87,0,0,0,.7.73A.65.65,0,0,0,350.4,183.19Zm8,9.76-3.12-5.2a.81.81,0,0,0-.55-.39l-4.06-.76a.9.9,0,0,0-1,.8.92.92,0,0,0,.66,1.11l3.72.69,2.92,4.88a.82.82,0,0,0,.58.39.83.83,0,0,0,.61-.17A1,1,0,0,0,358.35,193Zm-6,4.6a1,1,0,0,0-.29-.82c-1-1-2.26-2.2-2.51-2.54a.8.8,0,0,0-.89-.47,1,1,0,0,0-.71,1.14c.05.35.08.59,2.65,3l-.4,4.19a.91.91,0,0,0,.71,1H351a.94.94,0,0,0,.94-.9Zm-16.69-18.3-2.38-1.48-1.19-7.18a.82.82,0,0,0-1-.73,1,1,0,0,0-.68,1.16l1.25,7.62a.91.91,0,0,0,.41.63l2.72,1.69a.79.79,0,0,0,.29.11.86.86,0,0,0,.87-.51A1,1,0,0,0,335.7,179.25Zm-1.29,6a.91.91,0,0,0-.74-1.05l-4.11-.41a.87.87,0,0,0-.64.22l-4.45,4.12a1.06,1.06,0,0,0-.15,1.36.8.8,0,0,0,.54.34.82.82,0,0,0,.66-.22l4.18-3.86,3.75.38A.93.93,0,0,0,334.41,185.22Zm-.89,6.33a.79.79,0,0,0-1,.2c-.34.25-1.86,1.07-3.13,1.73a1,1,0,0,0-.5.71l-.9,4.63a.93.93,0,0,0,.65,1.12h0a.92.92,0,0,0,1-.79l.79-4.13c3.16-1.65,3.26-1.86,3.4-2.19A1,1,0,0,0,333.52,191.55Z" transform="translate(-1.85 0)"/><path class="cls-3" d="M294,316.49a2.34,2.34,0,1,1-1.07,3.92,4,4,0,0,1,1.07-3.92Zm-7.72,0a2.33,2.33,0,1,0-2.85,2.85,2.34,2.34,0,1,0,2.85-2.85Z" transform="translate(-1.85 0)"/><path class="cls-1" d="M274.81,316.11a12.13,12.13,0,0,0-.61,2.94,14,14,0,0,0,1.29,7.31,12.88,12.88,0,0,0,3.73,4.65,13.56,13.56,0,0,0,4.46,2.19,6.64,6.64,0,0,1,1.37.79,8.71,8.71,0,0,0,5,1.88h0a8.83,8.83,0,0,0,5-1.87,6.31,6.31,0,0,1,1.37-.8A13.56,13.56,0,0,0,301,331a12.78,12.78,0,0,0,3.73-4.65,14,14,0,0,0,1.29-7.31,12.64,12.64,0,0,0-.6-2.94,18.64,18.64,0,0,0,1.41-4.91,17.78,17.78,0,0,0,.06-4.72,5.07,5.07,0,0,0-.09-.54l-1,.21,1-.36a1.92,1.92,0,0,0-1.87-1.6h-.12a10.73,10.73,0,0,0-2.64.51,13.52,13.52,0,0,0-4.71,2.6,22.94,22.94,0,0,0-4-.87,28,28,0,0,0-3.3-.21,27.08,27.08,0,0,0-3.3.21,23.76,23.76,0,0,0-4,.87,13.57,13.57,0,0,0-4.7-2.6,10.9,10.9,0,0,0-2.65-.51h-.12a2,2,0,0,0-1.88,1.67l0,.11c0,.16-.07.33-.09.51a17.76,17.76,0,0,0,.06,4.72A18.28,18.28,0,0,0,274.81,316.11Zm.62-9.37c0-.13,0-.24.07-.43a8.58,8.58,0,0,1,1.94.4,11.25,11.25,0,0,1,4,2.22.83.83,0,0,0,.18.13c.05.05.12.09.19.16a1.1,1.1,0,0,0,1.13.26,20.09,20.09,0,0,1,4.11-1,25.89,25.89,0,0,1,3.05-.2,25.29,25.29,0,0,1,3,.2,21.49,21.49,0,0,1,4.16,1,1.05,1.05,0,0,0,1.08-.27,2.33,2.33,0,0,1,.2-.16,1.09,1.09,0,0,0,.17-.13,11.41,11.41,0,0,1,4-2.22,8.58,8.58,0,0,1,1.94-.4v.07a3.37,3.37,0,0,1,.06.36,16.15,16.15,0,0,1-1.47,8.85,1.07,1.07,0,0,0,0,.86,9.71,9.71,0,0,1,.63,2.79,11.87,11.87,0,0,1-1.1,6.21,10.53,10.53,0,0,1-3.11,3.89,11.36,11.36,0,0,1-3.82,1.85,8.15,8.15,0,0,0-1.9,1.05,5.69,5.69,0,0,1-7.74,0,8.3,8.3,0,0,0-1.89-1.05,11.4,11.4,0,0,1-3.83-1.85,10.63,10.63,0,0,1-3.11-3.89,11.87,11.87,0,0,1-1.1-6.21,9.71,9.71,0,0,1,.63-2.79,1.07,1.07,0,0,0,0-.86,16,16,0,0,1-1.42-4.7,15.59,15.59,0,0,1-.05-4.15Z" transform="translate(-1.85 0)"/><path class="cls-1" d="M292.74,320.92a4.28,4.28,0,0,0,1.19.17,4.61,4.61,0,0,0,3.25-1.37,4.53,4.53,0,0,0,1.2-4.44.5.5,0,0,0-.36-.36,4.62,4.62,0,0,0-5.64,5.64A.54.54,0,0,0,292.74,320.92Zm1.59-4.05a1.83,1.83,0,1,1-1,3.1A3.43,3.43,0,0,1,294.33,316.87Zm-8.06,4.22a4.28,4.28,0,0,0,1.19-.17.54.54,0,0,0,.36-.36,4.62,4.62,0,0,0-5.64-5.64.52.52,0,0,0-.36.36,4.53,4.53,0,0,0,1.2,4.44A4.61,4.61,0,0,0,286.27,321.09Zm-3.51-5.23a3.51,3.51,0,0,1,3.11,1,3.43,3.43,0,0,1,1,3.1,3,3,0,0,1-.6.06,3.53,3.53,0,0,1-2.5-1.06,3.49,3.49,0,0,1-1-3.11ZM285.88,328a.52.52,0,0,0,.52.53,4.35,4.35,0,0,0,3.7-1.91,4.35,4.35,0,0,0,3.7,1.91.53.53,0,0,0,0-1.06,2.94,2.94,0,0,1-3.17-2.64.53.53,0,0,0-1.06,0,2.94,2.94,0,0,1-3.17,2.64A.52.52,0,0,0,285.88,328Z" transform="translate(-1.85 0)"/><path class="cls-1" d="M318.18,118.18a.82.82,0,1,0,.82-.82A.82.82,0,0,0,318.18,118.18Z" transform="translate(-1.85 0)"/><path class="cls-1" d="M322.09,116.93a9.79,9.79,0,0,0-1.89-1.86,10.43,10.43,0,0,0-3.67-1.74,4.9,4.9,0,0,0-3.45-3,8.68,8.68,0,0,0-2.32-.28,22.29,22.29,0,0,0-2.51.18.81.81,0,0,0-.73.9.83.83,0,0,0,.19.44,6.86,6.86,0,0,1,1.2,2,14.24,14.24,0,0,0-5.85,3,8.5,8.5,0,0,0-4.63-2.79.81.81,0,1,0-1.33.94.77.77,0,0,0,.48.32,6.57,6.57,0,0,1-.47,7.88.82.82,0,0,0,.08,1.15.87.87,0,0,0,.45.2,6,6,0,0,0,5.67-2.88l.16.12a17,17,0,0,0,6.6,3.06,3.49,3.49,0,0,1-1.29,1.9.81.81,0,0,0-.18,1.14.78.78,0,0,0,.51.32,5.55,5.55,0,0,0,1,.09,6,6,0,0,0,4.14-1.65c.22-.22.42-.45.61-.68a4.32,4.32,0,0,1,.95-.92,4.5,4.5,0,0,1,1.45-.48l.64-.15a9,9,0,0,0,3.22-1.56c.18-.13.35-.28.52-.43l.08-.07a3.37,3.37,0,0,0,.37-5.13Zm-1.47,3.92-.06.05a3.89,3.89,0,0,1-.41.34,7.41,7.41,0,0,1-2.66,1.3l-.58.13a5.89,5.89,0,0,0-2,.7,5.57,5.57,0,0,0-1.31,1.24c-.17.19-.34.39-.52.57a4.08,4.08,0,0,1-2,1.06,5,5,0,0,0,.68-2.31.82.82,0,0,0-.68-.83,15.92,15.92,0,0,1-5.2-1.92c-.51-.31-1-.64-1.48-1-.29-.22-.6-.47-.91-.74a.82.82,0,0,0-1.15.06.78.78,0,0,0-.18.32,4.12,4.12,0,0,1-2.84,2.65,8.18,8.18,0,0,0,.54-6.41,6.67,6.67,0,0,1,2.35,2.15.81.81,0,0,0,1.13.24l.13-.1a11.53,11.53,0,0,1,1.57-1.3,12.6,12.6,0,0,1,5-2.07.82.82,0,0,0,.66-1v0a8.06,8.06,0,0,0-.93-2.32,8.83,8.83,0,0,1,2.84.19A3.07,3.07,0,0,1,315,114.1a.83.83,0,0,0,.66.71,8.84,8.84,0,0,1,3.54,1.57,8,8,0,0,1,1.57,1.55,2.32,2.32,0,0,1,.65,1.68A2.37,2.37,0,0,1,320.62,120.85Z" transform="translate(-1.85 0)"/><path class="cls-1" d="M317.16,120.26a1,1,0,0,1-.5-.72,1.72,1.72,0,0,1,.12-1.17.41.41,0,0,0-.18-.55.4.4,0,0,0-.55.17h0a2.6,2.6,0,0,0-.19,1.74,1.82,1.82,0,0,0,1,1.29.4.4,0,0,0,.52-.25.39.39,0,0,0-.23-.51Z" transform="translate(-1.85 0)"/><path class="cls-1" d="M277.12,55.39a3.64,3.64,0,0,1-.63-.3,5.29,5.29,0,0,1-2.44-3.61,6.59,6.59,0,0,1,.48-4.09,4.84,4.84,0,0,1,2.78-2.65,3.87,3.87,0,0,1,3.22.31A5.31,5.31,0,0,1,283,48.66a6.69,6.69,0,0,1-.47,4.1,4.91,4.91,0,0,1-2.79,2.65A3.9,3.9,0,0,1,277.12,55.39Zm2.18-9a2.1,2.1,0,0,0-1.42,0,3.23,3.23,0,0,0-1.77,1.74,4.83,4.83,0,0,0-.34,3,3.56,3.56,0,0,0,1.58,2.44,2.17,2.17,0,0,0,1.79.18A3.23,3.23,0,0,0,280.91,52a4.85,4.85,0,0,0,.34-3,3.54,3.54,0,0,0-1.59-2.44A2,2,0,0,0,279.3,46.4Zm8.25,5.45a4,4,0,0,1-2-1.6,6.07,6.07,0,0,1-.65-4.67A6.64,6.64,0,0,1,287,42,4.21,4.21,0,0,1,290.62,41a3.83,3.83,0,0,1,2.49,1.75,6.06,6.06,0,0,1,.65,4.67,6.71,6.71,0,0,1-2.1,3.55A4.25,4.25,0,0,1,288.08,52,4.61,4.61,0,0,1,287.55,51.85Zm3-9.09-.28-.08a2.52,2.52,0,0,0-2.1.68A4.87,4.87,0,0,0,286.65,46a4.4,4.4,0,0,0,.42,3.32,2.11,2.11,0,0,0,1.36,1,2.5,2.5,0,0,0,2.1-.67A4.9,4.9,0,0,0,292.06,47a4.4,4.4,0,0,0-.42-3.32A2.21,2.21,0,0,0,290.56,42.76Zm12.68,22.11a3.86,3.86,0,0,1-2-1.65,4.93,4.93,0,0,1-.43-3.82A6.53,6.53,0,0,1,303.07,56a5.26,5.26,0,0,1,4.18-1.21,3.86,3.86,0,0,1,2.68,1.83,4.88,4.88,0,0,1,.43,3.82,6.57,6.57,0,0,1-2.26,3.44,5.26,5.26,0,0,1-4.18,1.21A3.77,3.77,0,0,1,303.24,64.87Zm4.1-8.3-.39-.1a3.54,3.54,0,0,0-2.79.86,4.89,4.89,0,0,0-1.67,2.52,3.17,3.17,0,0,0,.25,2.47,2.07,2.07,0,0,0,1.48,1,3.52,3.52,0,0,0,2.78-.86A4.78,4.78,0,0,0,308.67,60a3.17,3.17,0,0,0-.24-2.47A2.11,2.11,0,0,0,307.34,56.57Zm-9.68-1a3.22,3.22,0,0,1-.5-.23,4.2,4.2,0,0,1-2.06-3.1,6.7,6.7,0,0,1,.66-4.08,6.08,6.08,0,0,1,3.5-3.16,3.87,3.87,0,0,1,3,.25,4.22,4.22,0,0,1,2.06,3.1,6.69,6.69,0,0,1-.66,4.08,6.11,6.11,0,0,1-3.49,3.17A3.94,3.94,0,0,1,297.66,55.52Zm3.53-8.9a2.25,2.25,0,0,0-1.41,0,4.39,4.39,0,0,0-2.45,2.28,4.93,4.93,0,0,0-.51,3A2.54,2.54,0,0,0,298,53.76a2.18,2.18,0,0,0,1.68.11,4.41,4.41,0,0,0,2.45-2.27,5,5,0,0,0,.5-3,2.5,2.5,0,0,0-1.18-1.86A1.51,1.51,0,0,0,301.19,46.62Zm-9.36,28.92-.24-.1a4.82,4.82,0,0,1-2.11-1.74A6.5,6.5,0,0,0,282.09,71a4.87,4.87,0,0,1-2.73,0,5,5,0,0,1-2.18-1.36,4.87,4.87,0,0,1-1-5l0-.09a16.41,16.41,0,0,1,6.64-8.45,11.69,11.69,0,0,1,4.57-1.7,9.69,9.69,0,0,1,8.69,3.15,11.9,11.9,0,0,1,2.41,4.23,16.44,16.44,0,0,1-.33,10.75l0,.09a4.93,4.93,0,0,1-1.62,2.21,5,5,0,0,1-4.68.71Zm-5-6.08a8.5,8.5,0,0,1,4.09,3.25,3.16,3.16,0,0,0,5.57-.69l0-.08c2.41-6.63.17-13.55-5-15.42s-11.31,2-13.71,8.63l0,.09a3.16,3.16,0,0,0,3.83,4.1A8.48,8.48,0,0,1,286.83,69.46Z" transform="translate(-1.85 0)"/><path class="cls-1" d="M498.74,7.64l0,0-2.14-2.76v-3a.85.85,0,0,0-.85-.85H480.83a.85.85,0,0,0-.84.85V4.73l-2.75,6.94a.78.78,0,0,0,0,.21l.24,0-.25,0V40.16A.85.85,0,0,0,478,41H493a.93.93,0,0,0,.29,0,.54.54,0,0,0,.18-.1l5-4a.84.84,0,0,0,.32-.65V8a.88.88,0,0,0-.07-.32Zm-6.59,5.15V39.31H478.88V12.79Zm5-3.07v26l-3.29,2.64v-26ZM495,9.29l1-2.54.83,1.07ZM481.67,4.05V2.68h13.27V4.05Zm12.87,1.69-2.12,5.37H479.28l2.12-5.37Z" transform="translate(-1.85 0)"/><path class="cls-1" d="M480.68,24.1c0,1.71,2.11,3.1,4.71,3.1s4.71-1.39,4.71-3.1h0c0-1.71-2.11-3.1-4.71-3.1S480.68,22.39,480.68,24.1Z" transform="translate(-1.85 0)"/><path class="cls-3" d="M80.75,309.15a17.47,17.47,0,1,0-17.48-17.47A17.47,17.47,0,0,0,80.75,309.15Z" transform="translate(-1.85 0)"/><path class="cls-3" d="M80.75,285.05c2.25,0,4.43,4,6.53,7.4.37.6-.34,1.29,0,1.93A8.56,8.56,0,0,0,89,297c.77.69,1.44-5.48,2-4.77.93,1.13,1.61,5.35,2.29,5.75.93.56,2-5.74,2.5-6.48.29-.45,2.36,1.59,2.36.24a17.48,17.48,0,0,0-34.95,0c0,2.91,1.19.65,2.45,0,.58-.3,1,4.73,1.8,4.21s.85-3.29,1.67-4.21c.37-.41,1.75,8.17,2.17,7.76.92-.92,0-3.85,1-5.9.47-1,1.23-.42,1.87-1.37C76.29,289.1,78.83,285.05,80.75,285.05Z" transform="translate(-1.85 0)"/><path class="cls-3" d="M80.78,298.2a6.54,6.54,0,1,0-6.54-6.53A6.53,6.53,0,0,0,80.78,298.2Z" transform="translate(-1.85 0)"/><path class="cls-4" d="M80.79,309.89a18.17,18.17,0,0,1-12.88-5.33,17.87,17.87,0,0,1-3.9-5.79A18.22,18.22,0,0,1,87.88,274.9a18.23,18.23,0,0,1,9.69,9.69,18.2,18.2,0,0,1-16.78,25.3Zm0-34.94a16.64,16.64,0,0,0-6.51,1.31,16.84,16.84,0,0,0-8.91,8.91,16.73,16.73,0,1,0,30.83,13,16.71,16.71,0,0,0,0-13A16.68,16.68,0,0,0,80.79,275Z" transform="translate(-1.85 0)"/><path class="cls-4" d="M80.78,299a7.28,7.28,0,1,1,7.28-7.28A7.29,7.29,0,0,1,80.78,299Zm0-13.08a5.8,5.8,0,1,0,5.79,5.8A5.82,5.82,0,0,0,80.78,285.87Z" transform="translate(-1.85 0)"/><path class="cls-4" d="M71.44,300.16a2.58,2.58,0,0,1-.38,0c-.73-.15-1.19-.8-1.34-1.93a19.15,19.15,0,0,1-.06-2.67c0-.77,0-1.57,0-2.2a2,2,0,0,0-.24-1h0a4.2,4.2,0,0,0-.26,1.25,5.69,5.69,0,0,1-.29,1.53,1.53,1.53,0,0,1-1.47,1.09,1.46,1.46,0,0,1-1.45-1.09,5.53,5.53,0,0,1-.18-1.49,4.68,4.68,0,0,0-.11-1.14c-.06-.2-.1-.21-.15-.22a.2.2,0,0,0-.14,0c-.08.06-.26.27-.45,1a15.62,15.62,0,0,0-.35,2.55.74.74,0,0,1-.79.69.75.75,0,0,1-.69-.8c.2-2.66.59-4,1.36-4.58a1.61,1.61,0,0,1,1.31-.31A1.63,1.63,0,0,1,67,292.08a5.86,5.86,0,0,1,.17,1.52,4.06,4.06,0,0,0,.13,1.14h0a.87.87,0,0,0,.14-.35,9.08,9.08,0,0,0,.14-.94,3.11,3.11,0,0,1,.85-2.29,1.5,1.5,0,0,1,1.19-.25c.76.13,1.23.78,1.39,1.94a18.36,18.36,0,0,1,.07,2.72c0,.75,0,1.54,0,2.16s.17.9.22.95h.05a1.69,1.69,0,0,0,.16-.76,15.77,15.77,0,0,0,0-1.78,19.46,19.46,0,0,1,0-2.15,2.42,2.42,0,0,1,.5-1.35,1.74,1.74,0,0,1,1.12-.64,2,2,0,0,1,2.11,1.45.74.74,0,0,1-1.39.51c-.13-.35-.36-.51-.52-.49s-.3.28-.33.64a16.09,16.09,0,0,0,0,1.95c.09,1.64.16,3.06-.64,3.75A1.52,1.52,0,0,1,71.44,300.16Zm22-1.21a1.65,1.65,0,0,1-1.63-1.45,10.4,10.4,0,0,1-.19-2.16c0-2.21-.26-2.39-.51-2.39a.51.51,0,0,0-.24,0c-.16.17-.11,1-.09,1.45a6.4,6.4,0,0,1-.07,1.81,1.79,1.79,0,0,1-1.52,1.43,1.91,1.91,0,0,1-1.64-.43c-1.14-1-1-3.36-1-4.62,0-.18,0-.33,0-.42a.74.74,0,0,1,1.48,0c0,.12,0,.28,0,.48a14,14,0,0,0,0,2c.1,1,.36,1.33.46,1.42a.42.42,0,0,0,.41.08c.18,0,.27-.07.33-.33a5.5,5.5,0,0,0,0-1.37,3.32,3.32,0,0,1,.49-2.54,1.72,1.72,0,0,1,1.31-.51A1.86,1.86,0,0,1,92.85,293a9.49,9.49,0,0,1,.21,2.32,12.1,12.1,0,0,0,.09,1.57c.08.48.19.57.2.57h.05c.12,0,.24-.18.35-.52a10.9,10.9,0,0,0,.32-2.14c.17-1.76.34-3.57,1.7-4a1.66,1.66,0,0,1,1.45.18c.93.65,1.12,2.28,1.29,4.7a.74.74,0,0,1-1.48.11,20.55,20.55,0,0,0-.3-2.64c-.16-.77-.33-.93-.36-.95a.39.39,0,0,0-.2,0c-.08,0-.22.21-.34.67a13.08,13.08,0,0,0-.29,2,12.56,12.56,0,0,1-.39,2.45C94.76,298.67,94,299,93.4,299Z" transform="translate(-1.85 0)"/><path class="cls-3" d="M251.89,259.82a6.6,6.6,0,1,0-6.59-6.6A6.6,6.6,0,0,0,251.89,259.82Z" transform="translate(-1.85 0)"/><path class="cls-3" d="M263.39,231.78v0l4.82-4.91a4.08,4.08,0,0,1,2.21-7.52,3.49,3.49,0,0,1,3.1,4.85c3-.77,5,1,5,3.19a4.1,4.1,0,0,1-7.44,2.35l-5,5.07Z" transform="translate(-1.85 0)"/><path class="cls-4" d="M249.76,267A17.82,17.82,0,0,1,232,249.15a17.22,17.22,0,0,1,4.81-12.1A23.07,23.07,0,0,1,248,230.77a39,39,0,0,1,8.59-1c3.89,0,6.66.68,8.23,2.07,4.39,3.9,4.25,13.74,3.47,18.94a19.13,19.13,0,0,1-6.15,11.76A18.46,18.46,0,0,1,249.76,267Zm7-35.38h-.1a36.73,36.73,0,0,0-8.14,1,21.16,21.16,0,0,0-10.34,5.74,15.49,15.49,0,0,0-3.13,4.79,15.67,15.67,0,0,0-1.16,6,15.93,15.93,0,0,0,15.91,16,16.55,16.55,0,0,0,11.16-4,17.27,17.27,0,0,0,5.54-10.62,38.56,38.56,0,0,0,.19-9.46c-.43-3.7-1.48-6.39-3.06-7.78C262.43,232.19,260,231.62,256.72,231.62Z" transform="translate(-1.85 0)"/><path class="cls-4" d="M252,260.76a7.54,7.54,0,1,1,7.53-7.54A7.55,7.55,0,0,1,252,260.76Zm0-13.19a5.66,5.66,0,1,0,5.65,5.65A5.66,5.66,0,0,0,252,247.57ZM266,235.72a1,1,0,0,1-.66-.27,1,1,0,0,1-.28-.67.93.93,0,0,1,.27-.66l5-5.07a.91.91,0,0,1,.61-.28h.08a.92.92,0,0,1,.62.25l0,0a.58.58,0,0,1,.1.12,3.15,3.15,0,0,0,5.72-1.82,2.34,2.34,0,0,0-.87-1.9,3.36,3.36,0,0,0-2.9-.37,1,1,0,0,1-.92-.27.94.94,0,0,1-.21-.93,2.89,2.89,0,0,0-.31-2.65,2.34,2.34,0,0,0-1.89-1,3.14,3.14,0,0,0-1.72,5.78l.14.1,0,0a1,1,0,0,1,.26.61v.08a1,1,0,0,1-.26.62l-4.82,4.9a.94.94,0,0,1-1.33,0,.92.92,0,0,1-.29-.67,1,1,0,0,1,.27-.66l4.1-4.16a5,5,0,0,1,3.61-8.54,4.17,4.17,0,0,1,3.41,1.75,4.48,4.48,0,0,1,.84,2.92,4.71,4.71,0,0,1,3.14.93,4.26,4.26,0,0,1,1.6,3.38,5,5,0,0,1-8.42,3.72l-4.28,4.36A1,1,0,0,1,266,235.72Z" transform="translate(-1.85 0)"/><path class="cls-3" d="M209,111.72a5.29,5.29,0,0,1,4-2.09c.94,0-.05.81.1,2.07.09.8.36,1.2,1.26,2a10.42,10.42,0,0,1,.56,16.23c-1.64,1.39-1.87,2-2,2.44s-.18,1.36.74,3.12a15.51,15.51,0,0,1,1.21,8.22c-1.12,5.61-6.73,8-12.34,6.88s-10.19-5.53-9.08-11.14a14.36,14.36,0,0,1,4.87-7.33,3.82,3.82,0,0,0,1.35-2.25,4.78,4.78,0,0,0-.49-2.78c-1.13-2.88-1.5-5.24-1.13-7.1a10.37,10.37,0,0,1,11-8.3Z" transform="translate(-1.85 0)"/><path class="cls-4" d="M200.48,144a.89.89,0,0,1-.44-.25.77.77,0,0,1,.07-1.09A11.69,11.69,0,0,0,204,136.1c.76-3.78.26-6-.75-9.8a10,10,0,0,1,0-4.53,19.54,19.54,0,0,1,1.93-5.18.78.78,0,0,1,1.38.72c-1.78,3.38-2.37,6.27-1.76,8.59,1,3.95,1.59,6.39.77,10.5a13.27,13.27,0,0,1-4.42,7.43A.8.8,0,0,1,200.48,144Z" transform="translate(-1.85 0)"/><path class="cls-4" d="M203.41,146.54a.82.82,0,0,1-.44-.25.77.77,0,0,1,.07-1.09c2-1.76,3.75-5.66,4.3-8.41.75-3.78.26-6-.75-9.8-.71-2.71-.08-6,1.88-9.7a.79.79,0,0,1,1.05-.33.78.78,0,0,1,.32,1.05c-1.77,3.38-2.37,6.27-1.75,8.59,1,3.94,1.59,6.38.77,10.49-.59,3-2.47,7.21-4.79,9.27A.77.77,0,0,1,203.41,146.54Z" transform="translate(-1.85 0)"/><path class="cls-4" d="M209,142.28a.87.87,0,0,1-.36-.18,9.53,9.53,0,0,0-3.49-1.93,13.71,13.71,0,0,0-4.57-.53.76.76,0,0,1-.8-.74.77.77,0,0,1,.74-.81,12.66,12.66,0,0,1,9.15,2.85.77.77,0,0,1,.07,1.09A.82.82,0,0,1,209,142.28Zm-7-20.69a.78.78,0,0,1,0-1.52,15.77,15.77,0,0,1,10.36,1.09.77.77,0,1,1-.7,1.38,14.1,14.1,0,0,0-9.3-1A1.22,1.22,0,0,1,202,121.59Zm0,3.74a.78.78,0,0,1,0-1.52,14,14,0,0,1,10,1.1.77.77,0,0,1-.77,1.34,12.44,12.44,0,0,0-8.87-.93A.7.7,0,0,1,202,125.33Z" transform="translate(-1.85 0)"/><path class="cls-4" d="M202.33,151.38a12.63,12.63,0,0,1-8.66-5.69,9,9,0,0,1-.68-7.63,12.22,12.22,0,0,1,4.79-6.29A3,3,0,0,0,199,129.7a4.84,4.84,0,0,0-.54-2.28,0,0,0,0,1,0,0c-1.19-3.06-1.57-5.52-1.17-7.54a11,11,0,0,1,4.25-6.75,11.19,11.19,0,0,1,7.21-2.2,5.92,5.92,0,0,1,4.27-2.07,1.14,1.14,0,0,1,1,.41,1.34,1.34,0,0,1,.05,1.3,2.35,2.35,0,0,0-.17,1c.06.51.15.75,1,1.53a11.18,11.18,0,0,1,3.68,4.83,11.23,11.23,0,0,1-3.11,12.58c-1.51,1.28-1.69,1.75-1.83,2.13a3.41,3.41,0,0,0,.44,2.67,12.46,12.46,0,0,1,1.82,7.13,9.56,9.56,0,0,1-3.76,7.1,10.52,10.52,0,0,1-4.43,1.89A13.9,13.9,0,0,1,202.33,151.38Zm-2.47-24.55a6.2,6.2,0,0,1,.64,3,4.51,4.51,0,0,1-1.79,3.15,10.83,10.83,0,0,0-4.25,5.55,7.51,7.51,0,0,0,.55,6.36,11.11,11.11,0,0,0,7.62,4.94,12.87,12.87,0,0,0,4.74.09,9,9,0,0,0,3.79-1.61,8.07,8.07,0,0,0,3.14-6,10.89,10.89,0,0,0-1.66-6.28,4.8,4.8,0,0,1-.51-3.94c.25-.68.6-1.35,2.27-2.77a9.62,9.62,0,0,0,2.68-10.83,9.7,9.7,0,0,0-3.2-4.18l-.07,0a3.71,3.71,0,0,1-1.5-2.51,3.43,3.43,0,0,1,.12-1.33,4.76,4.76,0,0,0-2.82,1.76.77.77,0,0,1-.66.28,9.58,9.58,0,0,0-10.2,7.67c-.32,1.69.05,3.94,1.11,6.66Z" transform="translate(-1.85 0)"/><path class="cls-3" d="M395.56,227.92c0-5,1.41-13.81,2.65-16.7s3.31-4.23,7.34,2.53,5.58,18.5,2.32,27.44-14.53,9.64-19.76,8.5-9.16-5.07-11.22-8.5-6.11-17.92,3-28.84q9.08-10.92,9.49-3.72-.75,15,1.47,20.32c2.22,5.29,5.26,9.36,5.26,11.1s.93.49.47-3.9S395.56,232.93,395.56,227.92Z" transform="translate(-1.85 0)"/><path class="cls-3" d="M389.2,215.72c2-3.59,3.36-5.61,3.93-6.06.86-.69.3.72,1.1,2.23a14.41,14.41,0,0,0,2.68,3.35l-.75,4.88-.61,8,.61,6.36v6.22l-3-7-2.87-6.89-1.07-6.71Z" transform="translate(-1.85 0)"/><path class="cls-1" d="M391.71,251.07a21.47,21.47,0,0,1-4.66-.67,17.36,17.36,0,0,1-7-3.73,19.36,19.36,0,0,1-4.46-5.68,19,19,0,0,1-1.48-4.77,33.22,33.22,0,0,1-.52-7.24,31.2,31.2,0,0,1,6.2-17.68,26.64,26.64,0,0,1,5.46-5.58c1.85-1.31,3.43-1.74,4.57-1.23a2.33,2.33,0,0,1,1.33,1.68,6,6,0,0,1,0,2.53,54.9,54.9,0,0,0-.78,10,30.77,30.77,0,0,0,1.41,9.82,65,65,0,0,0,2.91,6.43q.38.74.69,1.38a23.79,23.79,0,0,0-.42-3.3,17.89,17.89,0,0,1-.26-5.05c.2-5.11,2-14,3.4-16.95a7.3,7.3,0,0,1,1.22-1.86,2.86,2.86,0,0,1,2-.95c1.8-.05,3.61,1.73,5.72,5.59a34.07,34.07,0,0,1,3.8,13.28,29,29,0,0,1-2.55,15.07,15.15,15.15,0,0,1-4.57,5.6,16.31,16.31,0,0,1-5.82,2.7A22.06,22.06,0,0,1,391.71,251.07Zm-2.92-44.89a4.75,4.75,0,0,0-2.47,1.09,24,24,0,0,0-5,5.18,29.3,29.3,0,0,0-5.81,16.61c-.13,3.39.38,8.29,1.8,11.06a17.3,17.3,0,0,0,4,5.11,15.46,15.46,0,0,0,6.26,3.33,21.06,21.06,0,0,0,9.85.08,13.29,13.29,0,0,0,9.14-7.28,27.29,27.29,0,0,0,2.37-14.08,32,32,0,0,0-3.59-12.53,16.72,16.72,0,0,0-2.58-3.76,2.32,2.32,0,0,0-1.41-.84c-.47,0-1,.63-1.55,1.73-1.32,2.74-3,11.37-3.22,16.21a16.35,16.35,0,0,0,.23,4.61,26.61,26.61,0,0,1,.45,3.53,19.21,19.21,0,0,1-.06,3.55c-.18,1.38-.52,1.76-.83,1.95a1,1,0,0,1-1,0,1.62,1.62,0,0,1-.59-1.62c0-.69-.89-2.52-1.78-4.29a69.39,69.39,0,0,1-3-6.62,33.65,33.65,0,0,1-1.54-10.47,56.07,56.07,0,0,1,.82-10.39c.24-1.3.07-2-.21-2.12A.44.44,0,0,0,388.79,206.18Z" transform="translate(-1.85 0)"/><path class="cls-1" d="M390,217.08a1,1,0,0,1-.37-.08,1,1,0,0,1-.51-1.25,26,26,0,0,1,2.65-4.83,10,10,0,0,1,1.79-2,1.34,1.34,0,0,1,1.34-.3c.64.25.72.88.79,1.39a3.93,3.93,0,0,0,.4,1.45,13.69,13.69,0,0,0,2.51,3.12,1,1,0,0,1-1.33,1.36,15.37,15.37,0,0,1-2.86-3.58,4.89,4.89,0,0,1-.43-1.16,20.85,20.85,0,0,0-3.09,5.32A1,1,0,0,1,390,217.08Z" transform="translate(-1.85 0)"/><path class="cls-1" d="M374,318.12a10.9,10.9,0,0,0,.74,1.94,12.22,12.22,0,0,0,6,5.76,12,12,0,0,0,5.21,1l1.83,5.77a2.57,2.57,0,0,0,3.27,1.66l1.33-.44a2.72,2.72,0,0,0,1.74-3.27l-1.11-4a.83.83,0,0,0-.47-.61.85.85,0,0,0-1.1.45.84.84,0,0,0,0,.64l1,4a1,1,0,0,1-.63,1.18l-1.33.44a.82.82,0,0,1-1-.54l-1.72-5.41a12.2,12.2,0,0,0,2.45-.68,15.69,15.69,0,0,0,2.42-1.28s.63-.49.93-.74c.1-.1.19-.17.26-.23a11.83,11.83,0,0,0,3-4.06A12.14,12.14,0,1,0,374,318.12Zm7.44,6.13a10.45,10.45,0,0,1-5.77-6.59,8.2,8.2,0,0,1,15.22-5.84,5,5,0,0,1,.73,3.81,5.2,5.2,0,0,1-2.24,3.26,5.2,5.2,0,0,1-7.19-1.45,2.55,2.55,0,0,1-.39-1.95,2.58,2.58,0,0,1,3.05-2,2.58,2.58,0,0,1,1.65,1.11l.48.72a.87.87,0,0,0,1.45-1l-.48-.72a4.34,4.34,0,0,0-6-1.21,4.31,4.31,0,0,0-1.2,6l.53.69a7,7,0,0,0,11.61-1.72,7.07,7.07,0,0,0,.44-1.37,6.7,6.7,0,0,0-1-5.16,10,10,0,0,0-13.21-4.1l-.11.06a10.39,10.39,0,1,1,2.44,17.46Z" transform="translate(-1.85 0)"/><path class="cls-1" d="M414,148.63a3.93,3.93,0,0,0-2.2,5.07,1,1,0,0,0,1.78-.7,1.9,1.9,0,0,1,1.07-2.47,1,1,0,0,0,.54-1.24.83.83,0,0,0-1.19-.66Z" transform="translate(-1.85 0)"/><path class="cls-1" d="M403.17,152.9A3.92,3.92,0,0,0,401,158h0a1,1,0,0,0,1.2.44,1,1,0,0,0,.54-1.23h0a1.9,1.9,0,0,1,1.1-2.39.94.94,0,0,0,.54-1.23.79.79,0,0,0-1.18-.66Z" transform="translate(-1.85 0)"/><path class="cls-1" d="M413.52,144.61l-.26.11a7.53,7.53,0,0,1-4.62-4.43,7.19,7.19,0,0,1-.11-5l2.4-.13a1,1,0,1,0,0-1.92l-6.66.26a1,1,0,0,0-.94,1h0a1,1,0,0,0,1,.94l1.11,0-3,13.6a8.68,8.68,0,0,0,6.64,16,8.38,8.38,0,0,0,4.56-4.26,8.54,8.54,0,0,0,6.25,0,8.72,8.72,0,0,0,4.89-11.25,8.51,8.51,0,0,0-11.17-4.92Zm-7-4.9a7,7,0,0,0,.4,1.28,9.36,9.36,0,0,0,4.4,4.92,8.56,8.56,0,0,0-2.31,3,8.7,8.7,0,0,0-4.41-.51l1.92-8.65ZM412,160a6.62,6.62,0,0,1-3.59,3.36,6.77,6.77,0,1,1-.05-12.58,9,9,0,0,0,.32,5.2,8.35,8.35,0,0,0,3.32,4Zm7.19-1A6.77,6.77,0,1,1,423,150.2a6.72,6.72,0,0,1-3.81,8.77Z" transform="translate(-1.85 0)"/><path class="cls-1" d="M476.45,89.38l-2-.21.19-1.78a1.62,1.62,0,0,0-.75-1.52c-1.44-3.57-5.3-6.31-10.11-6.8-5-.51-9.34,1.39-11.47,4.59a2.26,2.26,0,0,0-.86,1.35l-.18,1.79-1.6-.17a2,2,0,0,0-2.15,1.59c.14,2.17.85,4,3.07,5.18l-.42,4.1a7.19,7.19,0,0,0,6.4,7.86l8.92.92a7.21,7.21,0,0,0,7.87-6.41l.42-4.1a5.1,5.1,0,0,0,4.06-4.45v-.17A1.71,1.71,0,0,0,476.45,89.38Zm-25.6,1.88a4.54,4.54,0,0,1-1.51-2.86l1.79.18Zm12.78-10.41a12.74,12.74,0,0,1,8.2,4.45l-17.12-1.76A12.74,12.74,0,0,1,463.63,80.85Zm-3.27,23.09.37-3.56,1.78.18-.36,3.57Zm2.34-5.16-1.79-.19.19-1.78,1.78.18Zm9.48-4.62L472,96l-.37,3.56a5.38,5.38,0,0,1-5.9,4.8l-1.78-.18.36-3.57.19-1.78.18-1.78a1.93,1.93,0,0,0-1.6-2l-1.78-.18a1.93,1.93,0,0,0-2,1.6l-.73,7.13-1.78-.18A5.4,5.4,0,0,1,452,97.5l.37-3.56.18-1.79,0-.35.31-3,7,.72.17,0h0l12.49,1.28Zm.53-5.17-19.62-2,.19-1.78,19.61,2ZM474,93.63l.27-2.67,1.78.18A4.49,4.49,0,0,1,474,93.63Z" transform="translate(-1.85 0)"/><path class="cls-1" d="M342.64,259a8.1,8.1,0,0,0-4.36-1.4,7,7,0,0,0-5.93,3.49,13.09,13.09,0,0,0-1.57,3.49c-.52,0-.87.17-1.22.17-.35-.52-.53-1.39-.35-3.49v-.52c.17-1.74.35-4.88-2.44-6.1-1.4-.7-3.14-.35-4.89.87-2.44,1.57-4.88,4.88-4.88,8.2a7.09,7.09,0,0,0,7.33,7.5h.17a16,16,0,0,0,3.31-.53H328l.52.53.18.17c-.35.52-1.05,1.22-3.14,2.09h-.18a.54.54,0,0,0-.35.18c-1.57.7-4.53,1.74-4.53,5.06,0,1.57,1.22,3.14,3,4.18a12.93,12.93,0,0,0,5.76,1.57,8.58,8.58,0,0,0,3.84-.87,7.18,7.18,0,0,0,3.48-9.94,12.89,12.89,0,0,0-2.26-3.14,3.38,3.38,0,0,0,.52-1.4c.52,0,1.4.18,3.14,1.57l.17.18.18.17.17.18c.88.69,2.45,1.92,4.19,1.92a3.87,3.87,0,0,0,2.27-.7c1.39-.87,2.09-2.62,2.09-4.71C347,264.72,345.43,260.71,342.64,259Zm-15.35,9.94a22.06,22.06,0,0,1-3,.52,5.51,5.51,0,0,1-5.59-5.75c0-2.27,1.75-5.24,4-6.81a5.52,5.52,0,0,1,2.44-.87,1.52,1.52,0,0,1,.87.18c1.57.69,1.57,2.26,1.4,4.36v.52h0c-.35,2.79.17,4,.69,4.71a4,4,0,0,0-.87,2.62Zm17.79-1.4c0,.88-.17,2.45-1.22,3.14a1.47,1.47,0,0,1-1.22.35,4.84,4.84,0,0,1-3.14-1.74.38.38,0,0,1-.35-.35c-2.27-1.75-3.31-1.92-4.36-2.09a4.1,4.1,0,0,0-2.09-2.1,13.84,13.84,0,0,1,1.22-2.79,5.93,5.93,0,0,1,4.53-2.61,6.61,6.61,0,0,1,3.32,1C343.69,261.58,345.08,264.72,345.08,267.51Zm-13.95,3a2.1,2.1,0,1,1,2.09-2.09A2,2,0,0,1,331.13,270.48Zm-.87,1.74a7.06,7.06,0,0,0,.87.18,3.53,3.53,0,0,0,1.92-.53,18.19,18.19,0,0,1,1.92,2.62,5.43,5.43,0,0,1-2.62,7.5,7.52,7.52,0,0,1-3,.52,11.21,11.21,0,0,1-4.88-1.22c-.7-.35-2.09-1.22-2.09-2.61,0-1.57,1.22-2.45,3.31-3.14.18,0,.18-.18.35-.18h0C328.69,274.14,329.73,273.1,330.26,272.22Z" transform="translate(-1.85 0)"/><path class="cls-1" d="M472,267.47a19.75,19.75,0,0,1-2.38-1.86,31.24,31.24,0,0,0-5-3.69l-.18-3.1h0a1,1,0,0,0-.15-.47l-.09-.1a.87.87,0,0,0-.28-.26l-.07-.06h-.05l-.08,0a51.52,51.52,0,0,0-16.06-2.4h-.09s0,0,0,0l-.09,0a.82.82,0,0,0-.34.16.41.41,0,0,0-.11.07,1,1,0,0,0-.29.4h0l-1.22,3.3a37.44,37.44,0,0,0-5.71,1.74,21,21,0,0,1-2.82.92c-.79.09-3.21.38-13.09,38.43a1.07,1.07,0,0,0,.77,1.3l.11,0,6.43,1a1.07,1.07,0,0,0,1.16-.7l5-14.13-2.54,13.32a1.07,1.07,0,0,0,.28.95c.26.26,2.2,2.05,7.83,2.89a44.83,44.83,0,0,0,6.39.44c9.66,0,11.54.68,11.56.68a1.05,1.05,0,0,0,1,0,1.07,1.07,0,0,0,.56-.82L464,291.39l.67,15.7a1.08,1.08,0,0,0,.91,1l6.44,1a1.06,1.06,0,0,0,1.21-.91s0-.06,0-.1C474.91,268.77,472.69,267.79,472,267.47ZM462.44,262l-5.55,3.79-.78-.75,6.26-4.22Zm-1.57-2.73-6.25,4.21-4.72-5.82A50.42,50.42,0,0,1,460.87,259.25Zm-12.88-.6,4.76,5.87-1,.48-4.2-5.24Zm-21.82,41.29c.29-1.11.58-2.22.88-3.32l4.67.7-1.16,3.27ZM437,301.08l5.05-26.5a1.05,1.05,0,0,0-.77-1.22A1.07,1.07,0,0,0,440,274l-7.5,21.24-4.85-.72c4-14.66,8.28-28.66,9.79-30.35a24.09,24.09,0,0,0,3.05-1,32,32,0,0,1,5.79-1.72l4.42,5.53a1.08,1.08,0,0,0,.68.39,1.12,1.12,0,0,0,.63-.1l1.09-.55-5.48,36.68C441,303.19,438,301.72,437,301.08ZM465.55,278a1.09,1.09,0,0,0-1-1,1.08,1.08,0,0,0-1.1.94L460.36,304a72.2,72.2,0,0,0-10.64-.57l5.44-36.4.88.84a1.07,1.07,0,0,0,1.34.11l6.18-4.23a31.59,31.59,0,0,1,4.64,3.45,18.81,18.81,0,0,0,2.68,2.07c.93,2.05,1,16.63.47,31.78l-4.84-.73Zm1.21,28.14-.16-3.58,4.69.7c0,1.19-.09,2.37-.14,3.54l-4.39-.66Z" transform="translate(-1.85 0)"/><path class="cls-1" d="M451.91,298.53a1.2,1.2,0,0,0-.41.72,1.09,1.09,0,0,0,.19.78,1.15,1.15,0,0,0,.71.43,1.1,1.1,0,0,0,.81-.2,1.07,1.07,0,0,0,.4-.7,1,1,0,0,0-.2-.8A1.15,1.15,0,0,0,451.91,298.53Zm.95-6.32a1.13,1.13,0,0,0-.41.71,1.05,1.05,0,0,0,.2.79,1,1,0,0,0,.69.43,1.16,1.16,0,0,0,.81-.21,1.08,1.08,0,0,0,.41-.69,1.13,1.13,0,0,0-.2-.81A1.15,1.15,0,0,0,452.86,292.21Zm.94-6.33a1.08,1.08,0,0,0,1.3,1.73h0a1.14,1.14,0,0,0,.4-.69,1.1,1.1,0,0,0-.2-.81A1.13,1.13,0,0,0,453.8,285.88Zm1-6.32a1.08,1.08,0,0,0-.24,1.5,1.07,1.07,0,1,0,1.72-1.28A1.11,1.11,0,0,0,454.77,279.56Zm1-6.32a1,1,0,0,0-.23,1.5,1.14,1.14,0,0,0,.69.42,1,1,0,0,0,1.21-.86v0a1,1,0,0,0-.2-.81A1.12,1.12,0,0,0,455.72,273.24Z" transform="translate(-1.85 0)"/><path class="cls-5" d="M373.69,134.93l1.31-1.31h0l-.25.26Zm0-2.63-.57.58Zm0,2.63,1.06-1.06Z" transform="translate(-1.85 0)"/><path class="cls-1" d="M478.89,177.7a9.81,9.81,0,0,0-13.78-13.78,2.22,2.22,0,0,0-1.54-.65,2.2,2.2,0,0,0-1.53.65l-2.38,2.27a2.18,2.18,0,0,0,0,3.08h0l-13.88,13.88a2.18,2.18,0,0,0-3.08,0h0l-2.32,2.31a2.19,2.19,0,0,0,0,3.09h0a9.81,9.81,0,0,0,13.83,13.82,2.17,2.17,0,0,0,1.54.64,2.15,2.15,0,0,0,1.53-.64l2.38-2.26a2.18,2.18,0,0,0,0-3.08h0l13.88-13.88a2.18,2.18,0,0,0,3.08,0h0l2.32-2.31a2.18,2.18,0,0,0,0-3.08h0ZM472,181.6l-13.88,13.88a2.18,2.18,0,0,0-3.08,0h0l-.38.38-7.72-7.69.38-.39a2.18,2.18,0,0,0,0-3.08h0l13.88-13.88a2.15,2.15,0,0,0,1.53.64,2.17,2.17,0,0,0,1.54-.64l.38-.38,7.71,7.71-.38.38a2.17,2.17,0,0,0,0,3.08h0Zm-19.27,16.19a2.18,2.18,0,0,0,0,3A7.63,7.63,0,0,1,442,190.14a2.14,2.14,0,0,0,3-.06l.39-.39,7.72,7.72Zm13.47-28.9.38-.38a2.18,2.18,0,0,0,0-3,7.63,7.63,0,0,1,10.68,10.67,2,2,0,0,0-2.95,0l-.38.38Zm-2.68-3.47.77.78.78.77-.38.38-1.56,1.54-.38.38-.78-.77-.77-.78M442,186.92l.3-.3,1.54-1.54.38-.38.78.77.77.78-.38.38-1.55,1.54-.38.43-.77-.77-.78-.78Zm15.72,12-1.54,1.54-.38.38-.77-.77-.78-.77.38-.39.87-.86.67-.67.38-.38.78.77.77.77Zm17.35-17.3-.78-.77-.77-.78.38-.38,1.56-1.55.33-.32.05-.06.77.78.78.77Z" transform="translate(-1.85 0)"/><path class="cls-1" d="M143.25,120.63a36.41,36.41,0,0,0,2.33-6.12,37.34,37.34,0,0,0,1.31-13A37.14,37.14,0,0,0,140.33,83,37.94,37.94,0,0,0,131,73.67a37.13,37.13,0,0,0-12-5.49,36.54,36.54,0,0,0-6.51-1.07,37.06,37.06,0,0,0-6.58.08,37.45,37.45,0,0,0-12.57,3.56.65.65,0,0,0-.31.86l.93,2,.6,1.31,0,0,5.68,12.19a0,0,0,0,1,0,0l1.19,2.55,1,2a1.18,1.18,0,0,0,.13.18h0l.7,1.49,4.69,10.1-2.76-1.29a.6.6,0,0,0-.81.29.5.5,0,0,0,0,.27.69.69,0,0,0,.17.42l.17.12,1.16.54-1.27-.11h-.18a.51.51,0,0,0-.34.21h0s0,0,0,0a0,0,0,0,1,0,0s0,0,0,0,0,0,0,0v0s0,0,0,.05a.3.3,0,0,0,0,.13v.13s0,0,0,0,0,0,0,0h0l0,.06a.55.55,0,0,0,.08.15l0,.07.08.06.08.05h0l.21,0h.06l1.21.11-1,.27h0l-.22.06-.06,0h0l0,0a0,0,0,0,0,0,0,.36.36,0,0,0-.12.08h0l0,0,0,0s0,0,0,0,0,0,0,0,0,0,0,0l0,0a0,0,0,0,0,0,0l0,0h0s0,0,0,0v.06h0s0,0,0,0V106a.09.09,0,0,0,0,0h0a.13.13,0,0,0,0,.06.47.47,0,0,0,.06.15h0a.21.21,0,0,0,0,.06h0l0,.06a.38.38,0,0,0,.12.09h0l.06,0h0l0,0h.34l.24-.06h0l1-.27L105,107h0l0,0,0,0v0h0l0,0s0,0,0,0,0,0,0,0,0,0,0,0v0a0,0,0,0,0,0,0l0,0a0,0,0,0,1,0,0v0a0,0,0,0,1,0,0s0,0,0,0v0a0,0,0,0,1,0,0s0,0,0,0v.13a0,0,0,0,0,0,0v0s0,0,0,0v0h0v0a0,0,0,0,1,0,0,0,0,0,0,0,0,0l0,0h0s0,0,0,0a.27.27,0,0,0,.07.08h0a.18.18,0,0,0,.07,0l0,0,.07,0h0l.08,0h0s0,0,0,0h.31l.08,0h0l.07,0a0,0,0,0,0,0,0l1.07-.75-.77,1.1h0l0,.07h0a.26.26,0,0,0,0,.08h0s0,0,0,.07v.14a.25.25,0,0,0,0,.07v0h0l0,.07s0,0,0,0h0l0,.07s0,0,0,0l0,.07h0l.08.06,0,0a0,0,0,0,1,0,0l0,0h.38l0,0h0l0,0h0l0,0h0l0,0a.34.34,0,0,0,.09-.08l0,0h0s0,0,0,0l.77-1.1-.35,1.31a0,0,0,0,1,0,0s0,0,0,.08h0a.38.38,0,0,0,0,.15v0s0,0,0,.06h0l.06.14h0l0,0h0l0,.05a.6.6,0,0,0,.86,0s0,0,0,0l0,0h0s0,0,0,0,0,0,0,0v0l0-.06s0,0,0,0a.06.06,0,0,0,0,0s0,0,0,0l.35-1.32.12,1.42s0,0,0,0,0,0,0,.06,0,0,0,0a.14.14,0,0,0,0,.07h0a.48.48,0,0,0,.12.16v0l0,0,0,0,.07,0,0,0,.08,0h0l.08,0h0a.55.55,0,0,0,.34-.11h0l0,0h0s0,0,0,0h0s0,0,0,0,0,0,0,0l0,0v0s0,0,0,0a0,0,0,0,0,0,0,.06.06,0,0,0,0,0s0,0,0,0,0,0,0,0v0s0,0,0,0v-.19l-.12-1.41.51,1.09.1.24a.35.35,0,0,1,0,.08.34.34,0,0,0,.08.09.59.59,0,0,0,.68.12.6.6,0,0,0,.29-.8L110.49,106l.28.14,11.3,5.26a.62.62,0,0,0,.18.14,0,0,0,0,1,0,0l2,1h.06a.51.51,0,0,0,.17,0l15.66,7.3h0a.29.29,0,0,0,.08.07h0l.09.06,2,.92A.65.65,0,0,0,143.25,120.63Zm-31.71-20.21h0l-.81,1.17,3-11.28a14.48,14.48,0,0,1,2,.64,11.94,11.94,0,0,1,1.82.92Zm5-1.49h0l-3.59,2.52h0l-1.2.84,3.36-4.8s0,0,0,0l3.44-4.91.31.23h0l.26.21h0l.12.1a13.78,13.78,0,0,1,1.67,1.66l.1.13.21.25,0,0,.23.31Zm-5.94-9a14.24,14.24,0,0,1,2,.14l-1.47,5.51h0l-1.52,5.68L109,95.44v0l-.47-5.32A13.62,13.62,0,0,1,110.59,90Zm7.48,11.81h0l-5.65,1.51,9.71-6.8.11.17.09.16h0a14.41,14.41,0,0,1,.72,1.48,15.09,15.09,0,0,1,.64,2ZM105.6,90.89a13,13,0,0,1,1.77-.56l1,11.07-2.48-5.32a0,0,0,0,0,0,0l-2-4.33A15,15,0,0,1,105.6,90.89Zm13,14.08h0l-5.85-.51,5.67-1.52h0l5.49-1.48a14.21,14.21,0,0,1,.14,2,14,14,0,0,1-.15,2Zm6.48,1.25a14.74,14.74,0,0,0-9.39-16.65,14.18,14.18,0,0,0-4.26-.87,15.08,15.08,0,0,0-6.44,1c-.34.14-.68.29-1,.45l-.49.25c-.1.06-.12.1-.19,0a1.77,1.77,0,0,1-.16-.34l-.2-.42a15.86,15.86,0,0,1,21.37,21.38l-.84-.39A14.79,14.79,0,0,0,125.06,106.22Zm-7.12,1.93h0l-5.32-2.48,11,1a15.13,15.13,0,0,1-.55,1.77,15.85,15.85,0,0,1-.85,1.76Zm9.38-3.21a17,17,0,0,0-.47-5.36A17.17,17.17,0,0,0,125,95a17.6,17.6,0,0,0-3.13-3.86A16.59,16.59,0,0,0,119,89.05c-.3-.18-.62-.35-.93-.51a17.61,17.61,0,0,0-14.4-.62q-.66.27-1.29.6l-7-14.87a34,34,0,0,1,44.89,44.95l-14.87-6.93a17.06,17.06,0,0,0,1.86-6.73Zm14.22,14.17c.18-.41.36-.83.53-1.25a.17.17,0,0,1,0,0l.22-.56a.54.54,0,0,0,0-.1c.07-.17.13-.34.2-.52a.69.69,0,0,1,.05-.13c.06-.16.11-.33.17-.49a.83.83,0,0,0,0-.15c.06-.15.11-.32.16-.47s0-.11,0-.17l.14-.47.06-.17c0-.15.09-.3.13-.45s0-.13,0-.19l.12-.45a1.05,1.05,0,0,1,.05-.19c0-.15.07-.29.11-.44s0-.14,0-.2.07-.29.1-.44,0-.15.05-.21.06-.29.09-.43,0-.15,0-.22,0-.29.08-.43,0-.14,0-.22,0-.28.08-.43l0-.22.06-.43,0-.22c0-.14,0-.28.05-.43l0-.23c0-.14,0-.28.05-.43l0-.22c0-.14,0-.28,0-.43l0-.23c0-.14,0-.28,0-.43s0-.15,0-.22,0-.29,0-.43v-.23c0-.14,0-.29,0-.43v-.22c0-.15,0-.29,0-.44v-.88c0-.15,0-.3,0-.45s0-.15,0-.21,0-.31,0-.46,0-.14,0-.21,0-.31,0-.47,0-.13,0-.19,0-.33,0-.49a1,1,0,0,0,0-.17c0-.17,0-.35-.05-.53s0-.08,0-.13-.05-.39-.07-.59v-.07c-.06-.45-.12-.89-.2-1.33a35.08,35.08,0,0,0-9.85-19.13l-.25-.24,0,0-.17-.17,0,0-.05,0-.06-.07-.2-.19-.17-.15a.24.24,0,0,0-.09-.08L133,78.5l-.12-.11-.14-.12h0l-.21-.18-.08-.08-.05,0-.24-.2L132,77.6l-.09-.08-.32-.26-.14-.12-.05,0-.48-.37a0,0,0,0,1,0,0,34.62,34.62,0,0,0-12.61-6.18l-.21-.06a3.18,3.18,0,0,1-.33-.09h0l-.42-.1-.16,0-1-.2-.29,0-.06,0-.22,0h-.07l-.67-.11-.23,0a1.2,1.2,0,0,0-.2,0l-.22,0-.22,0h-.12l-.55-.07-.18,0-.25,0h-.15a35.13,35.13,0,0,0-16.19,2.23h0l-.09,0-.45.18-.08,0-.25.11-.06,0h0l-.07,0-.54.23h0l-.38-.81a34.42,34.42,0,0,1,5.33-2,35.68,35.68,0,0,1,6.23-1.19,37.4,37.4,0,0,1,6.35-.08,35.83,35.83,0,0,1,12.3,3.18,35.68,35.68,0,0,1,5.54,3.16,36.11,36.11,0,0,1,12.17,14.54,36.07,36.07,0,0,1,3.09,18.64,36.43,36.43,0,0,1-1.18,6.23,35.52,35.52,0,0,1-2,5.33l-.82-.37Z" transform="translate(-1.85 0)"/><path class="cls-1" d="M45.91,115a6.48,6.48,0,0,0-3.45-8.48,6.5,6.5,0,0,0-7.62,2,6.47,6.47,0,0,0-11.6,4.83,6.47,6.47,0,0,0-3.49,12.35h0a6.51,6.51,0,0,0,3.75.37l9,16.45a.86.86,0,0,0,1.09.39l14.82-6a.88.88,0,0,0,.51-1.05l-5.09-18.13a6.4,6.4,0,0,0,2-2.62Zm-28,2.89a4.73,4.73,0,0,1,6.19-2.52.87.87,0,0,0,1.14-.46,1.31,1.31,0,0,0,0-.79,4.72,4.72,0,0,1,8.65-3.79.88.88,0,0,0,1.67.35,1.11,1.11,0,0,0,.07-.16,4.72,4.72,0,0,1,8.67.19,4.68,4.68,0,0,1,0,3.6.59.59,0,0,1,0,.08,4.72,4.72,0,0,1-6.19,2.51.88.88,0,0,0-1.14.47.87.87,0,0,0,.46,1.14,6.44,6.44,0,0,0,4.86.07l3.93,14-2.33.95-2.84-7a.87.87,0,1,0-1.62.66l2.84,7-2.25.92-4.87-12a.87.87,0,0,0-1.62.65l4.87,12-2.25.92-2.85-7a.87.87,0,1,0-1.62.66l2.85,7-2.33.94-7-12.78a6.42,6.42,0,0,0,3-3.25.88.88,0,0,0-.46-1.15h0a.88.88,0,0,0-1.15.47,4.72,4.72,0,1,1-8.69-3.67ZM33.65,141,33,139.86l13.64-5.55L47,135.6Z" transform="translate(-1.85 0)"/><path class="cls-1" d="M14.23,264.73,17,276.51a.9.9,0,0,0,.87.69H31.43a.93.93,0,0,0,.87-.64l3.54-12.45a3.15,3.15,0,0,0,.85-.1,3.25,3.25,0,0,0,2.21-2.19,2.39,2.39,0,0,0-.25-1.89,4.16,4.16,0,0,0-2.26-1.75c-.67-5.37-3.71-9.08-8.39-10.38a3,3,0,0,0-6,0A10.54,10.54,0,0,0,15.28,253a12.52,12.52,0,0,0-1.52,4.78,4.27,4.27,0,0,0-2.59,2.64,2.67,2.67,0,0,0,.42,2.67,5.89,5.89,0,0,0,2.64,1.69M25,246.68a1.22,1.22,0,1,1,0,2.44,1.2,1.2,0,0,1-1.2-1.22A1.22,1.22,0,0,1,25,246.68Zm-6.41,28.71L16.1,264.83a4,4,0,0,0,1.71-.67l2,11.23Zm3.07,0-2-11.08a3.76,3.76,0,0,0,2.07.67l1,10.41Zm4.21-10.93-.65,10.9h-.6l-1.09-10.9c-.05,0-.1.07-.18.1a4.24,4.24,0,0,0,1.37-1.22s.05,0,.05-.08v0s0,0,0,0A9.31,9.31,0,0,0,25.86,264.46Zm2,10.93H27l.58-9.79a4.34,4.34,0,0,0,1.32.33h.27a1.34,1.34,0,0,0,.35,0Zm3.53-10a4.7,4.7,0,0,0,1.6-1.76,3,3,0,0,1,.27-.43c.05-.05.1-.07.12-.12a5.9,5.9,0,0,0,.68.5l-3.34,11.85h-1l1.69-10m5.73-4.08a1.57,1.57,0,0,1-1,1,1.94,1.94,0,0,1-1.72-.7.69.69,0,0,0-.12-.1c-.8-.52-1.5-.39-2.32.43a4.25,4.25,0,0,0-.55.79A2.28,2.28,0,0,1,29,264.11a4.48,4.48,0,0,1-2.77-1.87,1.88,1.88,0,0,0-1.49-.8,1.91,1.91,0,0,0-1.52.85,2.14,2.14,0,0,1-1.34.87,2.28,2.28,0,0,1-1.7-.7,2,2,0,0,0-1.44-.79,2.2,2.2,0,0,0-1.74.79,2.43,2.43,0,0,1-1.65.63,3.35,3.35,0,0,1-2.46-1.27,1,1,0,0,1,0-.9,2.32,2.32,0,0,1,1.71-1.57.82.82,0,0,0,.55-.37l.2-.3a.76.76,0,0,0,.15-.45c0-.32.42-7,6.92-8.69a3,3,0,0,0,2.54,1.4,3,3,0,0,0,2.54-1.37c5.78,1.54,6.92,6.95,7.15,9.41a.89.89,0,0,0,.67.8,2.65,2.65,0,0,1,1.74,1.07.41.41,0,0,1,.1.42Z" transform="translate(-1.85 0)"/><path class="cls-1" d="M133.61,17.82a3.58,3.58,0,0,0-1.21.21,3.09,3.09,0,0,0-.77-2.86,4.21,4.21,0,0,0-3-1.05h-.08a6.1,6.1,0,0,0-2.13.73l-.06,0A4,4,0,0,0,123.16,13a3.78,3.78,0,0,0-2.72,1.17.34.34,0,0,1-.44,0A3.8,3.8,0,0,0,117.28,13a4,4,0,0,0-3.66,2.58,3.76,3.76,0,0,0-2.22-.73,4,4,0,0,0-3.72,2.75.43.43,0,0,1-.48.28,3.26,3.26,0,0,0-.7-.07,4.28,4.28,0,0,0-4,4.47,4.57,4.57,0,0,0,2.09,3.92c1.72,5.71,8.18,9.81,15.51,9.81s13.79-4.1,15.51-9.81a4.57,4.57,0,0,0,2.09-3.92A4.28,4.28,0,0,0,133.61,17.82Zm1,7.18-.32.15-.09.34c-1.4,5.21-7.33,9-14.11,9s-12.71-3.78-14.1-9l-.1-.34-.31-.16a3,3,0,0,1-1.54-2.7,2.75,2.75,0,0,1,2.49-2.93,2.71,2.71,0,0,1,.4,0l.13,0a.77.77,0,0,0,.27.14,1.28,1.28,0,0,1,1,1.19.77.77,0,0,0,1.54,0,2.61,2.61,0,0,0-1-2.08,1.83,1.83,0,0,0,.29-.51,2.52,2.52,0,0,1,2.28-1.75,2.27,2.27,0,0,1,1.17.34.74.74,0,0,0,.24.35,1.48,1.48,0,0,1,.5,1.59.77.77,0,0,0,.48,1,.77.77,0,0,0,1-.49,2.82,2.82,0,0,0-.2-2.33,1.38,1.38,0,0,0,.45-.61,2.53,2.53,0,0,1,2.26-1.69,2.24,2.24,0,0,1,1.44.54.68.68,0,0,0,.17.35s.8,1,.31,1.81a.77.77,0,0,0,.27,1.06.7.7,0,0,0,.39.11.75.75,0,0,0,.66-.38,2.8,2.8,0,0,0,.24-2.32,1.78,1.78,0,0,0,.78-.46,2.26,2.26,0,0,1,1.62-.71,2.4,2.4,0,0,1,2,1.12,1,1,0,0,0,.18.23.19.19,0,0,1,0,.07,1.49,1.49,0,0,1-.45,1.55.77.77,0,0,0,0,1.09.79.79,0,0,0,.57.25.77.77,0,0,0,.52-.21,3,3,0,0,0,1-2.31,1.59,1.59,0,0,0,.49-.24,4.38,4.38,0,0,1,1.38-.44,2.62,2.62,0,0,1,1.74.6,1.36,1.36,0,0,1,.37,1.25.7.7,0,0,0-.19.35s-.39,1.57-1.38,1.8a.78.78,0,0,0,.17,1.53l.18,0a3.24,3.24,0,0,0,2-1.57,1.39,1.39,0,0,0,1.06,0,2,2,0,0,1,.9-.21,2.75,2.75,0,0,1,2.49,2.93A3,3,0,0,1,134.57,25Z" transform="translate(-1.85 0)"/><path class="cls-1" d="M132.54,24.67c-14.92-6.28-24.33.09-24.73.37a.78.78,0,0,0-.19,1.08.76.76,0,0,0,.64.33.72.72,0,0,0,.44-.14c.09-.06,9.1-6.16,23.24-.21a.78.78,0,0,0,.6-1.43Z" transform="translate(-1.85 0)"/><path class="cls-1" d="M20.15,319.62l-1.49,1.11h0l0,0L2.23,333a.93.93,0,0,0,1.11,1.49l0,0a3.73,3.73,0,0,1,5.2.76l8.87,11.92a5.57,5.57,0,0,0,7.79,1.15l6-4.44A5.57,5.57,0,0,0,32.35,336l-11.09-14.9a1.85,1.85,0,0,1,2.6.38l3.88,5.21a.93.93,0,0,0,1.49-1.11l-3.88-5.21A3.71,3.71,0,0,0,20.15,319.62Zm3.31,9.11.74-.55,1.11,1.49-2.23,1.66a.93.93,0,0,0,1.11,1.49l2.23-1.66,1.11,1.49-.74.55a.93.93,0,1,0,1.1,1.49l.75-.55,1.11,1.49-2.24,1.66a.93.93,0,1,0,1.11,1.49l2.24-1.66a3.71,3.71,0,0,1-.77,5.19l-6,4.44a3.71,3.71,0,0,1-5.19-.77l-8.87-11.92a5.59,5.59,0,0,0-3.36-2.13l13-9.68s0,0,0,0l1.11,1.5-2.24,1.66a.93.93,0,0,0,1.11,1.49L22,325.2l1.11,1.49-.75.55a.93.93,0,0,0,1.11,1.49Z" transform="translate(-1.85 0)"/><path class="cls-1" d="M62.48,39.22A18.77,18.77,0,0,1,48.85,52.83l-1.29.33L47,57l-11.77-1.7.56-3.85-1.14-.67a18.81,18.81,0,0,1-9.24-16.91l37.06,5.34m.28-2-37-5.34a2,2,0,0,0-2.26,1.83,20.81,20.81,0,0,0,10.2,18.74L33.28,55A2,2,0,0,0,35,57.27L46.73,59A2,2,0,0,0,49,57.29l.37-2.54a20.83,20.83,0,0,0,15.08-15.1,2,2,0,0,0-1.65-2.39Z" transform="translate(-1.85 0)"/><path class="cls-1" d="M34.83,51.25l14.71,2.12-.29,2L34.54,53.21ZM55.2,36.17l-2-.28a12.88,12.88,0,1,0-25.49-3.68l-2-.28A14.86,14.86,0,1,1,55.2,36.17Z" transform="translate(-1.85 0)"/><path class="cls-1" d="M50.3,35.46l-2-.28a7.93,7.93,0,1,0-15.69-2.26l-2-.29A9.91,9.91,0,1,1,50.3,35.46Z" transform="translate(-1.85 0)"/><path class="cls-1" d="M45.67,36l-2-.28a3.42,3.42,0,1,0-6.76-1l-2-.28a5.4,5.4,0,0,1,10.72,1.28C45.7,35.77,45.69,35.86,45.67,36Zm17.2,1.32-2-.28a7.91,7.91,0,0,0-6.71-9A7.5,7.5,0,0,0,52.42,28l-.16-2a10.2,10.2,0,0,1,2.21.08A9.91,9.91,0,0,1,62.87,37.27Z" transform="translate(-1.85 0)"/><path class="cls-1" d="M58,36.57l-2-.29a3,3,0,0,0-2.52-3.36l.29-2A5,5,0,0,1,58,36.57Z" transform="translate(-1.85 0)"/><path class="cls-1" d="M33,217a16.62,16.62,0,0,1-15-9.52,7.09,7.09,0,1,1-1.93-14,6.52,6.52,0,0,1,.88-.07,5.86,5.86,0,0,1,.94.07,16.62,16.62,0,0,1,14.49-9.67c2.32-3.7,3.13-4.22,3.94-3.87A1.24,1.24,0,0,1,37,181.1c.74-1.32,1.27-2.22,2.14-2.07s1.25,1.2.84,6.23a16.82,16.82,0,0,1,8.14,8.14,7.42,7.42,0,0,1,.94-.06,7.09,7.09,0,1,1-.09,14.18,7,7,0,0,1-.92-.06A16.64,16.64,0,0,1,33,217ZM18.84,205.78l.24.57a15.16,15.16,0,0,0,27.85,0l.24-.57.6.14A5.61,5.61,0,0,0,50.3,195a5.72,5.72,0,0,0-2.47,0l-.61.14-.23-.55a15.25,15.25,0,0,0-8.15-8.14l-.49-.21.08-.54a34.56,34.56,0,0,0,.19-4.44l-.43.74c-.74,1.34-1.22,2.22-2.07,1.94s-.7-1.11-.65-1.94v-.09a27.86,27.86,0,0,0-2,3l-.22.35h-.39A15.15,15.15,0,0,0,19,194.56l-.23.57-.61-.13a5.61,5.61,0,1,0-2.41,11,5.67,5.67,0,0,0,2.46,0Z" transform="translate(-1.85 0)"/><path class="cls-1" d="M18.42,204.92a4.49,4.49,0,1,1,0-9v1.48a3,3,0,1,0,0,6h0Zm29.2,0v-1.48a3,3,0,0,0,0-6h0V196a4.49,4.49,0,0,1,0,9ZM29,205.44a2.7,2.7,0,1,1,2.7-2.74,2.69,2.69,0,0,1-2.7,2.74Zm0-3.91a1.21,1.21,0,1,0,1.22,1.21v0A1.22,1.22,0,0,0,29,201.52Zm8,3.91a2.7,2.7,0,1,1,2.7-2.74,2.69,2.69,0,0,1-2.7,2.74Zm0-3.91a1.21,1.21,0,1,0,1.21,1.21v0A1.2,1.2,0,0,0,37,201.52Z" transform="translate(-1.85 0)"/><path class="cls-1" d="M33.34,214.72h-.43l-.15-.08c-.45-.22-10.92-5.54-10.92-12.4,0-3.66,1.83-6.82,4.66-8.05a6.27,6.27,0,0,1,6.67,1.07,6.49,6.49,0,0,1,4.44-1.57c3.82.17,6.82,3.93,6.82,8.55,0,6.86-10.48,12.18-10.92,12.4ZM28.9,195.17a4.62,4.62,0,0,0-1.83.38c-2.29,1-3.77,3.62-3.77,6.66,0,5.37,8.14,10,9.81,10.93,1.65-.89,9.81-5.56,9.81-10.93,0-3.82-2.38-6.93-5.41-7.07a5.22,5.22,0,0,0-3.83,1.64l-.22.2h-.65l-.23-.2a5.34,5.34,0,0,0-3.66-1.61Z" transform="translate(-1.85 0)"/></svg>