<svg xmlns="http://www.w3.org/2000/svg" viewBox="0 0 386.13 409.66"><title>bgc</title><path d="M163.9,422a1.77,1.77,0,0,1-2.19-1.2l-13.63-47a1.77,1.77,0,0,1,.65-1.92A56.49,56.49,0,0,1,165.58,364a60,60,0,0,1,18.61-2.36,1.76,1.76,0,0,1,1.64,1.27l13.52,46.62a1.77,1.77,0,0,1-1.59,2.25A91.22,91.22,0,0,0,179.11,415a46.57,46.57,0,0,0-14.65,6.76,1.77,1.77,0,0,1-.56.28Zm-13.07-48.32,13.1,45.16a51,51,0,0,1,14.44-6.43,94.33,94.33,0,0,1,18.11-3.24l-13-44.91a57.35,57.35,0,0,0-17.13,2.28,54.9,54.9,0,0,0-15.5,7.15Z" transform="translate(-29.58 -18.98)"/><path d="M163.89,422c-2,.47-2.26-1.56-2.65-2.9l-1.61-5.54-5-17.2-4.83-16.66-1.41-4.86c-.09-.32-.2-.64-.28-1-.33-1.31.61-2,1.54-2.58a58.91,58.91,0,0,1,28.11-9.5q2.37-.18,4.75-.17c1.25,0,2.79-.17,3.28,1.29.08.24.14.48.21.72l1.31,4.51,4.77,16.46,5,17.35,1.65,5.7c.32,1.09,1.05,2.62.12,3.58-.61.63-1.6.54-2.41.61s-1.75.16-2.62.25q-3.6.4-7.17,1.08a66.24,66.24,0,0,0-16.51,5.15c-1.1.53-2.17,1.1-3.21,1.73q-.7.42-1.38.88a8.39,8.39,0,0,1-1.7,1.08s0,.07,0,.06h0a0,0,0,0,0,0-.06,2,2,0,0,0,.72-.32l.72-.51q.78-.54,1.6-1c1.1-.66,2.23-1.27,3.38-1.82a56.32,56.32,0,0,1,8.36-3.17A87.74,87.74,0,0,1,195,412q1.13-.11,2.26-.19a2.13,2.13,0,0,0,1.9-.89,2.07,2.07,0,0,0,.1-1.75l-1.14-3.93-4.76-16.43-5.23-18-1.72-5.94c-.25-.87-.43-2.28-1.19-2.87a1.9,1.9,0,0,0-1-.38c-.86-.07-1.75,0-2.62,0q-2.38,0-4.75.25A60.73,60.73,0,0,0,153,369.19c-1.24.69-2.45,1.43-3.62,2.23-.86.59-1.57,1.26-1.28,2.42.24,1,.56,1.92.83,2.88l4.45,15.36,5.37,18.52c1,3.37,1.91,6.75,2.93,10.11a1.84,1.84,0,0,0,2.26,1.33S163.93,422,163.89,422Z" transform="translate(-29.58 -18.98)"/><path d="M150.8,373.69l1.31,4.51L155.23,389,159,402l3.26,11.25,1.08,3.71.34,1.16a2.09,2.09,0,0,0,.18.61.28.28,0,0,1,0,.08,0,0,0,0,0,0,0c7.9-5.33,17.63-7.76,27-9.06,1.85-.26,3.72-.47,5.58-.61a0,0,0,0,0,0,0l-1.29-4.45L192.1,394l-3.76-13-3.25-11.2L184,366.08l-.34-1.16a2.31,2.31,0,0,0-.18-.61.29.29,0,0,1,0-.08,0,0,0,0,0,0,0,58,58,0,0,0-29,7.2q-1.11.61-2.18,1.28c-.15.1-1.44.8-1.39,1a0,0,0,0,0-.06,0h0a0,0,0,0,0,0,0,55.54,55.54,0,0,1,24.94-9.06q2.15-.25,4.31-.33,1.08,0,2.16,0a5,5,0,0,1,1.17,0,2.16,2.16,0,0,1,.19.67l1.17,4,4.31,14.87,4.75,16.38,1.72,5.92.54,1.88a4.11,4.11,0,0,1,.29,1c0,.2.11,0-.09.1a4.44,4.44,0,0,1-1,.08l-1.3.13q-3.16.34-6.29.88a75.69,75.69,0,0,0-15.88,4.39,46.06,46.06,0,0,0-6.32,3.14c-.19.11-1.57,1.07-1.61,1s-.06-.21-.07-.26l-1-3.32-4.1-14.15L154,384.4l-3-10.23-.14-.5A0,0,0,0,0,150.8,373.69Z" transform="translate(-29.58 -18.98)"/><path d="M199.18,411.77a1.77,1.77,0,0,1-2.19-1.2l-13.63-47a1.77,1.77,0,0,1,.65-1.92,56.49,56.49,0,0,1,16.84-7.93,60,60,0,0,1,18.61-2.36,1.76,1.76,0,0,1,1.64,1.27l13.52,46.62a1.76,1.76,0,0,1-1.59,2.25,91.23,91.23,0,0,0-18.65,3.22,46.57,46.57,0,0,0-14.65,6.76A1.76,1.76,0,0,1,199.18,411.77ZM186.1,363.45l13.1,45.16a51,51,0,0,1,14.44-6.43,94.33,94.33,0,0,1,18.11-3.24l-13-44.91a57.35,57.35,0,0,0-17.13,2.28,54.9,54.9,0,0,0-15.5,7.15Zm-26.8,18.74h0a1.33,1.33,0,0,1,.52-1.86,57.11,57.11,0,0,1,5.83-2.7,38.84,38.84,0,0,1,13.69-3,1.33,1.33,0,0,1,0,2.67c-7.55.08-15.45,3.9-18.31,5.43a1.33,1.33,0,0,1-1.77-.49Zm3,10.45h0a1.33,1.33,0,0,1,.52-1.86,57.09,57.09,0,0,1,5.83-2.7,38.84,38.84,0,0,1,13.69-3,1.33,1.33,0,0,1,0,2.67c-7.55.08-15.45,3.9-18.31,5.43a1.33,1.33,0,0,1-1.77-.49Zm2.8,9.66h0a1.33,1.33,0,0,1,.52-1.86,57.08,57.08,0,0,1,5.83-2.7,38.84,38.84,0,0,1,13.69-3,1.33,1.33,0,0,1,0,2.67c-7.55.08-15.45,3.9-18.31,5.43A1.33,1.33,0,0,1,165.13,402.31Z" transform="translate(-29.58 -18.98)"/><path d="M199.17,411.74c-2,.47-2.26-1.56-2.65-2.9l-1.61-5.54-5-17.2-4.83-16.66-1.41-4.86c-.09-.32-.2-.64-.28-1-.33-1.31.61-2,1.54-2.58a58.91,58.91,0,0,1,28.11-9.5q2.37-.18,4.75-.17c1.25,0,2.79-.17,3.28,1.29.08.24.14.48.21.72l1.31,4.51,4.77,16.46,5,17.35,1.65,5.7c.32,1.09,1.05,2.62.12,3.58-.61.63-1.6.54-2.41.61s-1.75.16-2.62.25q-3.6.4-7.17,1.08a66.24,66.24,0,0,0-16.51,5.15c-1.1.53-2.17,1.1-3.21,1.73q-.7.42-1.38.88a8.39,8.39,0,0,1-1.7,1.08s0,.07,0,.06a6.48,6.48,0,0,0,1.42-.89q.78-.54,1.6-1c1.1-.66,2.23-1.27,3.38-1.82a56.32,56.32,0,0,1,8.36-3.17,87.75,87.75,0,0,1,16.36-3.13q1.13-.11,2.26-.19a2.13,2.13,0,0,0,1.9-.89,2.07,2.07,0,0,0,.1-1.75L233.43,395l-4.76-16.43-5.23-18-1.72-5.94c-.25-.87-.43-2.28-1.19-2.87a1.9,1.9,0,0,0-1-.38c-.86-.07-1.75,0-2.62,0q-2.38,0-4.75.25A60.73,60.73,0,0,0,188.24,359c-1.24.69-2.45,1.43-3.62,2.23-.86.59-1.57,1.26-1.28,2.42.24,1,.56,1.92.83,2.88l4.45,15.36L194,400.37c1,3.37,1.91,6.75,2.93,10.11a1.84,1.84,0,0,0,2.26,1.33S199.21,411.73,199.17,411.74Z" transform="translate(-29.58 -18.98)"/><path d="M186.07,363.46l1.31,4.51,3.12,10.76,3.79,13.07L197.55,403l1.08,3.71.34,1.16a2.09,2.09,0,0,0,.18.61.28.28,0,0,1,0,.08,0,0,0,0,0,0,0c7.9-5.33,17.63-7.76,27-9.06,1.85-.26,3.72-.47,5.58-.61a0,0,0,0,0,0,0l-1.29-4.45-3.12-10.75-3.76-13-3.25-11.2-1.08-3.71L219,354.7a2.31,2.31,0,0,0-.18-.61.29.29,0,0,1,0-.08,0,0,0,0,0,0,0,58,58,0,0,0-29,7.2q-1.11.61-2.18,1.28c-.15.09-1.44.8-1.39,1a0,0,0,0,0-.06,0h0a0,0,0,0,0,0,0,55.54,55.54,0,0,1,24.94-9.06q2.15-.25,4.31-.33,1.08,0,2.16,0a5,5,0,0,1,1.17,0,2.16,2.16,0,0,1,.19.67l1.17,4,4.31,14.87L229.13,390l1.72,5.92.54,1.88a4.11,4.11,0,0,1,.29,1c0,.2.11,0-.09.1a4.44,4.44,0,0,1-1,.08l-1.3.13q-3.16.34-6.29.88a75.69,75.69,0,0,0-15.88,4.39,46.06,46.06,0,0,0-6.32,3.14c-.19.11-1.57,1.07-1.61,1s-.06-.21-.07-.26l-1-3.32-4.1-14.15-4.84-16.68-3-10.23-.14-.5A0,0,0,0,0,186.07,363.46Z" transform="translate(-29.58 -18.98)"/><path d="M159.33,382.18c-1-1.53,1.57-2.39,2.57-2.87q2.4-1.15,4.9-2.08a41,41,0,0,1,9.82-2.44c.71-.08,1.43-.13,2.15-.15a2.41,2.41,0,0,1,1.17.12,1.32,1.32,0,0,1,.67,1.56c-.35,1.1-1.6.9-2.5,1-.72,0-1.43.12-2.15.22a41,41,0,0,0-9.1,2.5q-1.86.73-3.67,1.59l-1.49.74-.55.29c-.5.24-1.61.31-1.81-.43a0,0,0,0,0-.06,0c.11.42.77.66,1.15.67a3,3,0,0,0,1.35-.52q1.77-.91,3.61-1.69a41.93,41.93,0,0,1,11.12-3.18c1-.12,1.92-.13,2.89-.2a1.39,1.39,0,0,0,1.22-.8,1.38,1.38,0,0,0-.26-1.51,2,2,0,0,0-1.67-.4A37.78,37.78,0,0,0,167.35,377a57.23,57.23,0,0,0-6,2.57c-1,.47-3,1.24-2,2.68C159.3,382.24,159.35,382.21,159.33,382.18Z" transform="translate(-29.58 -18.98)"/><path d="M162.36,392.63c-1-1.53,1.57-2.39,2.57-2.87q2.4-1.15,4.9-2.08a41,41,0,0,1,9.82-2.44c.71-.08,1.43-.13,2.15-.15a2.41,2.41,0,0,1,1.17.12,1.32,1.32,0,0,1,.67,1.56c-.35,1.1-1.6.9-2.5,1-.72,0-1.43.12-2.15.22a41,41,0,0,0-9.1,2.5q-1.86.73-3.67,1.59l-1.49.74-.55.29c-.5.24-1.61.31-1.81-.43a0,0,0,0,0-.06,0c.11.42.77.66,1.15.67a3,3,0,0,0,1.35-.52q1.77-.91,3.61-1.69a41.93,41.93,0,0,1,11.12-3.18c1-.12,1.92-.13,2.89-.2a1.39,1.39,0,0,0,1.22-.8,1.38,1.38,0,0,0-.26-1.51,2,2,0,0,0-1.67-.4,37.78,37.78,0,0,0-11.32,2.38,57.23,57.23,0,0,0-6,2.57c-1,.47-3,1.24-2,2.68C162.33,392.7,162.38,392.67,162.36,392.63Z" transform="translate(-29.58 -18.98)"/><path d="M165.16,402.29c-1-1.52,1.58-2.4,2.57-2.87q2.4-1.15,4.9-2.08a41,41,0,0,1,9.82-2.44c.71-.08,1.43-.13,2.15-.15a2.41,2.41,0,0,1,1.17.12,1.32,1.32,0,0,1,.67,1.56c-.35,1.1-1.6.9-2.5,1-.72,0-1.43.12-2.15.22a41,41,0,0,0-9.1,2.5q-1.86.73-3.67,1.59l-1.49.74c-.82.42-1.7.8-2.36-.15,0,0-.08,0-.05,0,.76,1.1,1.77.51,2.7,0q1.9-1,3.88-1.78a41,41,0,0,1,10.85-3c.94-.11,1.92,0,2.85-.19a1.36,1.36,0,0,0,.73-2.35,2.31,2.31,0,0,0-1.8-.34,38.15,38.15,0,0,0-11.24,2.41,57.21,57.21,0,0,0-6,2.57c-.94.46-2.87,1.24-2,2.65C165.13,402.36,165.18,402.33,165.16,402.29Z" transform="translate(-29.58 -18.98)"/><path d="M194.64,371.94h0a1.33,1.33,0,0,1,.52-1.86,57.11,57.11,0,0,1,5.83-2.7,38.84,38.84,0,0,1,13.69-3,1.33,1.33,0,0,1,0,2.67c-7.55.08-15.45,3.9-18.31,5.43a1.33,1.33,0,0,1-1.77-.49Zm3,10.45h0a1.33,1.33,0,0,1,.52-1.86,57.09,57.09,0,0,1,5.83-2.7,38.84,38.84,0,0,1,13.69-3,1.33,1.33,0,0,1,0,2.67c-7.55.08-15.45,3.9-18.31,5.43a1.33,1.33,0,0,1-1.77-.49Zm2.8,9.66h0a1.33,1.33,0,0,1,.52-1.86,57.07,57.07,0,0,1,5.83-2.7,38.84,38.84,0,0,1,13.69-3,1.33,1.33,0,0,1,0,2.67c-7.55.08-15.45,3.9-18.31,5.43A1.33,1.33,0,0,1,200.47,392.06Z" transform="translate(-29.58 -18.98)"/><path d="M194.67,371.93c-1-1.53,1.57-2.39,2.57-2.87q2.4-1.15,4.9-2.08a41,41,0,0,1,9.82-2.44c.71-.08,1.43-.13,2.15-.15a2.41,2.41,0,0,1,1.17.12,1.32,1.32,0,0,1,.67,1.56c-.35,1.1-1.6.9-2.5,1-.72,0-1.43.12-2.15.22a41,41,0,0,0-9.1,2.5q-1.86.73-3.67,1.59l-1.49.74-.55.29c-.51.24-1.6.31-1.81-.43a0,0,0,0,0-.06,0c.12.42.76.66,1.15.67a3,3,0,0,0,1.35-.52q1.77-.91,3.61-1.69a41.93,41.93,0,0,1,11.12-3.18c1-.12,1.92-.13,2.89-.2a1.39,1.39,0,0,0,1.22-.8,1.38,1.38,0,0,0-.26-1.51,2,2,0,0,0-1.67-.4,37.78,37.78,0,0,0-11.32,2.38,57.23,57.23,0,0,0-6,2.57c-1,.47-3,1.24-2,2.68C194.64,372,194.69,372,194.67,371.93Z" transform="translate(-29.58 -18.98)"/><path d="M197.7,382.38c-1-1.53,1.57-2.39,2.57-2.87q2.4-1.15,4.9-2.08A41,41,0,0,1,215,375c.71-.08,1.43-.13,2.15-.15a2.41,2.41,0,0,1,1.17.12,1.32,1.32,0,0,1,.67,1.56c-.35,1.1-1.6.9-2.5,1-.72,0-1.43.12-2.15.22a41,41,0,0,0-9.1,2.5q-1.86.73-3.67,1.59l-1.49.74-.55.29c-.51.24-1.6.31-1.81-.43a0,0,0,0,0-.06,0c.12.42.76.66,1.15.67a3,3,0,0,0,1.35-.52q1.77-.91,3.61-1.69a41.93,41.93,0,0,1,11.12-3.18c1-.12,1.92-.13,2.89-.2a1.39,1.39,0,0,0,1.22-.8,1.38,1.38,0,0,0-.26-1.51,2,2,0,0,0-1.67-.4,37.78,37.78,0,0,0-11.32,2.38,57.24,57.24,0,0,0-6,2.57c-1,.47-3,1.24-2,2.68C197.67,382.45,197.72,382.42,197.7,382.38Z" transform="translate(-29.58 -18.98)"/><path d="M200.5,392c-1-1.52,1.58-2.4,2.57-2.87q2.4-1.15,4.9-2.08a41,41,0,0,1,9.82-2.44c.71-.08,1.43-.13,2.15-.15a2.41,2.41,0,0,1,1.17.12,1.32,1.32,0,0,1,.67,1.56c-.35,1.1-1.6.9-2.5,1-.72,0-1.43.12-2.15.22a41,41,0,0,0-9.1,2.5q-1.86.73-3.67,1.59l-1.49.74c-.82.42-1.7.8-2.36-.15,0,0-.08,0-.05,0,.76,1.1,1.77.51,2.7,0q1.9-1,3.88-1.78a41,41,0,0,1,10.85-3c.94-.11,1.92,0,2.85-.19a1.36,1.36,0,0,0,.73-2.35,2.31,2.31,0,0,0-1.8-.34,38.15,38.15,0,0,0-11.24,2.41,57.21,57.21,0,0,0-6,2.57c-.94.46-2.87,1.24-2,2.65C200.47,392.11,200.52,392.08,200.5,392Z" transform="translate(-29.58 -18.98)"/><path d="M408.55,394.68c6-16.76-.27-34.4-14-39.33s-29.79,4.71-35.8,21.47c-5.42,15.12-.85,31,10.18,37.53L366.54,421a1.42,1.42,0,0,0,.85,1.83l1,.36a6.17,6.17,0,0,1-7.24,2.13,1.44,1.44,0,0,0-1.85.78,1.43,1.43,0,0,0,.76,1.87l.31.12a9.09,9.09,0,0,0,10.79-3.91l1.57.56a1.42,1.42,0,0,0,1.82-.87l2.4-6.7c12.66,1.86,26.19-7.45,31.6-22.52Zm-36.19,26.91-1.27-.46-.16-.06-1.24-.44,1.79-5q.62.27,1.27.5t1.4.45Zm4.77-7.26a1.4,1.4,0,0,0-.53-.34l-5.34-1.92a1.4,1.4,0,0,0-.66-.07c-10-5.8-14.16-20.32-9.17-34.23,5.48-15.28,19.91-24.13,32.16-19.73s17.77,20.4,12.29,35.68c-5,13.88-17.34,22.45-28.75,20.61Z" transform="translate(-29.58 -18.98)"/><path d="M408.58,394.68c2.9-8.15,3.21-17.37-.1-25.45-2.88-7-8.59-12.72-16.07-14.56-7.3-1.8-14.94.41-20.92,4.75a37.34,37.34,0,0,0-13.9,21.12c-2.12,8.43-1.42,17.83,3.06,25.4a25.33,25.33,0,0,0,3.6,4.74,23.15,23.15,0,0,0,2.21,2q.49.39,1,.75l.61.42a3.48,3.48,0,0,1,.7.44c.14.16.11,0,.06.23a4,4,0,0,1-.21.57l-.64,1.78-1.32,3.67a3,3,0,0,0-.26,1,1.49,1.49,0,0,0,1,1.4c.19.08.75.15.87.31s-1,1.09-1.19,1.23a5.86,5.86,0,0,1-2.8,1.22,6.44,6.44,0,0,1-2.22-.08c-.43-.09-.84-.3-1.26-.36a1.47,1.47,0,0,0-1,2.72,7.71,7.71,0,0,0,4,.68,8.89,8.89,0,0,0,4.72-1.68,10.08,10.08,0,0,0,2.07-2.06c.08-.1.35-.61.46-.65s.24.09.29.1l.95.34a1.6,1.6,0,0,0,2.27-1.05l1.25-3.48.7-1.94c.07-.18.18-.86.35-1a4,4,0,0,1,.84.11q.74.08,1.48.11a22.93,22.93,0,0,0,2.82-.06,24.86,24.86,0,0,0,5.44-1.09c7.88-2.5,14.32-8.53,18.32-15.66a39.85,39.85,0,0,0,2.71-6,0,0,0,0,0,0,0h0s-.05,0,0,.06-1.73,4-1.93,4.4a38.21,38.21,0,0,1-2.16,3.74,36,36,0,0,1-5.41,6.47,29.63,29.63,0,0,1-13.67,7.5,23.38,23.38,0,0,1-8.42.35,0,0,0,0,0,0,0l-1.79,5a16.4,16.4,0,0,1-.68,1.87c-.69,1.37-2.26.51-3.29.14a0,0,0,0,0,0,0,9.28,9.28,0,0,1-9.2,4.28,6.68,6.68,0,0,1-1.86-.51,1.4,1.4,0,0,1,1-2.61,8.13,8.13,0,0,0,2.62.44,6.32,6.32,0,0,0,4.73-2.56,0,0,0,0,0,0-.05,6.16,6.16,0,0,1-1.28-.5,1.44,1.44,0,0,1-.51-1.74c.23-.69.49-1.37.73-2l1.63-4.54a0,0,0,0,0,0,0c-7.72-4.64-11.77-13.44-12.36-22.2a38.52,38.52,0,0,1,8.75-26.84c5.2-6.25,12.79-10.92,21.07-11.18a22.08,22.08,0,0,1,11.34,2.73,23.74,23.74,0,0,1,8.66,8.46c4.7,7.71,5.39,17.39,3.15,26-.3,1.14-.65,2.26-1,3.37C408.5,394.71,408.56,394.72,408.58,394.68Z" transform="translate(-29.58 -18.98)"/><path d="M372.37,421.56l-1.27-.46-.67-.24a4.23,4.23,0,0,1-.72-.24,4.78,4.78,0,0,1,.33-.9l.65-1.81.62-1.73c0-.1.08-.37.16-.45s0-.07,0-.08a7.44,7.44,0,0,1,.7.32l.88.32a4.21,4.21,0,0,1,.93.28c.22.22,0-.08.08.08s-.06.16-.07.2l-.55,1.53-1.14,3.19s0,.05.06,0l1.79-5a0,0,0,0,0,0,0,23.76,23.76,0,0,1-2.67-.95,0,0,0,0,0,0,0l-1.79,5a0,0,0,0,0,0,0l2.67,1S372.41,421.57,372.37,421.56Z" transform="translate(-29.58 -18.98)"/><path d="M377.15,414.31a4.18,4.18,0,0,0-1.49-.69l-2.69-1c-.56-.2-1.12-.43-1.69-.61a3.3,3.3,0,0,0-.46-.09,2.71,2.71,0,0,1-1-.5,19.58,19.58,0,0,1-1.83-1.35,24.54,24.54,0,0,1-8-14.3,35.12,35.12,0,0,1,11.79-32.91A24.91,24.91,0,0,1,385.85,357,19.44,19.44,0,0,1,400,362c8.78,7.94,9.58,21.6,5.68,32.13-3.84,10.35-13.12,20-24.74,20.45a20,20,0,0,1-3.84-.23,0,0,0,0,0,0,.06h0s.05,0,0-.06a10.6,10.6,0,0,0,3.68.3,21.1,21.1,0,0,0,3.7-.44,24.55,24.55,0,0,0,7.38-2.9,32.13,32.13,0,0,0,11.81-12.58,35.86,35.86,0,0,0,4.3-18.19,27.67,27.67,0,0,0-5.26-15.65,19.85,19.85,0,0,0-12.69-7.72,22.35,22.35,0,0,0-14.42,3,31.88,31.88,0,0,0-11.67,12,35.94,35.94,0,0,0-4.69,18.44,27.71,27.71,0,0,0,5.41,16.28,21.23,21.23,0,0,0,2.7,2.89q.71.62,1.47,1.18a7.53,7.53,0,0,0,1.71,1.12c.26.09.61.06.89.15l1,.36,2.77,1a5.4,5.4,0,0,1,1.85.81S377.18,414.34,377.15,414.31Z" transform="translate(-29.58 -18.98)"/><path d="M38.51,263l2.38.64c-.38.71-.75,1.43-1.14,2.19l-1.27,2.48A1.2,1.2,0,0,0,39,270a1.27,1.27,0,0,0,1.69-.56L42,267c.47-.88.9-1.75,1.37-2.63,6.74,1.68,11.3,2.05,18.4-.89a24.77,24.77,0,0,0,13.71-13.89,1.59,1.59,0,0,0-.78-1.78,24.61,24.61,0,0,0-19,.47l-.52.23c-7,3.24-9.79,6.84-13.11,12.94l-2.86-.77-2.68-.74a1.3,1.3,0,0,0-.86.06,1.23,1.23,0,0,0,.14,2.33ZM67.26,252.1c-.61-1.4-.34-2.94.58-3.39a21.57,21.57,0,0,1,4.81,1A22.4,22.4,0,0,1,70.17,254C69.19,254.34,67.87,253.5,67.26,252.1Zm-11-1.38a23,23,0,0,1,8.61-2.11,5.81,5.81,0,0,0,.11,4.51,5.69,5.69,0,0,0,3.24,3.13,22.84,22.84,0,0,1-7.39,4.91c-6.24,2.58-10.06,2.41-16.23.9C47.64,256.5,50.1,253.57,56.23,250.73Z" transform="translate(-29.58 -18.98)"/><path d="M38.5,263.06l1.73.47c.38.1.56.11.42.52a7.59,7.59,0,0,1-.51,1l-.81,1.57c-.41.79-1.43,2.07-.84,3a1.3,1.3,0,0,0,1.64.44A2,2,0,0,0,41,269L43,265c.19-.37.28-.59.74-.54a7.9,7.9,0,0,1,.85.2c.61.14,1.22.27,1.83.39,1,.19,2,.35,3,.46a22.4,22.4,0,0,0,6.08-.17A27.63,27.63,0,0,0,67.67,260a24.4,24.4,0,0,0,7.39-9.42c.35-.81.71-1.49.23-2.32s-1.68-.95-2.44-1.18a24,24,0,0,0-7.07-1,26.19,26.19,0,0,0-20.49,10.09,42.09,42.09,0,0,0-3,4.76c-.18.32-.26.42-.65.36a8.07,8.07,0,0,1-.86-.23l-1.61-.44-1.49-.41a8.29,8.29,0,0,0-1.39-.36A1.31,1.31,0,0,0,34.88,261c-.17,1.34,1.4,1.5,2.32,1.75l1.3.35a0,0,0,0,0,0-.06l-2-.55c-.22-.06-.45-.1-.67-.18a1.22,1.22,0,0,1,.72-2.33c.71.14,1.41.39,2.11.58l3.42.93h0c2.11-3.87,4.53-7.51,8.16-10.11a27.32,27.32,0,0,1,14.43-5.16,23.94,23.94,0,0,1,8.55,1.13c.76.25,1.77.45,2.1,1.26s-.2,1.75-.56,2.53a23.6,23.6,0,0,1-1.72,3.07,25.53,25.53,0,0,1-12,9.54,25.16,25.16,0,0,1-8.93,1.91,35.11,35.11,0,0,1-8.78-1.29h0q-.93,1.77-1.84,3.54c-.43.84-.92,2.45-2.14,2.21-1.81-.36-.55-2.26-.08-3.17.55-1.07,1.1-2.15,1.66-3.21a0,0,0,0,0,0,0L38.52,263A0,0,0,0,0,38.5,263.06Z" transform="translate(-29.58 -18.98)"/><path d="M67.29,252.1A3.63,3.63,0,0,1,67,250a2.11,2.11,0,0,1,.32-.79,1,1,0,0,1,1.08-.38,21.72,21.72,0,0,1,2.42.44l1,.27c.46.14.78.17.53.7s-.6,1.19-.95,1.77a10.42,10.42,0,0,1-1.17,1.77c-.44.47-1.21.21-1.68-.09a3.69,3.69,0,0,1-1.31-1.58s-.07,0-.05,0c.46,1,1.48,2.17,2.7,1.94.28-.05.29-.11.47-.35q.42-.59.81-1.2a22.64,22.64,0,0,0,1.47-2.75,0,0,0,0,0,0,0,22.06,22.06,0,0,0-2.94-.76c-.55-.1-1.58-.45-2.07-.15-1.06.64-.8,2.38-.42,3.31C67.24,252.15,67.31,252.13,67.29,252.1Z" transform="translate(-29.58 -18.98)"/><path d="M56.24,250.75a23.38,23.38,0,0,1,7-2c.27,0,1.38-.28,1.5,0,0,.11-.16.52-.19.66a5.66,5.66,0,0,0-.1.61,6,6,0,0,0,.43,3,6.11,6.11,0,0,0,1.42,2.08,5.55,5.55,0,0,0,.86.67c.2.12.91.35.87.6s-.51.48-.62.58l-.56.49q-.68.58-1.41,1.1a24.48,24.48,0,0,1-14.7,4.54,26.65,26.65,0,0,1-3.07-.39l-1.44-.29c-.27-.06-1.49-.17-1.53-.5,0-.12.3-.54.36-.65l.32-.55q.33-.56.67-1.12c.43-.69.88-1.36,1.36-2a22.48,22.48,0,0,1,8.84-6.84s0-.07,0-.05a23.82,23.82,0,0,0-7,4.65A29.84,29.84,0,0,0,44.55,262a0,0,0,0,0,0,0c4,1,8,1.52,12,.52a25,25,0,0,0,11.61-6.34,0,0,0,0,0,0-.05,5.94,5.94,0,0,1-3.33-7.6,0,0,0,0,0,0,0,23.62,23.62,0,0,0-8.63,2.12S56.21,250.77,56.24,250.75Z" transform="translate(-29.58 -18.98)"/><path d="M139.15,298.82a5.75,5.75,0,0,1-1.44-1.68,6,6,0,0,1-.37-5.18,7.3,7.3,0,0,1,.63-1.16.71.71,0,0,0,.14-.22,8.06,8.06,0,0,0,1.29-3s0-.07,0-.09l-.82-7.06-.62-6a.58.58,0,0,0-.08-.27,7.11,7.11,0,0,0-1.43-2.17,4,4,0,0,0-.49-.47c-.21-.21-.44-.43-.66-.69a5.77,5.77,0,0,1-1.13-6.31,5.67,5.67,0,0,1,5.29-3.59,5.74,5.74,0,0,1,3.24.87,5.82,5.82,0,0,1,6.27-1.33,5.89,5.89,0,0,1,3.46,3.57,5.8,5.8,0,0,1-.51,4.93,4.84,4.84,0,0,1-.37.57,7.88,7.88,0,0,0-.5.84,7.43,7.43,0,0,0-1,3.67l.33,2.87.81,7a7.15,7.15,0,0,0,1.54,3.75,15.46,15.46,0,0,0,1.34,1.44,5.89,5.89,0,0,1-6.07,9.8,5.3,5.3,0,0,1-1.1-.54A5.86,5.86,0,0,1,142,300,5.74,5.74,0,0,1,139.15,298.82Zm2.24-34.35a2.77,2.77,0,0,0-1.83-.62,2.94,2.94,0,0,0-2.1,5l.5.52.63.62a10.46,10.46,0,0,1,2,3,4.17,4.17,0,0,1,.26,1l.69,6,.82,7.06a3.18,3.18,0,0,1,0,.93,10.58,10.58,0,0,1-1.7,4.08c-.06.08-.1.17-.16.25-.16.25-.29.47-.39.65a2.93,2.93,0,0,0,.17,2.61,3,3,0,0,0,2.2,1.45,3,3,0,0,0,2.95-1.47.29.29,0,0,0,.08-.15l0,0,1-1.62,1.45,1.52a2.8,2.8,0,0,0,1.15.74,3,3,0,0,0,3.08-4.93,16.54,16.54,0,0,1-1.64-1.75,9.93,9.93,0,0,1-2.17-5.2l-.81-7-.33-2.83a1.62,1.62,0,0,1,0-.34,10.19,10.19,0,0,1,1.32-5.16c.19-.35.41-.67.6-1s.24-.35.35-.55a2.82,2.82,0,0,0,.25-2.45,2.89,2.89,0,0,0-1.73-1.78,2.93,2.93,0,0,0-3.42,1,1.58,1.58,0,0,0-.22.33.71.71,0,0,0-.14.22l-1,1.48-1.39-1.39A.85.85,0,0,1,141.39,264.48Z" transform="translate(-29.58 -18.98)"/><path d="M139.17,298.8a6,6,0,0,1-1.72-7c.62-1.38,2-2.75,2-4.36,0-.82-.19-1.66-.29-2.47l-.42-3.6c-.19-1.64-.35-3.28-.53-4.92a9.62,9.62,0,0,0-.3-2.3c-.75-2-2.79-3-3.66-4.94a5.85,5.85,0,0,1,8.44-7.36h0a5.86,5.86,0,0,1,10,4.75,9.44,9.44,0,0,1-1.6,3.64,7.87,7.87,0,0,0-1,3,15.49,15.49,0,0,0,.25,3.52l.68,5.89a13.15,13.15,0,0,0,.56,3.05,7.64,7.64,0,0,0,1.48,2.41,13.2,13.2,0,0,1,2.24,2.69,5.87,5.87,0,0,1-8.35,7.57h0a5.88,5.88,0,0,1-7.74.46s-.06,0,0,.05a5.92,5.92,0,0,0,6.55.5c.33-.19,1-.93,1.39-.86a4.13,4.13,0,0,1,.65.33,5.89,5.89,0,0,0,1,.32,5.93,5.93,0,0,0,5.79-9.67,15.44,15.44,0,0,1-2.52-3,7.69,7.69,0,0,1-.76-2.64c-.15-1.22-.28-2.44-.43-3.66l-.37-3.16c-.11-1-.29-1.93-.34-2.89a7.49,7.49,0,0,1,1.23-4.15,7.84,7.84,0,0,0,1.41-3.34,5.94,5.94,0,0,0-8.72-5.82,5.86,5.86,0,0,0-.71.46c-.15.12-.34.36-.52.43s-.62-.16-.86-.27a5.79,5.79,0,0,0-1-.33,6.26,6.26,0,0,0-3.12.11,5.78,5.78,0,0,0-3.84,3.75,6,6,0,0,0,1.55,6.24,9,9,0,0,1,2.31,3,5.44,5.44,0,0,1,.18,1.23l.44,4.23c.22,2.06.47,4.11.71,6.16.06.49.13,1,.17,1.48a4.38,4.38,0,0,1-.59,2.13,18.24,18.24,0,0,0-1.63,3.16,6.11,6.11,0,0,0,.09,3.49,6,6,0,0,0,1.93,2.78S139.2,298.83,139.17,298.8Z" transform="translate(-29.58 -18.98)"/><path d="M141.41,264.45a3,3,0,0,0-4.5,1,2.87,2.87,0,0,0,0,2.64c.61,1.14,1.77,1.92,2.53,3a6.67,6.67,0,0,1,1.38,3c.06.45.1.9.16,1.35l.47,4,.7,6.05c.05.46.11.93.16,1.39a5.64,5.64,0,0,1-.34,2.39,26,26,0,0,1-1.87,3.57,2.92,2.92,0,0,0,.22,2.87,3,3,0,0,0,4.68.4,7.6,7.6,0,0,0,.85-1.3c.18-.29.38-.57.53-.87s.07-.21.24,0c.94,1.06,1.94,2.28,3.48,2.26a3,3,0,0,0,2.91-3.6c-.23-1.14-1.14-1.77-1.87-2.58a11,11,0,0,1-2.21-3.5,16.57,16.57,0,0,1-.75-3.95l-.75-6.47c-.07-.58-.15-1.16-.2-1.75a9.19,9.19,0,0,1,.44-3.56,10.52,10.52,0,0,1,.85-2c.35-.63.84-1.2,1.14-1.87a3,3,0,0,0-.17-2.65,3,3,0,0,0-4.73-.59,11.84,11.84,0,0,0-1.14,1.63c-.08.12-.3.61-.45.65s0,0-.08-.07a3.41,3.41,0,0,1-.34-.34l-.73-.73c-.22-.22-.37-.25-.64-.47,0,0-.08,0,0,0s.33.19.48.31a6.12,6.12,0,0,1,.46.46l.86.86a0,0,0,0,0,0,0c.68-1,1.34-2.41,2.48-2.93a2.93,2.93,0,0,1,3.5,4.49,11.32,11.32,0,0,0-2,6.12,25.64,25.64,0,0,0,.32,3.17l.64,5.53c.1.83.16,1.68.32,2.5a10.83,10.83,0,0,0,2.88,5.34,8,8,0,0,1,1.34,1.5,2.94,2.94,0,0,1-2.56,4.34c-1.62,0-2.59-1.36-3.6-2.42a0,0,0,0,0,0,0,8.5,8.5,0,0,1-2,2.79,2.93,2.93,0,0,1-4.15-3.86c1-1.71,2.29-3.54,2.1-5.62-.07-.72-.17-1.43-.25-2.15-.42-3.63-.78-7.27-1.27-10.88a6.74,6.74,0,0,0-1.39-3,35.27,35.27,0,0,1-2.49-2.87,3,3,0,0,1,.64-3.59,3,3,0,0,1,3.73-.08S141.44,264.48,141.41,264.45Z" transform="translate(-29.58 -18.98)"/><path d="M404,162.09l11.13-15a2.64,2.64,0,0,0-1.71-4.18,12.26,12.26,0,0,1-5.56-2.38,36.19,36.19,0,0,1-6.26-6.68,40.48,40.48,0,0,0-7.25-7.63,17.44,17.44,0,0,0-7.9-3.36,2.64,2.64,0,0,0-2.52,1l-11.13,15a2.64,2.64,0,0,0,1.72,4.18,12.26,12.26,0,0,1,5.56,2.38,36,36,0,0,1,6.26,6.68,40.61,40.61,0,0,0,7.25,7.63,17.44,17.44,0,0,0,7.9,3.36A2.64,2.64,0,0,0,404,162.09ZM375,140.47l11.13-15c12.56,1.94,14.41,18.1,27,20l-11.13,15C389.37,158.57,387.52,142.41,375,140.47Z" transform="translate(-29.58 -18.98)"/><path d="M404.07,162.1l9.66-13c.48-.64,1-1.27,1.43-1.92a2.71,2.71,0,0,0-1.08-4.11,22.63,22.63,0,0,0-2.23-.54,12,12,0,0,1-2.29-1,16.69,16.69,0,0,1-3.76-2.91c-2.26-2.25-4.11-4.87-6.15-7.31a28.19,28.19,0,0,0-6.69-6.13,17.45,17.45,0,0,0-3.91-1.79c-1.16-.36-2.68-.9-3.89-.46a4.28,4.28,0,0,0-1.84,1.75L381,127.81l-6.14,8.26-1.86,2.5a2.82,2.82,0,0,0-.27,3.43c.8,1.15,2.17,1.11,3.4,1.47a13,13,0,0,1,4.25,2.26,41,41,0,0,1,6.39,7,39.53,39.53,0,0,0,6.44,6.78,18,18,0,0,0,7.84,3.56,2.88,2.88,0,0,0,3-1s0-.08,0,0c-1.19,1.48-3,1-4.55.58a17.26,17.26,0,0,1-4-1.71,26.84,26.84,0,0,1-6.76-6c-3.6-4.23-6.86-9.82-12.5-11.51-.67-.2-1.38-.25-2-.46a2.63,2.63,0,0,1-1.7-1.78,2.69,2.69,0,0,1,.47-2.33c.45-.62.91-1.22,1.36-1.84l5.63-7.57c1.34-1.8,2.66-3.62,4-5.41a2.71,2.71,0,0,1,2.37-1.14,14,14,0,0,1,4.48,1.27,22.16,22.16,0,0,1,7.19,5.39c2,2.17,3.75,4.56,5.65,6.83a20.26,20.26,0,0,0,6.46,5.54,12,12,0,0,0,1.74.67,13.84,13.84,0,0,1,2.42.62,2.64,2.64,0,0,1,1,3.74c-.31.49-.69.94-1,1.41l-9.94,13.38-.25.34S404,162.13,404.07,162.1Z" transform="translate(-29.58 -18.98)"/><path d="M375,140.49l10.15-13.66.78-1c0-.06.11-.19.17-.23s.7.1.9.14a15.24,15.24,0,0,1,5.93,2.78c3.45,2.6,5.89,6.25,8.63,9.53s5.77,6.11,9.88,7.22c.14,0,1.59.27,1.6.3s-.1.13-.11.14a6,6,0,0,1-.66.88L409.71,150l-6.3,8.48-1,1.35c-.12.16-.31.56-.48.65s-.69-.11-.89-.15a14.51,14.51,0,0,1-1.69-.48,14.88,14.88,0,0,1-2.94-1.41c-7.2-4.47-10.12-13.88-18.24-17.12a15,15,0,0,0-3.19-.87s-.06.05,0,.06c4.71.75,8.25,3.75,11.25,7.28,2.84,3.35,5.32,7.13,8.87,9.81a15.34,15.34,0,0,0,6.85,3h0l9.75-13.13,1.38-1.86a0,0,0,0,0,0,0c-4.71-.75-8.25-3.75-11.25-7.28-2.84-3.35-5.32-7.13-8.87-9.8a15.34,15.34,0,0,0-6.85-3h0l-9.77,13.14-1.37,1.84S375,140.52,375,140.49Z" transform="translate(-29.58 -18.98)"/><path d="M396.13,147.44a3.53,3.53,0,0,0,.53-1.39,3.78,3.78,0,0,0-.05-1.31,4.67,4.67,0,0,0-.49-1.26q-.36-.64-.77-1.24,1-1.2,2-2.45a1.49,1.49,0,0,1,.58.85,3,3,0,0,1,0,.86c0,.29-.05.55-.06.79a.71.71,0,0,0,.25.59.88.88,0,0,0,.67.22,1.05,1.05,0,0,0,.71-.41,1.71,1.71,0,0,0,.43-1.09,3.14,3.14,0,0,0-.21-1.21,4.14,4.14,0,0,0-.64-1.11,4.64,4.64,0,0,0-.79-.8l.2-.29a.5.5,0,0,0,.08-.37.46.46,0,0,0-.23-.33.51.51,0,0,0-.69.15l-.18.29a6.07,6.07,0,0,0-1.44-.63,4.46,4.46,0,0,0-1.45-.19,2.79,2.79,0,0,0-1.24.32,2.43,2.43,0,0,0-.92.93,3,3,0,0,0-.36,2.28,6.61,6.61,0,0,0,1.22,2.59c-.78.9-1.55,1.8-2.25,2.7a2.07,2.07,0,0,1-.61-.79,1.37,1.37,0,0,1-.09-.68,2.19,2.19,0,0,1,.19-.61,4,4,0,0,0,.23-.56,1.22,1.22,0,0,0,.06-.54.9.9,0,0,0-.35-.54.85.85,0,0,0-.69-.23,1.15,1.15,0,0,0-.69.44,2.7,2.7,0,0,0-.5,1,3.25,3.25,0,0,0-.13,1.22,3.3,3.3,0,0,0,.42,1.34,4,4,0,0,0,1.18,1.29c-.19.26-.37.52-.54.78a.51.51,0,0,0,.17.7.51.51,0,0,0,.4.07.45.45,0,0,0,.29-.21q.23-.39.48-.77a7.19,7.19,0,0,0,1.62.72,4.6,4.6,0,0,0,1.5.2,2.59,2.59,0,0,0,1.21-.34A2.53,2.53,0,0,0,396.13,147.44Zm-2-7.17a1.28,1.28,0,0,1,.24-1,1,1,0,0,1,.38-.32,1.33,1.33,0,0,1,.54-.13,1.76,1.76,0,0,1,.63.09,2.51,2.51,0,0,1,.67.33q-.88,1.18-1.83,2.3A3.13,3.13,0,0,1,394.17,140.27Zm-1.71,6.54a2.79,2.79,0,0,1-.64-.32q1-1.3,2.06-2.54l.35.56a2.94,2.94,0,0,1,.28.61,1.7,1.7,0,0,1,.07.65,1.34,1.34,0,0,1-.26.65,1.22,1.22,0,0,1-.53.43,1.6,1.6,0,0,1-.63.11A2.13,2.13,0,0,1,392.47,146.81Zm-6.77-4.3h0a23.69,23.69,0,0,0-2.37-2.05,19.29,19.29,0,0,0-2.5-1.58l-1.35-.71h0a.66.66,0,0,0-.67,1.13l.14.08,1.27.67a17.91,17.91,0,0,1,2.32,1.47,20.93,20.93,0,0,1,2.26,2h0l.06.06a.66.66,0,0,0,.84-1Zm19.59,2a21.9,21.9,0,0,1-2.21-1.91.67.67,0,1,0-1,.92h0a24,24,0,0,0,2.37,2.05,19.39,19.39,0,0,0,2.5,1.58l1.36.71h0a.67.67,0,0,0,.75-1.1.72.72,0,0,0-.18-.09l-1.32-.69A17.84,17.84,0,0,1,405.29,144.51Z" transform="translate(-29.58 -18.98)"/><path d="M396.16,147.46a3.71,3.71,0,0,0,.42-2.94,5.79,5.79,0,0,0-.65-1.41,3.39,3.39,0,0,1-.44-.71c-.08-.36.39-.73.59-1l.63-.75c.16-.2.42-.65.67-.69.73-.11.58,1.52.55,1.94,0,.63.14,1.29.94,1.22s1.16-1,1.16-1.63a3.81,3.81,0,0,0-1.13-2.55c-.07-.08-.49-.38-.5-.47s.16-.2.18-.26a.56.56,0,0,0,0-.65.55.55,0,0,0-.65-.12c-.16.09-.06.07-.2.18s.43-.13-.09.15c-.19.1-.39-.06-.55-.14-1.68-.81-3.91-.9-4.78,1.06a3.53,3.53,0,0,0,0,2.58,6.6,6.6,0,0,0,.61,1.3c.2.33.43.51.22.9a5.78,5.78,0,0,1-.69.81l-.6.72c-.15.18-.38.61-.58.72s-.53-.25-.65-.48a1.8,1.8,0,0,1,.13-1.56c.26-.64.34-1.32-.41-1.65s-1.18.29-1.46.82a3.28,3.28,0,0,0-.1,2.74,3.63,3.63,0,0,0,.73,1.12c.21.22.57.35.49.71s-.36.43-.43.68a.55.55,0,0,0,1,.5c.22-.23.23-.69.64-.65.22,0,.5.26.72.35a5.54,5.54,0,0,0,1.81.46,2.65,2.65,0,0,0,2.53-1.27s0-.07-.05,0c-1.21,1.89-3.53,1.27-5.17.33a0,0,0,0,0,0,0l-.24.38q-.15.46-.52-.07-.63-.13-.27-.46l.28-.39a0,0,0,0,0,0,0,3.72,3.72,0,0,1-1.58-2.61,3.2,3.2,0,0,1,.16-1.3,2.63,2.63,0,0,1,.36-.71.89.89,0,0,1,.89-.47.58.58,0,0,1,.69.26l.21.56a2.11,2.11,0,0,1-.29.91,2.12,2.12,0,0,0-.2.8,1.83,1.83,0,0,0,.72,1.32,0,0,0,0,0,0,0c.73-.92,1.49-1.81,2.25-2.7a0,0,0,0,0,0,0c-1-1.37-1.81-3.23-.86-4.83,1.09-1.83,3.48-1.31,5-.41a0,0,0,0,0,0,0c.23-.37,1.08-.1.92.3a1.34,1.34,0,0,1-.16.22,0,0,0,0,0,0,0,4.49,4.49,0,0,1,1.43,1.89c.3.81.36,2.08-.55,2.53a.8.8,0,0,1-1.24-.63,2.22,2.22,0,0,1,0-.38,5.24,5.24,0,0,0,0-1.05,1.65,1.65,0,0,0-.62-1.09,0,0,0,0,0,0,0q-1,1.24-2,2.45a0,0,0,0,0,0,0c1.08,1.62,1.86,3.32.78,5.17A0,0,0,0,0,396.16,147.46Z" transform="translate(-29.58 -18.98)"/><path d="M394.2,140.26a1.24,1.24,0,0,1,1.59-1.4c.15,0,.58.13.66.27.18.29-.32.7-.47.89a6.76,6.76,0,0,1-.93,1.14.24.24,0,0,1-.35.16q-.11-.16-.21-.33a2.77,2.77,0,0,1-.29-.74s-.07,0-.06,0a3.47,3.47,0,0,0,.63,1.25,0,0,0,0,0,0,0q1-1.13,1.84-2.3a0,0,0,0,0,0,0,1.94,1.94,0,0,0-1.88-.29,1.29,1.29,0,0,0-.63,1.38S394.21,140.3,394.2,140.26Z" transform="translate(-29.58 -18.98)"/><path d="M392.47,146.78c-.54-.22-.61-.29-.23-.79l.54-.68.41-.51c.1-.12.41-.64.56-.67.58-.12.84,1.45.75,1.78a1.46,1.46,0,0,1-2,.87s-.05,0,0,.06a1.57,1.57,0,0,0,1.94-.5c.53-.83,0-1.7-.48-2.41a0,0,0,0,0,0,0q-1.07,1.25-2.07,2.55a0,0,0,0,0,0,0,3.7,3.7,0,0,0,.65.33S392.51,146.8,392.47,146.78Z" transform="translate(-29.58 -18.98)"/><path d="M385.73,142.51c0-.15-.46-.45-.58-.56q-.49-.46-1-.88a19.84,19.84,0,0,0-2.11-1.53c-.82-.51-1.68-.94-2.53-1.4a0,0,0,0,0,0,0s-.29-.07-.28-.07a.69.69,0,0,0-.42.16.7.7,0,0,0-.25.56c0,.53.61.71,1,.91a21.77,21.77,0,0,1,5.26,3.78,0,0,0,0,0,0,0c-.08.11.34.19.38.19a.68.68,0,0,0,.5-.16.71.71,0,0,0,0-1s-.07,0,0,0q.19,1.51-.86.91a0,0,0,0,0,0,0c.11-.15-1.83-1.67-2-1.82a18.17,18.17,0,0,0-2-1.35c-.37-.21-.75-.4-1.12-.6-.18-.09-.37-.18-.54-.28l-.09,0a.83.83,0,0,1-.38-.43q.12-1,.88-.73a0,0,0,0,0,0,0l2,1.11a19.21,19.21,0,0,1,2.24,1.53q.48.38.95.79c.19.16.94.68,1,.91C385.67,142.56,385.73,142.55,385.73,142.51Z" transform="translate(-29.58 -18.98)"/><path d="M405.3,144.48a21.67,21.67,0,0,1-1.79-1.52c-.27-.25-.53-.65-.94-.66a.71.71,0,0,0-.67.43.73.73,0,0,0,0,.35,1.85,1.85,0,0,0,.24.42,0,0,0,0,0,0,0,22.45,22.45,0,0,0,4,3.13c.73.44,1.49.82,2.25,1.22a0,0,0,0,0,0,0c-.06.08.49.09.56.07a.7.7,0,0,0,.43-.45.72.72,0,0,0-.46-.88,26.9,26.9,0,0,1-3.6-2.14s-.06,0,0,.05a19.71,19.71,0,0,0,2.49,1.56l.81.43a2.11,2.11,0,0,1,.3.16c.33.25.81,1.75-.5,1.16a0,0,0,0,0,0,0l-2-1.11a19.45,19.45,0,0,1-2.16-1.46q-.53-.41-1-.86a7.71,7.71,0,0,1-1-.89,0,0,0,0,0,0,0q.13-1.65.91-.87l.32.31.66.61q.59.52,1.23,1S405.33,144.51,405.3,144.48Z" transform="translate(-29.58 -18.98)"/><path d="M320.94,148.75l-8-17.26c-.12-.26-.27-.62-.53-.73L291,121.69a1.36,1.36,0,0,0-1,.14l-16.5,6.74a1.26,1.26,0,0,0-.71,1.55L285,166c.11.32.44.33.75.46h0c.31.13.54.38.85.23l33.81-16.35a1.15,1.15,0,0,0,.55-1.57ZM286.6,136.3l-1.27,23-9.15-27.44,10.42,4.42ZM305,130.18l.8,11.69L289.48,135l8.09-7.92Zm-.37,13.77L287.49,162.3l1.4-25,15.72,6.67Zm2.32,1,10,4.22-25.59,12.49,15.63-16.71Zm10.76,2-9.45-4-.79-11.69,3.62,1.54Zm-27.13-22.87,4.64,2-8.1,7.91L277,129.64l13.59-5.58Z" transform="translate(-29.58 -18.98)"/><path d="M321,148.73l-6.54-14.06-1.28-2.75c-.21-.46-.38-1-.86-1.24-1.82-.86-3.72-1.58-5.57-2.37l-15.37-6.53a1.75,1.75,0,0,0-1.46.1l-2.6,1.06-9,3.67-3.6,1.47A3.78,3.78,0,0,0,273,129a1.67,1.67,0,0,0,0,1.66l.66,2,5.67,16.81,5.17,15.32a11.91,11.91,0,0,0,.41,1.2c.19.41.58.43,1,.61s.47.23.79.11c1.31-.54,2.58-1.25,3.86-1.87l16.92-8.18,12.67-6.13.27-.13a1.33,1.33,0,0,0,.48-.4,1.19,1.19,0,0,0,.2-.48s0-.77-.12-.7,0-.07,0,0h0a0,0,0,0,0,0,0c.42,1.07-.36,1.45-1.1,1.8l-1.93.93-6.79,3.29-17.35,8.39L287.9,166a11.06,11.06,0,0,1-1.25.6A2.19,2.19,0,0,1,285,166a1.63,1.63,0,0,1-.07-.22c-.55-1.4-1-2.87-1.45-4.29l-2.74-8.1-6-17.78-1.68-5c-.26-.76-.37-1.54.55-2,.57-.28,1.2-.49,1.79-.73,4.87-2,9.73-4,14.61-6a1.76,1.76,0,0,1,1.7.11l2.67,1.13,8.57,3.64,7.73,3.28a12.77,12.77,0,0,1,1.63.69c.45.27.69,1,.92,1.5l7.06,15.17.62,1.33S321,148.77,321,148.73Z" transform="translate(-29.58 -18.98)"/><path d="M286.56,136.3l-.7,12.69-.44,8-.11,2.06c0,.33.06.29,0,0L281,146.24l-4.59-13.75c-.06-.17-.12-.33-.17-.5s-.1-.06,0,0a4.81,4.81,0,0,1,.85.36l1.64.7,7.36,3.12a2.9,2.9,0,0,0,.35.15s.22,0,.18,0-.07,0,0,.05h0s.07,0,0-.05l-9.12-3.87-1.3-.55s-.06,0,0,0l3.1,9.3,4.92,14.75,1.13,3.39a0,0,0,0,0,.06,0l.43-7.77.68-12.39.16-2.86S286.57,136.26,286.56,136.3Z" transform="translate(-29.58 -18.98)"/><path d="M304.95,130.18l.72,10.57.06.84c0,.11,0,.28.06.25-.14.06-.79-.34-.93-.39l-5.11-2.17-6.33-2.69c-1.25-.53-2.59-1-3.8-1.61-.12-.06-.1,0-.1,0s.32-.31.39-.38l1.82-1.78,4.73-4.63.75-.73c.09-.08.25-.33.37-.36a2.23,2.23,0,0,0,.27.11l1,.43,5.68,2.41.42.18s.07,0,0-.05L297.59,127h0l-7.08,6.93-1,1a0,0,0,0,0,0,0L303.73,141l2,.86s0,0,0,0l-.7-10.24-.1-1.45S304.95,130.14,304.95,130.18Z" transform="translate(-29.58 -18.98)"/><path d="M304.58,143.93l-9.15,9.81-5.9,6.32-1.71,1.83c-.09.1-.21.3-.34.36s0,.06,0-.11c.09-.63.07-1.3.11-1.93l.2-3.6.53-9.48.45-8a10.35,10.35,0,0,1,.1-1.78c0-.14-.09-.06.06,0a5,5,0,0,1,.76.32l14.5,6.16.36.15s.07,0,0-.05l-13.78-5.85-1.94-.82a0,0,0,0,0,0,0l-.47,8.46-.75,13.48-.17,3.08a0,0,0,0,0,.05,0l5.8-6.21,9.19-9.86,2.12-2.28S304.61,143.9,304.58,143.93Z" transform="translate(-29.58 -18.98)"/><path d="M306.91,145l5.89,2.5,3.37,1.43c.09,0,.65.19.68.29,0-.07,0,0-.16,0a14.81,14.81,0,0,0-1.48.72l-2.64,1.29-7.49,3.65L292,161.25a4.43,4.43,0,0,0-.58.28l-.13.06c-.07,0,0,0,0,.06a9.32,9.32,0,0,1,.85-.91l4.81-5.15,9.77-10.45c.06-.06.21-.18.15-.2s.07,0,0-.05h0l-5.26,5.62-8.44,9-1.94,2.07a0,0,0,0,0,0,0l8.65-4.22,13.78-6.73,3.15-1.54a0,0,0,0,0,0-.05l-8.69-3.69-1.26-.54S306.87,144.94,306.91,145Z" transform="translate(-29.58 -18.98)"/><path d="M317.7,146.9l-8.38-3.56c-.25-.11-.89-.24-1.07-.45a5.74,5.74,0,0,1,0-.81l-.35-5.2-.34-5c0-.19,0-.38,0-.56s-.07-.08,0-.08a3.25,3.25,0,0,1,.87.37l1.43.61a4.56,4.56,0,0,1,1.26.56,4.1,4.1,0,0,1,.43.92l2.07,4.43,4.1,8.76s.07,0,.05,0l-3.26-7-2.25-4.81-.78-1.67a2.86,2.86,0,0,0-.33-.71,1.14,1.14,0,0,0-.35-.16l-1.25-.53-2-.86s0,0,0,0l.7,10.24.1,1.45a0,0,0,0,0,0,0l9.45,4S317.74,146.91,317.7,146.9Z" transform="translate(-29.58 -18.98)"/><path d="M290.54,124.09l4.24,1.8c.07,0,.4.2.39.12s-.21.2-.24.23l-1.38,1.34-4.17,4.07-1.65,1.61c-.12.12-.59.64-.64.64-.26,0-.85-.36-1.08-.46l-2.25-1-5.25-2.23c-.48-.21-1-.4-1.46-.62-.12-.06-.09,0-.08,0s.25-.1.32-.13l3.91-1.6,9.33-3.83s0,0,0-.06h0s-.07,0,0,.05,0-.07-.08,0l-.28.12-1,.4L286,125.91l-7.32,3-1.69.69s0,0,0,.06l8.86,3.76,1.28.54h0l7.09-6.93,1-1a0,0,0,0,0,0,0l-4.64-2S290.5,124.07,290.54,124.09Z" transform="translate(-29.58 -18.98)"/><path d="M293.73,340.73a25.88,25.88,0,0,0,5.19-13.6s0-.06,0-.09a26,26,0,0,0-7.78-20.64l0,0a26,26,0,0,0-28.58-5.12,1.27,1.27,0,0,0-.3.14A26,26,0,0,0,247.1,323V323a25.8,25.8,0,0,0,3.46,15.07l.08.14a26.2,26.2,0,0,0,1.81,2.67,25.84,25.84,0,0,0,16.87,9.83,26.48,26.48,0,0,0,3.76.27,25.76,25.76,0,0,0,15.83-5.44,26,26,0,0,0,4.25-4.13A1.29,1.29,0,0,0,293.73,340.73Zm-14.82-38.37a23.31,23.31,0,0,1,10.2,5.65c.59,1.92-1.24,6.4-6.66,12.19q-.51-.55-1-1.14A17.46,17.46,0,0,1,278.91,302.36Zm3.61,21.44a19.93,19.93,0,0,0,12.76,4.61l.9,0a23.28,23.28,0,0,1-4.44,10.7c-2.88-.19-8.41-3.43-14.73-10.43A70.61,70.61,0,0,0,282.52,323.8Zm13.9,2A17.38,17.38,0,0,1,284.32,322c4-4.22,6.44-8.15,7.2-11.27v0A23.35,23.35,0,0,1,296.42,325.8ZM273,301.59a23.64,23.64,0,0,1,3.4.25,20,20,0,0,0,3.09,18.78q.57.73,1.2,1.41a68.17,68.17,0,0,1-5.32,4.67q-.91-1.08-1.78-2.2c-7.07-9.15-10.11-17.45-9.56-21.1A23.16,23.16,0,0,1,273,301.59Zm-14.28,4.9a23.5,23.5,0,0,1,2.68-1.79c.16,5.24,4,13.35,10.16,21.37q.86,1.11,1.76,2.19-1.8,1.33-3.69,2.54-.54-.86-1.16-1.67a20.1,20.1,0,0,0-18.59-7.6A23.47,23.47,0,0,1,258.68,306.49Zm-9.08,17.69a17.52,17.52,0,0,1,16.8,6.53q.54.7,1,1.44c-7.38,4.32-12.7,5.33-14.78,4.41A23.22,23.22,0,0,1,249.6,324.18Zm5,15.27c3.53,0,8.45-1.75,14-5a17.55,17.55,0,0,1,.12,13.62A23.27,23.27,0,0,1,254.56,339.45Zm32.77,4.1a23.21,23.21,0,0,1-16,4.84,20.13,20.13,0,0,0-.54-15.31q2.13-1.36,4.15-2.86c5.37,6,10.75,10,14.85,11.12A23.41,23.41,0,0,1,287.33,343.55Z" transform="translate(-29.58 -18.98)"/><path d="M293.75,340.74a26.13,26.13,0,1,0-2.43,2.77q.74-.73,1.42-1.53a4.68,4.68,0,0,0,1-1.25s0-.05-.06,0a4.19,4.19,0,0,1-.85,1.06l-.58.66q-.74.81-1.54,1.56a26.41,26.41,0,0,1-3.23,2.56,25.91,25.91,0,0,1-7.2,3.39,26,26,0,1,1,15.46-12.43,26.61,26.61,0,0,1-2.07,3.18S293.73,340.78,293.75,340.74Z" transform="translate(-29.58 -18.98)"/><path d="M278.9,302.39a23.6,23.6,0,0,1,8.78,4.42c.44.35,1.27.86,1.45,1.4a2.62,2.62,0,0,1,0,1,8.45,8.45,0,0,1-.74,2.58,28,28,0,0,1-4.71,7,8.65,8.65,0,0,1-.95,1.06c-.42.34-.53.1-.85-.28a17.43,17.43,0,0,1-3.42-6.57,17.63,17.63,0,0,1,.46-10.59s0-.05-.06,0a17.7,17.7,0,0,0,3.55,17.87,0,0,0,0,0,0,0c2.48-2.66,5-5.68,6.29-9.14a5.82,5.82,0,0,0,.46-2.69c-.09-.69-.83-1.09-1.33-1.5a23.34,23.34,0,0,0-2.44-1.75,23.72,23.72,0,0,0-6.53-2.81A0,0,0,0,0,278.9,302.39Z" transform="translate(-29.58 -18.98)"/><path d="M282.5,323.82a20,20,0,0,0,11.74,4.59q.69,0,1.38,0c.27,0,.45,0,.49.26a2.71,2.71,0,0,1-.13.74,23.22,23.22,0,0,1-3.06,7.87q-.36.59-.76,1.16c-.24.35-.36.61-.8.55a9.58,9.58,0,0,1-2.61-.85,29.88,29.88,0,0,1-7.08-4.91q-1.21-1.07-2.35-2.22-.57-.57-1.13-1.16l-.57-.61c-.26-.28-.56-.47-.29-.82a8.4,8.4,0,0,1,1.31-1.07L280,326.2q1.31-1.16,2.56-2.38s0-.07,0,0a72.76,72.76,0,0,1-5.5,4.85,0,0,0,0,0,0,0,44.05,44.05,0,0,0,10.08,8.67,14.06,14.06,0,0,0,3.63,1.6,2.41,2.41,0,0,0,1.08.16c.16-.06.4-.54.5-.69l.47-.71q.52-.8,1-1.65a23.67,23.67,0,0,0,2.5-7.65,0,0,0,0,0,0,0,20.21,20.21,0,0,1-13.65-4.58S282.46,323.8,282.5,323.82Z" transform="translate(-29.58 -18.98)"/><path d="M296.42,325.77a17.63,17.63,0,0,1-8.41-1.56,17.28,17.28,0,0,1-1.81-1c-.37-.23-1.84-1-1.68-1.45.09-.26.63-.69.82-.9l.77-.89q.66-.77,1.28-1.58a25.23,25.23,0,0,0,3.7-6.21q.14-.35.25-.71c0-.13.08-.54.18-.62s1.06,1.29,1.23,1.56a23.36,23.36,0,0,1,2,3.91,23.62,23.62,0,0,1,1.64,9.43,0,0,0,0,0,.06,0,23.63,23.63,0,0,0-4.9-15.14,0,0,0,0,0-.05,0c-1.08,4.32-4.23,8.08-7.2,11.26a0,0,0,0,0,0,0,17.69,17.69,0,0,0,12.12,3.85S296.46,325.77,296.42,325.77Z" transform="translate(-29.58 -18.98)"/><path d="M273,301.62c.65,0,1.3,0,1.95.08a4.81,4.81,0,0,1,1,.1l.19.11q.32.05.13.3a2.07,2.07,0,0,1-.15.48,20.05,20.05,0,0,0,3.37,17.94c.24.31,1,1,1,1.38s-.4.52-.58.7l-.76.71q-1.44,1.32-3,2.56c-.21.17-.53.55-.81.52s-.5-.44-.67-.65q-.71-.88-1.4-1.77a67.37,67.37,0,0,1-4.22-6.2,38.79,38.79,0,0,1-4.67-10.54,14.83,14.83,0,0,1-.39-2.25c0-.29,0-.59,0-.88,0-.48,0-.72.47-1a16.23,16.23,0,0,1,4-1.18,23.7,23.7,0,0,1,4.55-.45,0,0,0,0,0,0-.06,23.52,23.52,0,0,0-8.54,1.63c-.42.17-.4.08-.48.41a3.74,3.74,0,0,0,0,.94,12.05,12.05,0,0,0,.23,2c.83,4.29,3,8.38,5.26,12.06a70.46,70.46,0,0,0,5.91,8.16,0,0,0,0,0,0,0,70.32,70.32,0,0,0,5.32-4.67,0,0,0,0,0,0,0,20.23,20.23,0,0,1-4.28-20.16,0,0,0,0,0,0,0,25.47,25.47,0,0,0-3.41-.25A0,0,0,0,0,273,301.62Z" transform="translate(-29.58 -18.98)"/><path d="M258.7,306.52c.55-.42,1.11-.82,1.7-1.2.17-.11.68-.53.86-.49s.11.48.12.65a17.63,17.63,0,0,0,.42,2.44,32.26,32.26,0,0,0,2.14,6,64.78,64.78,0,0,0,8.95,13.93c.34.41.22.53-.19.82l-.77.55a15.19,15.19,0,0,1-2,1.32c-.41.2-.48.05-.72-.3s-.43-.62-.65-.92q-.51-.68-1.08-1.31a20.16,20.16,0,0,0-15.17-6.66q-.87,0-1.73.09c-.21,0-.58.16-.71-.06s.16-.9.19-1.06a23.64,23.64,0,0,1,8.6-13.79s0-.07,0,0a23.75,23.75,0,0,0-8.84,15.07s0,0,0,0a20.27,20.27,0,0,1,19.72,9.25,0,0,0,0,0,0,0q1.88-1.21,3.69-2.54a0,0,0,0,0,0,0,72,72,0,0,1-7.06-10,41.84,41.84,0,0,1-4.08-9.14,18,18,0,0,1-.77-4.37,0,0,0,0,0,0,0,25.25,25.25,0,0,0-2.68,1.79S258.67,306.55,258.7,306.52Z" transform="translate(-29.58 -18.98)"/><path d="M249.61,324.21a17.64,17.64,0,0,1,17.41,7.4c.13.2.34.4.16.63a2.41,2.41,0,0,1-.64.36l-1.34.73c-.8.42-1.61.82-2.43,1.2a31.74,31.74,0,0,1-4.45,1.67,15.5,15.5,0,0,1-3.35.62c-.65,0-1.81.13-2.31-.36a5,5,0,0,1-.76-1.39q-.38-.79-.69-1.6a23.15,23.15,0,0,1-.92-2.91,23.7,23.7,0,0,1-.64-6.4s-.06,0-.06,0a23.69,23.69,0,0,0,.78,6.94,23.36,23.36,0,0,0,1.16,3.3q.35.8.77,1.58c.14.26.21.51.46.65a5.5,5.5,0,0,0,3,.17,21,21,0,0,0,4.63-1.23,45.6,45.6,0,0,0,7-3.41,0,0,0,0,0,0,0,17.73,17.73,0,0,0-17.84-8S249.57,324.22,249.61,324.21Z" transform="translate(-29.58 -18.98)"/><path d="M254.56,339.48a20.42,20.42,0,0,0,7-1.56,43,43,0,0,0,4.12-1.85q1.06-.54,2.09-1.12c.11-.06.52-.38.64-.37.35,0,.31.27.42.47a7.23,7.23,0,0,1,.46,1.35,17.6,17.6,0,0,1,.06,9.77q-.15.53-.33,1c-.18.52-.25.82-.86.69s-1.4-.33-2.08-.54a23.24,23.24,0,0,1-4.1-1.71,23.6,23.6,0,0,1-7.39-6.23s-.07,0,0,0a23.64,23.64,0,0,0,14.18,8.61,0,0,0,0,0,0,0,17.79,17.79,0,0,0-.13-13.64,0,0,0,0,0,0,0,46.93,46.93,0,0,1-7.79,3.73,19.4,19.4,0,0,1-6.24,1.29A0,0,0,0,0,254.56,339.48Z" transform="translate(-29.58 -18.98)"/><path d="M287.32,343.53a23.15,23.15,0,0,1-13.86,4.89q-.68,0-1.36,0c-.22,0-.57.06-.63-.21s.2-.57.25-.73a20.2,20.2,0,0,0,.16-11.61q-.2-.68-.44-1.35c-.11-.3-.55-1.07-.45-1.37s.92-.71,1.25-.94l1.48-1c.33-.23,1-.94,1.39-.74.2.1.44.48.58.64l.58.62q1.13,1.19,2.31,2.32a47.36,47.36,0,0,0,4.35,3.69,26.59,26.59,0,0,0,4.67,2.85c.3.14.59.27.9.38a5.42,5.42,0,0,1,1.05.37c.11.08.1,0,.11.11s-.28.33-.34.38l-.57.53c-.47.42-.95.83-1.45,1.21,0,0,0,.07,0,0a25,25,0,0,0,2.48-2.22,0,0,0,0,0,0-.05,21.7,21.7,0,0,1-6.93-3.73,55.11,55.11,0,0,1-7.9-7.38h0q-2,1.5-4.15,2.86a0,0,0,0,0,0,0,20.33,20.33,0,0,1,.53,15.29,0,0,0,0,0,0,0,23.61,23.61,0,0,0,16-4.84S287.35,343.5,287.32,343.53Z" transform="translate(-29.58 -18.98)"/><path d="M335.66,60a1.4,1.4,0,0,1-1.29-.86L320,25.19a1.4,1.4,0,0,1,2.58-1.09h0v0l14.32,33.92a1.4,1.4,0,0,1-.74,1.83,1.39,1.39,0,0,1-.54.11h0Z" transform="translate(-29.58 -18.98)"/><path d="M335.66,60c-1-.06-1.26-.83-1.58-1.58l-1-2.46-3.5-8.29-7.92-18.75c-.52-1.22-1.14-2.45-1.56-3.71a1.37,1.37,0,0,1,2.55-1c.06.12.11.25.16.37l.88,2.08,7.56,17.92,3.81,9c.62,1.47,1.31,2.93,1.87,4.43a1.39,1.39,0,0,1-1.23,2,0,0,0,0,0,0,0h0a0,0,0,0,0,.06,0c0,.09.43,0,.53-.08a1.43,1.43,0,0,0,.61-.5,1.45,1.45,0,0,0,.2-1.22,3.58,3.58,0,0,0-.15-.38c-.27-.66-.55-1.31-.83-2l-3.48-8.24-8.34-19.76-1.17-2.78a9.8,9.8,0,0,0-.49-1.12A1.43,1.43,0,0,0,320,25.27c.2.52.43,1,.65,1.53L328.36,45l4,9.52c.65,1.53,1.23,3.11,1.95,4.61a1.5,1.5,0,0,0,1.33.91S335.7,60,335.66,60Z" transform="translate(-29.58 -18.98)"/><path d="M331,48.5a1.4,1.4,0,0,1-1.32-1.87A9.7,9.7,0,0,1,336.25,41a12,12,0,0,1,3.2-.41,27.06,27.06,0,0,1,6,.89,22.9,22.9,0,0,0,4.82.76,5.93,5.93,0,0,0,4.4-1.74l.09-.09V23.63l-.51.27a17.28,17.28,0,0,1-5,1.78,11,11,0,0,1-2.19.23,16,16,0,0,1-6-1.44,17.78,17.78,0,0,0-6.89-1.58l-.7,0c-3,.14-5.68,1.5-7.81,2.59a9.82,9.82,0,0,1-4,1.45,1.4,1.4,0,0,1,0-2.8A10,10,0,0,0,324.41,23c2.26-1.15,5.34-2.73,9-2.89l.86,0a20.3,20.3,0,0,1,7.87,1.77A13.43,13.43,0,0,0,347,23.1a8.07,8.07,0,0,0,1.63-.17c4.55-.93,6-2.88,6.2-3.11v0a1.32,1.32,0,0,1,1.2-.73,1.51,1.51,0,0,1,.34,0,1.43,1.43,0,0,1,1.07,1.39c0,1.29,0,20.52,0,20.52a2.33,2.33,0,0,1-.32.87A8.79,8.79,0,0,1,350.24,45a24.54,24.54,0,0,1-5.41-.82,24.32,24.32,0,0,0-5.36-.83,9.28,9.28,0,0,0-2.48.32,6.94,6.94,0,0,0-4.62,3.89A1.4,1.4,0,0,1,331,48.5Z" transform="translate(-29.58 -18.98)"/><path d="M331,48.47a1.43,1.43,0,0,1-1.15-2.16,8.67,8.67,0,0,1,.72-1.28,9.82,9.82,0,0,1,4.16-3.5,14.32,14.32,0,0,1,8.7-.48c2.46.49,5,1.41,7.59,1.15a5.92,5.92,0,0,0,2.74-1c.37-.25.92-.56,1-1a12.14,12.14,0,0,0,0-1.86V23.63a0,0,0,0,0,0,0,17.11,17.11,0,0,1-7.59,2.26c-2.83,0-5.31-1.25-7.93-2.14a14.51,14.51,0,0,0-7.72-.61c-2.61.56-4.87,1.92-7.26,3-1.07.5-3.45,1.51-3.88-.31a1.39,1.39,0,0,1,1.33-1.68,3.6,3.6,0,0,0,.91-.27c2.38-1,4.54-2.37,7-3.11a16.54,16.54,0,0,1,8.77-.15c2.48.63,4.78,2,7.31,2.39a11.42,11.42,0,0,0,6.94-1.43,6.85,6.85,0,0,0,2.23-1.76,1.83,1.83,0,0,1,.57-.59,1.38,1.38,0,0,1,1.53.19,1.59,1.59,0,0,1,.47,1.2c0,.31,0,.62,0,.93q0,1.73,0,3.46,0,4.84,0,9.68v4.12c0,.7.05,1.42,0,2.11a2.64,2.64,0,0,1-1.06,1.7,8.66,8.66,0,0,1-3.28,1.93c-2.89.91-5.92.14-8.78-.51-2.71-.61-5.62-1.19-8.28-.09a7.06,7.06,0,0,0-3.53,3.16c-.35.67-.57,1.3-1.5,1.36,0,0,0,.07,0,.06,1-.07,1.24-.87,1.68-1.62a7,7,0,0,1,3.21-2.83c4.64-2,9.57,1,14.31,1a9.08,9.08,0,0,0,4.91-1.35c.93-.59,2.27-1.49,2.38-2.69s0-2.5,0-3.72q0-7.17,0-14.35c0-1.19.44-3.69-1.27-3.89-.94-.11-1.24.64-1.79,1.19a9.15,9.15,0,0,1-3.27,2,10.41,10.41,0,0,1-6.84.45c-1.89-.57-3.67-1.44-5.57-2a17.48,17.48,0,0,0-11.89,1.07c-.83.37-1.64.78-2.45,1.19a10.81,10.81,0,0,1-2.55,1.15c-.63.13-1.17.18-1.49.83a1.44,1.44,0,0,0,.17,1.53c1,1.24,3.1.08,4.18-.45a34.64,34.64,0,0,1,5.91-2.58,13.71,13.71,0,0,1,7-.06c1.9.47,3.67,1.33,5.54,1.93a11.89,11.89,0,0,0,6.16.42,19,19,0,0,0,3.28-1c.38-.15.75-.32,1.11-.5s.68-.48.93-.49,0-.12.05,0a.6.6,0,0,1,0,.2c0,.24,0,.49,0,.73V39.88a1.81,1.81,0,0,1,0,.37c-.05.22-.2.32-.37.47a6,6,0,0,1-1.38.91c-2,.94-4.3.5-6.37.06-4.13-.89-8.45-2-12.43.06a9.52,9.52,0,0,0-4.42,4.71A1.46,1.46,0,0,0,331,48.53S331.09,48.47,331,48.47Z" transform="translate(-29.58 -18.98)"/><path d="M409.51,218.76l-10.79-8.3a13.45,13.45,0,0,0-8.32-2.2l-2.23-.11a15,15,0,0,0-3,.07l-.26.05a1.35,1.35,0,0,0-.57.11,26.2,26.2,0,0,0-3.88,1,33.35,33.35,0,0,1-4.35,1.19,25.6,25.6,0,0,1-4.24.36,21.92,21.92,0,0,0-4,.39,1.22,1.22,0,0,0-.6.12,1.3,1.3,0,0,0-.34.07,11.75,11.75,0,0,0-1.83.7,25.4,25.4,0,0,1-2.34,1,14,14,0,0,0-7.17,4.75l-7.18,12.16c-1.22,2.07,1.73,4.09,3.77,5.58l.81.57,1.39,1.19c1.82,1.59,3,2.42,5.66,1.39l5.81,30.2a1.32,1.32,0,0,0,1.55,1l39-7.5a1.32,1.32,0,0,0,1-1.55l-5.78-30a5.61,5.61,0,0,0,1.47,0c1.43-.28,2.13-1.41,2.93-3l.49-1C410.36,220.49,410.55,219.67,409.51,218.76Zm-32.94-5.63a36.4,36.4,0,0,0,4.69-1.28c.81-.16,1.5-.45,2.22-.64a7.73,7.73,0,0,1-5.95,7,7.33,7.33,0,0,1-7.92-4.6,7.25,7.25,0,0,1,2.34-.18A28.19,28.19,0,0,0,376.57,213.13Zm-18.29,23.6c-.52.1-.65.13-2.06-1.19l-1.45-1.26-1-.7a16.6,16.6,0,0,1-3-2.33l7.07-11.85a24.41,24.41,0,0,1,2.07,16.77A9.13,9.13,0,0,1,358.28,236.73Zm9.93,30.44-5.78-30A26.47,26.47,0,0,0,360,217.54a28.08,28.08,0,0,1,3.81-1.76c.9-.36,1.78-.72,2.49-1.07l.72-.3a10.11,10.11,0,0,0,10.81,6.46l.16,0a10.43,10.43,0,0,0,8.17-10.09,12.89,12.89,0,0,1,1.81,0l2.37.11a26.84,26.84,0,0,1,3.42.28,26.26,26.26,0,0,0,5,19l5.79,30.07Zm36-41.44-.6,1.06c-.57,1.08-.88,1.57-1.09,1.61a6.54,6.54,0,0,1-1.3,0l-.65,0a23.82,23.82,0,0,1-4.3-16.21,6.06,6.06,0,0,1,.82.46l10.12,7.78C406.78,221.26,405.81,223.06,404.25,225.73Z" transform="translate(-29.58 -18.98)"/><path d="M409.53,218.74l-7.33-5.64c-1.11-.85-2.2-1.72-3.32-2.56A13,13,0,0,0,391,208.2c-2.24,0-4.52-.38-6.72.15-1,.24-2,.41-3,.7s-1.87.62-2.83.89a24.56,24.56,0,0,1-6.19.94,21.08,21.08,0,0,0-5.49.6,19.32,19.32,0,0,0-2.37,1c-.87.39-1.76.67-2.66,1a14,14,0,0,0-4.06,2.27,10.32,10.32,0,0,0-2.24,2.29c-.71,1.1-1.33,2.25-2,3.38l-3.13,5.31c-.65,1.1-1.31,2.19-1.95,3.3-1.18,2.06,1.27,3.87,2.71,5,.73.55,1.51,1,2.2,1.64a28.61,28.61,0,0,0,2.36,2,4,4,0,0,0,3.27.65c.21,0,1-.38,1-.31s0,.19,0,.23l1.45,7.51,2.33,12.13,1.77,9.18c.12.64.16,1.49.72,1.92s1.24.22,1.88.1l7.56-1.46,11.87-2.28,11.6-2.23,6.76-1.3c.87-.17,1.62-.63,1.47-1.67-.09-.6-.23-1.19-.34-1.78l-1.91-9.93-2.3-12-.83-4.34-.26-1.34c0-.1-.17-.53-.12-.62s1.07,0,1.24,0a3,3,0,0,0,1.6-.71,9.56,9.56,0,0,0,1.92-3c1.11-2.17,2.62-4.2,3.41-6.53a1.7,1.7,0,0,0-.35-2.05s-.07,0,0,0a1.37,1.37,0,0,1,.5,1.36,10.6,10.6,0,0,1-1.29,3c-.83,1.57-1.76,3.08-2.57,4.66a9.05,9.05,0,0,1-1.4,2.2,3.55,3.55,0,0,1-3,.92,0,0,0,0,0,0,0l1.45,7.53,2.73,14.19c.53,2.74,1.18,5.49,1.59,8.26.21,1.41-1,1.55-2,1.74l-3.88.75-13,2.51-13.78,2.65c-2.4.46-4.81,1-7.23,1.39-1.45.22-1.59-1-1.78-2l-.86-4.49-2.68-13.93-2-10.22-.1-.53a0,0,0,0,0,0,0,4.82,4.82,0,0,1-3.07.31,6.72,6.72,0,0,1-2.35-1.51c-.72-.62-1.43-1.25-2.21-1.8-1.42-1-3.28-2.14-4-3.78a2.52,2.52,0,0,1,.42-2.52l6.59-11.17a9.88,9.88,0,0,1,2.39-2.56,14,14,0,0,1,2.94-1.81c1.07-.49,2.2-.78,3.28-1.23a18.51,18.51,0,0,1,3.27-1.27A23.3,23.3,0,0,1,371,211c1.26-.05,2.52,0,3.78-.19a24,24,0,0,0,3.61-.74,56.27,56.27,0,0,1,6.71-1.78,24.84,24.84,0,0,1,4.85,0c.78,0,1.57,0,2.35,0a13.41,13.41,0,0,1,3.52.75,11.89,11.89,0,0,1,3.24,1.73l10.12,7.79.29.22S409.56,218.76,409.53,218.74Z" transform="translate(-29.58 -18.98)"/><path d="M376.58,213.16c1.21-.25,2.41-.55,3.59-.92.55-.17,1.08-.34,1.63-.49.29-.08,1.42-.61,1.64-.37s-.2,1.22-.26,1.44a7.69,7.69,0,0,1-2.28,3.65,6.74,6.74,0,0,1-5.67,1.73,7.29,7.29,0,0,1-5.32-4c-.07-.15-.14-.24-.1-.41s.16-.19.42-.24a14.38,14.38,0,0,1,2.22-.07,29.09,29.09,0,0,0,4.14-.35s0-.07,0-.06a29,29,0,0,1-3.88.34,17.63,17.63,0,0,0-3.08.19,0,0,0,0,0,0,0c1.24,3.07,4.67,5.33,8,4.6a7.81,7.81,0,0,0,5.89-7.06,0,0,0,0,0,0,0c-2.31.65-4.56,1.44-6.91,1.92C376.52,213.11,376.54,213.17,376.58,213.16Z" transform="translate(-29.58 -18.98)"/><path d="M358.27,236.7c-.6.12-1-.25-1.42-.63l-1.29-1.14a22.32,22.32,0,0,0-2.32-1.74,16.45,16.45,0,0,1-1.52-1.14c-.15-.13-.91-.65-.9-.81s.19-.32.25-.41l1.31-2.19,3.83-6.42,1.36-2.28c.06-.1.18-.43.29-.48s1,2.14,1,2.36a24.39,24.39,0,0,1,1.48,11.55q-.12,1.09-.35,2.16a1,1,0,0,1-.72.87,7.24,7.24,0,0,1-1,.31,0,0,0,0,0,0,.06,10,10,0,0,0,1.24-.39,1.93,1.93,0,0,0,.42-.19,3.94,3.94,0,0,0,.27-1.29q.1-.54.17-1.09a24.43,24.43,0,0,0-2.51-14.41,0,0,0,0,0-.05,0l-6.2,10.38-.88,1.47a0,0,0,0,0,0,0c1.39,1.34,3.07,2.25,4.53,3.51.6.52,1.18,1.08,1.81,1.58a1.33,1.33,0,0,0,1.2.4S358.31,236.7,358.27,236.7Z" transform="translate(-29.58 -18.98)"/><path d="M368.23,267.16l-2.31-12-3.18-16.54a8.3,8.3,0,0,1-.27-1.41,1.38,1.38,0,0,1,.07-.35c.19-.73.34-1.48.46-2.23a26.5,26.5,0,0,0-2.44-16c-.11-.22-.44-.63-.45-.87s.66-.56.92-.69q1.14-.57,2.34-1c1.15-.45,2.26-1,3.39-1.43.28-.12.23-.09.35.21s.19.44.3.66a10.14,10.14,0,0,0,6.05,5.13,9.13,9.13,0,0,0,6.27-.22,10.47,10.47,0,0,0,6-6.81,10.38,10.38,0,0,0,.31-1.53q0-.39.07-.78c0-.53.47-.43.89-.43,1.65,0,3.34.11,5,.24a7.62,7.62,0,0,1,1.1.11c.66.16.53.38.48.89q-.11,1.15-.11,2.32a26.29,26.29,0,0,0,4.72,15.16,2.94,2.94,0,0,1,.53.87c.16.57.23,1.18.34,1.75l1.41,7.35,3.41,17.71.46,2.4a2.81,2.81,0,0,1,.11.57c0,.15.05,0,0,.08-.21.17-.87.17-1.12.21l-2.48.47-17.46,3.33L369,267l-.79.15s0,.07,0,.06l12.3-2.35L400,261.12l4.49-.86a0,0,0,0,0,0,0l-2.82-14.67-2-10.24-.68-3.54a9.14,9.14,0,0,0-.31-1.6,5.38,5.38,0,0,0-.63-.9,26.22,26.22,0,0,1-3.5-7.34,26.51,26.51,0,0,1-.88-10.77,0,0,0,0,0,0,0c-1.39-.2-2.79-.26-4.2-.32-1.13-.05-2.28-.16-3.41-.1a0,0,0,0,0,0,0,10.51,10.51,0,0,1-5.1,8.86,8.93,8.93,0,0,1-5,1.31,10.08,10.08,0,0,1-9-6.52s0,0,0,0a71.23,71.23,0,0,0-7,3.13,0,0,0,0,0,0,0,26.73,26.73,0,0,1,3.12,9.55,28.53,28.53,0,0,1-.62,9.82,3.34,3.34,0,0,0,.15,1.32l.61,3.17,3.88,20.19,1.07,5.57S368.24,267.2,368.23,267.16Z" transform="translate(-29.58 -18.98)"/><path d="M404.22,225.72c-.22.39-.45.77-.66,1.16s-.39.74-.63,1.09-.81.44-1.36.39a4.06,4.06,0,0,1-.88-.07c-.36-.14-.71-.92-.91-1.25a23.81,23.81,0,0,1-3.58-12.67q0-.81.06-1.61c0-.24,0-.53.26-.49a1.85,1.85,0,0,1,.57.34c1.22.86,2.37,1.82,3.55,2.73l5.47,4.21.84.65c.25.19.26.13.1.42-.94,1.7-1.86,3.42-2.85,5.1a0,0,0,0,0,.05,0c1-1.77,2.06-3.54,3-5.37a0,0,0,0,0,0,0l-9.12-7a10.66,10.66,0,0,0-1.82-1.23,0,0,0,0,0,0,0,23.85,23.85,0,0,0,3.82,15.51c.41.62.35.71,1,.76.44,0,1.17.24,1.57,0s.77-1.14,1-1.58l.6-1.06A0,0,0,0,0,404.22,225.72Z" transform="translate(-29.58 -18.98)"/><path d="M274.7,251.94l-6.37,1.33-.6-2.86a1.61,1.61,0,0,0-3.15.66l.6,2.86-6.37,1.33a1.61,1.61,0,0,0,.66,3.15l15.89-3.31a1.61,1.61,0,0,0-.66-3.15Zm6-41.3-44.12,9.19a3.22,3.22,0,0,0-2.49,3.8l5.33,25.58a3.22,3.22,0,0,0,3.8,2.49l44.12-9.19a3.22,3.22,0,0,0,2.49-3.8l-5.33-25.58A3.22,3.22,0,0,0,280.74,210.64ZM242.6,248.55l-.47-2.27L272.42,240a1.07,1.07,0,1,0-.44-2.1l-30.29,6.31L237.27,223l44.12-9.19L285.81,235l-7.44,1.55a1.07,1.07,0,1,0,.44,2.1l7.44-1.55.47,2.27-44.12,9.19Z" transform="translate(-29.58 -18.98)"/><path d="M274.7,251.91l-4.81,1-1.17.24a1.14,1.14,0,0,1-.31.06c-.13,0,0,0-.06,0s-.19-.93-.24-1.15l-.29-1.39a1.72,1.72,0,0,0-1.83-1.58,1.67,1.67,0,0,0-1.42,2.09c.08.44.18.87.27,1.31a5.61,5.61,0,0,1,.27,1.31c0,.12,0,.07,0,.09s-.2,0-.25.05l-1.08.22c-1.66.35-3.36.63-5,1a1.66,1.66,0,0,0-1.13,2.36,1.68,1.68,0,0,0,1.9.83c3.38-.65,6.75-1.41,10.13-2.11l4.93-1a5.15,5.15,0,0,0,1-.26,1.65,1.65,0,0,0,.49-2.66,1.69,1.69,0,0,0-1.49-.45s0,.07,0,.06a1.59,1.59,0,0,1,1.37,2.72,1.86,1.86,0,0,1-.92.41l-1.75.36-6.68,1.39-6.16,1.28c-.37.08-.74.17-1.11.23a1.59,1.59,0,0,1-1.5-2.6,2.05,2.05,0,0,1,1.19-.56l6-1.26a0,0,0,0,0,0,0l-.41-2c-.06-.29-.14-.59-.18-.88a1.58,1.58,0,1,1,3.09-.64c.07.27.11.55.17.82l.42,2a0,0,0,0,0,0,0l6.37-1.33S274.74,251.9,274.7,251.91Z" transform="translate(-29.58 -18.98)"/><path d="M280.73,210.61,269.22,213l-21.31,4.44-8.17,1.7a34,34,0,0,0-3.46.74,3.3,3.3,0,0,0-2.15,3.85c.14.71.29,1.41.44,2.12l1.95,9.35,2.13,10.24.64,3.07a4.15,4.15,0,0,0,1.15,2.45c1.43,1.29,3.17.7,4.81.36l7.22-1.5,21.18-4.41c4.52-.94,9.05-1.86,13.57-2.83a3.34,3.34,0,0,0,2.64-2.34,4.93,4.93,0,0,0-.13-2.42l-1.68-8c-1.15-5.53-2.21-11.09-3.46-16.59a3.3,3.3,0,0,0-3.85-2.56s0,.07,0,.06a3.28,3.28,0,0,1,3.83,2.78l.52,2.48,2,9.5,2,9.77.6,2.89a3.59,3.59,0,0,1-.74,3.51c-1,1-2.83,1.12-4.15,1.4l-7.47,1.56-20.76,4.32c-4.38.91-8.76,1.86-13.15,2.74a3.25,3.25,0,0,1-3.92-2.26c-.13-.49-.21-1-.31-1.48l-1.74-8.33c-1.1-5.3-2.31-10.58-3.31-15.9a3.24,3.24,0,0,1,2.54-3.82l1.31-.27,6.52-1.36L264.91,214l15-3.13.79-.16S280.77,210.6,280.73,210.61Z" transform="translate(-29.58 -18.98)"/><path d="M242.63,248.55l-.29-1.38a3.3,3.3,0,0,1-.16-.77c0-.12,0-.08,0-.09s.67-.14.84-.18l4.72-1,15-3.11c3.22-.67,6.46-1.26,9.66-2a1.12,1.12,0,0,0,.72-1.79,1.26,1.26,0,0,0-1.36-.33l-3.74.78-14.52,3L242.2,244a2,2,0,0,1-.42.09c-.11,0-.06,0-.07,0-.17-.17-.19-.92-.24-1.15l-1.24-5.95-2.77-13.31c0-.2-.09-.41-.13-.62s0-.18-.05-.13.46-.09.55-.12l3.44-.72,13.08-2.72,15.36-3.2,10.47-2.18c.33-.07.68-.12,1-.21s.14-.08.19.07a11.89,11.89,0,0,1,.31,1.49l.59,2.81,3,14.37.41,2c0,.08.11.31.08.4s0,0,0,0-.23,0-.28.06L279,236.38c-.75.16-1.7.42-1.49,1.44s1.16.88,1.9.73l6.52-1.36c.3-.06.29-.14.33.14.08.59.25,1.19.37,1.77.06.31.1.23-.24.3l-3,.63-12.65,2.64-15.44,3.22-11,2.3-1.63.34a0,0,0,0,0,0,0h0s.07,0,.06,0a6.11,6.11,0,0,0,1.17-.21l3.19-.66,10.52-2.19,12.73-2.65,11.06-2.3,3.61-.75,1.14-.24a2,2,0,0,0,.6-.12l.08,0a0,0,0,0,0,0,0l-.47-2.27a0,0,0,0,0,0,0l-6.77,1.41c-.47.1-1,.29-1.45,0a1.05,1.05,0,0,1,.38-1.89l.33-.07,3.86-.8,3.24-.67a0,0,0,0,0,0,0l-1.49-7.17L282,216.43l-.55-2.65a0,0,0,0,0,0,0l-4.38.91-10.52,2.19-12.73,2.65-11.06,2.3-3.61.75-1.14.24a2,2,0,0,0-.6.12l-.08,0a0,0,0,0,0,0,0l1.49,7.17,2.37,11.38.55,2.65a0,0,0,0,0,0,0L252.15,242l16.4-3.42c1.13-.23,2.28-.57,3.42-.71a1,1,0,0,1,.42,2L272,240l-1.78.37-15.56,3.24-8,1.67c-1.46.3-3,.54-4.39.91l-.21,0a0,0,0,0,0,0,0l.47,2.27S242.64,248.58,242.63,248.55Z" transform="translate(-29.58 -18.98)"/><path d="M189.53,207.68l-16.76-3.51a10.56,10.56,0,0,1-8.1-12.39l7.41-35.38a10.56,10.56,0,0,1,12.39-8.1l16.76,3.51a10.56,10.56,0,0,1,8.1,12.39l-7.41,35.38A10.56,10.56,0,0,1,189.53,207.68Zm-5.65-56.58a7.72,7.72,0,0,0-9,5.89l-7.41,35.38a7.72,7.72,0,0,0,5.89,9l16.76,3.51a7.72,7.72,0,0,0,9-5.89l7.41-35.38a7.72,7.72,0,0,0-5.89-9Z" transform="translate(-29.58 -18.98)"/><path d="M189.54,207.65l-14.62-3.06-2.09-.44a10.48,10.48,0,0,1-5.41-3,10.69,10.69,0,0,1-2.64-9.66l2.81-13.42,3.72-17.78c.27-1.27.52-2.54.8-3.81a10.64,10.64,0,0,1,8.75-8.22c2.41-.36,4.81.35,7.15.84l9.27,1.94c2.16.45,4.58.73,6.57,1.76a10.63,10.63,0,0,1,5.46,11.43c-.77,3.82-1.6,7.63-2.4,11.44L203.05,194,202,199.13a10.77,10.77,0,0,1-5.49,7.53,10.48,10.48,0,0,1-7,1s-.06.05,0,.06a10.7,10.7,0,0,0,11.32-5.19,16.71,16.71,0,0,0,1.52-4.95l3.56-17,3.24-15.46c.06-.3.13-.59.19-.89a10.53,10.53,0,0,0-.71-6.4,10.83,10.83,0,0,0-7.89-6.13l-15.83-3.31a10.81,10.81,0,0,0-9.71,2.51,10.51,10.51,0,0,0-3.15,5.51c-.07.32-.14.65-.2,1L168.58,173l-3.53,16.86a15.71,15.71,0,0,0-.53,5.39,10.69,10.69,0,0,0,8.25,9c5,1.09,10.07,2.11,15.11,3.16l1.65.35S189.58,207.66,189.54,207.65Z" transform="translate(-29.58 -18.98)"/><path d="M183.89,151.08a7.81,7.81,0,0,0-9,5.91c-.23,1-.43,2.06-.65,3.09l-3.48,16.61-3.05,14.57c-.08.36-.15.72-.23,1.08a7.68,7.68,0,0,0,.58,4.8,7.8,7.8,0,0,0,4.32,4,15.44,15.44,0,0,0,2.16.53l15.2,3.18a7.91,7.91,0,0,0,8.39-3.29,12.14,12.14,0,0,0,1.44-4.38l3.25-15.54,3.32-15.85a15.53,15.53,0,0,0,.59-4.13,7.85,7.85,0,0,0-6.27-7.1l-15.07-3.16-1.46-.31s-.06.05,0,.06L197.59,154c2.18.46,4.46.71,6.24,2.18a7.8,7.8,0,0,1,2.82,6,9.64,9.64,0,0,1-.25,1.94l-2.66,12.72-3.57,17-1,4.67a9.26,9.26,0,0,1-.61,2,7.8,7.8,0,0,1-5.07,4.22c-2.19.57-4.38-.12-6.52-.57l-8.69-1.82c-1.7-.36-3.41-.67-5.11-1.07a7.74,7.74,0,0,1-5.68-9c.75-3.68,1.54-7.35,2.31-11l3.64-17.41,1.19-5.69c.08-.37.15-.75.24-1.12a7.68,7.68,0,0,1,9-5.92S183.93,151.09,183.89,151.08Z" transform="translate(-29.58 -18.98)"/><path d="M187.89,189.2l-6.21-1.3a6.7,6.7,0,0,1-5.15-7.88L180,163.57a6.7,6.7,0,0,1,7.88-5.15l6.21,1.3a6.7,6.7,0,0,1,5.15,7.88L195.78,184A6.7,6.7,0,0,1,187.89,189.2Zm-.55-28.3a4,4,0,0,0-4.88,3.19L179,180.54a4.2,4.2,0,0,0,3.19,4.88l6.21,1.3a4.2,4.2,0,0,0,4.88-3.19l3.44-16.45a4.2,4.2,0,0,0-3.19-4.88Zm-5.08,39.75a4.44,4.44,0,1,1,5.25-3.43A4.33,4.33,0,0,1,182.26,200.65Zm1.3-6.21A1.9,1.9,0,1,0,185,196.7,2,2,0,0,0,183.56,194.45Z" transform="translate(-29.58 -18.98)"/><path d="M187.9,189.17c-2.07-.43-4.14-.84-6.21-1.3a6.7,6.7,0,0,1-4.94-4.47,7.22,7.22,0,0,1-.1-3.78l3.15-15.06a10.45,10.45,0,0,1,.74-2.55,6.74,6.74,0,0,1,5.52-3.68,13.36,13.36,0,0,1,3.65.51l4,.84a6.86,6.86,0,0,1,4.48,2.87,6.78,6.78,0,0,1,1,5.14c-.42,2.07-.86,4.13-1.3,6.19l-1.78,8.48c-.12.56-.23,1.12-.35,1.67a6.78,6.78,0,0,1-4.21,4.87,6.65,6.65,0,0,1-3.63.27s-.06.05,0,.06a6.82,6.82,0,0,0,8-5.42q.78-3.68,1.54-7.37l1.7-8.14a8.41,8.41,0,0,0,.21-3,6.81,6.81,0,0,0-3.29-4.88,12.41,12.41,0,0,0-3.76-1.12l-4.16-.87a6.82,6.82,0,0,0-8.16,5.14c-1.1,5-2.1,10-3.15,15.06-.13.62-.29,1.25-.37,1.88a6.82,6.82,0,0,0,2,5.67,7.66,7.66,0,0,0,4,1.91l4.43.93,1,.22S187.94,189.18,187.9,189.17Z" transform="translate(-29.58 -18.98)"/><path d="M187.35,160.87A4.11,4.11,0,0,0,183,162.6a6.51,6.51,0,0,0-.74,2.23l-1.49,7.11-1.56,7.45a14.5,14.5,0,0,0-.3,1.58,4.28,4.28,0,0,0,2.61,4.28,17.23,17.23,0,0,0,2.87.67l3.71.78a4.36,4.36,0,0,0,3.81-.86,4.51,4.51,0,0,0,1.48-2.66l3-14.4c.12-.55.24-1.1.35-1.65a4.28,4.28,0,0,0-1.51-4.14,6.83,6.83,0,0,0-3.07-1.1l-4-.83-.86-.18s-.06.05,0,.06l5.92,1.24a4.28,4.28,0,0,1,3.44,3.22,5.44,5.44,0,0,1-.13,2.4l-2.9,13.85c-.12.59-.24,1.19-.37,1.78a4.23,4.23,0,0,1-3.35,3.28,8.48,8.48,0,0,1-3.21-.37l-3.73-.78a4.75,4.75,0,0,1-3.38-2,4.4,4.4,0,0,1-.48-3.36l1.24-5.92,1.6-7.64c.4-1.89.56-4.16,2.4-5.24a4.24,4.24,0,0,1,3-.45S187.39,160.88,187.35,160.87Z" transform="translate(-29.58 -18.98)"/><path d="M182.26,200.62a4.37,4.37,0,0,1-3.46-3.56,4.56,4.56,0,0,1,2.2-4.64,4.62,4.62,0,0,1,5.19.62,4.45,4.45,0,0,1,1.11,4.83,4.36,4.36,0,0,1-5,2.75s-.06.05,0,.06a4.43,4.43,0,0,0,4.71-2,4.62,4.62,0,0,0-.24-5.2,4.68,4.68,0,0,0-5.1-1.44,4.53,4.53,0,0,0-2.93,4.18,4.42,4.42,0,0,0,3.56,4.43S182.3,200.63,182.26,200.62Z" transform="translate(-29.58 -18.98)"/><path d="M183.56,194.42a1.93,1.93,0,1,0,1.49,2.29,2.07,2.07,0,0,0-1.49-2.29,0,0,0,0,0,0,.06,1.87,1.87,0,1,1-2.21,1.45,2,2,0,0,1,2.21-1.45S183.6,194.42,183.56,194.42Z" transform="translate(-29.58 -18.98)"/><path d="M86.53,352.84l-11.68-7.72,4.32-3.71,7.92,5.24a1.53,1.53,0,0,0,1.68-2.54L80,338.33a1.37,1.37,0,0,0-1.65.18l-5.88,5.05-11.19-7.4a3.75,3.75,0,0,0-5.09,1.37l-2.58,3.91a3.82,3.82,0,0,0,.4,5L40,370.53c-1.31,2-.09,4.83,2.12,6.29l14.67,9.7c2.17,1.44,5.14,1.35,6.5-.71l14.53-19.89.09-.13a1.34,1.34,0,1,0-2.22-1.47L61.16,384.26c-.29.43-1.56.47-2.66-.25l-14.67-9.7a3.8,3.8,0,0,1-1.36-1.59,1.24,1.24,0,0,1-.15-.8l13.94-24,23.33,15.43A3.75,3.75,0,0,0,84.68,362l2.58-3.91A3.75,3.75,0,0,0,86.53,352.84Zm-4.09,7.65a.86.86,0,0,1-1.18.32L56,344.13a.86.86,0,0,1-.17-1.21L58.46,339a.86.86,0,0,1,1.18-.32l12,7.93h0l13.2,8.73a.86.86,0,0,1,.17,1.21l-2.58,3.91ZM61.38,378.77l-3.09-13.89a1.24,1.24,0,0,0-1.67-.9,1.66,1.66,0,0,0-1.06,1.87l3.09,13.89a1.25,1.25,0,0,0,.53.78,1.28,1.28,0,0,0,1.15.12A1.66,1.66,0,0,0,61.38,378.77Zm6-9-1.52-7a1.24,1.24,0,0,0-1.67-.91,1.66,1.66,0,0,0-1.07,1.87l1.52,7a1.25,1.25,0,0,0,.53.79,1.28,1.28,0,0,0,1.14.12A1.66,1.66,0,0,0,67.36,369.75Z" transform="translate(-29.58 -18.98)"/><path d="M86.55,352.81l-5.37-3.55-3.91-2.58A19.77,19.77,0,0,1,75,345.16c-.06-.06-.09-.09-.1,0s.25-.21.29-.25l1.54-1.32,1.76-1.51c.18-.16.37-.31.55-.47s.19-.14.16-.14c.21,0,.62.41.79.52L81.59,343l4,2.62c.63.41,1.53,1.28,2.34,1.2A1.59,1.59,0,0,0,88.7,344c-2.16-1.49-4.38-2.9-6.57-4.35-.69-.46-1.36-1-2.08-1.38-1.06-.61-1.9.36-2.64,1l-3.51,3c-.41.35-.84.69-1.23,1.06-.19.18-.1.16-.28.06-.84-.46-1.63-1.08-2.43-1.61l-4-2.65-3.46-2.29a7.21,7.21,0,0,0-2.16-1.2,4.05,4.05,0,0,0-4.2,1.92c-.75,1.12-1.48,2.24-2.22,3.36a4.38,4.38,0,0,0-.65,4.46,3.28,3.28,0,0,0,.31.5c.06.08.44.39.45.46s0,.06-.05.09a2.18,2.18,0,0,1-.31.53l-8.07,13.91-4.19,7.22c-.7,1.21-1.89,2.72-1.92,4.16a5.68,5.68,0,0,0,2.68,4.56l1.56,1,7.42,4.91,5.57,3.69a5.65,5.65,0,0,0,4.33.94,4.21,4.21,0,0,0,2.49-1.81L72.73,373l4.43-6.07c.24-.33.49-.66.72-1a1.54,1.54,0,0,0-.07-2.07,1.43,1.43,0,0,0-2,.29c-.92,1.09-1.7,2.33-2.54,3.47L67.87,375l-5.12,7-1.39,1.9a3.21,3.21,0,0,1-.23.31c-.66.7-2,.13-2.66-.29-4.28-2.75-8.48-5.61-12.72-8.41-.62-.41-1.24-.8-1.85-1.22s-2-1.68-1.42-2.64l2.8-4.83,9.13-15.73,1.38-2.38c.12-.21.26-.42.37-.64s.13-.17.07-.16.26.17.32.21l.72.48,2.52,1.67L75,360.37l4.39,2.9a3.51,3.51,0,0,0,3.33.34c1.34-.55,2-1.73,2.78-2.87a36,36,0,0,0,2-3.06,3.76,3.76,0,0,0-1-4.87s-.06,0,0,.05a3.56,3.56,0,0,1,1.3,3.88,6.67,6.67,0,0,1-1,2,33.06,33.06,0,0,1-2.52,3.73,3.68,3.68,0,0,1-4.84.76L77.57,362,61.15,351.11l-4.88-3.23a0,0,0,0,0,0,0l-7.72,13.3-4.8,8.27-1.24,2.14c-.58,1,.56,2.18,1.35,2.73,4.48,3.11,9.11,6,13.66,9a5.48,5.48,0,0,0,2.66,1.24c.84,0,1.07-.35,1.5-.93l4.77-6.53,6.28-8.59,2.25-3.08a6.37,6.37,0,0,1,1.3-1.6,1.25,1.25,0,0,1,2,1,1.77,1.77,0,0,1-.39,1.1l-.37.5L75.56,369l-6.1,8.34-5.3,7.25-.92,1.26c-1.56,2.1-4.44,1.91-6.45.6-4.69-3-9.32-6.16-14-9.24a7.16,7.16,0,0,1-3-3.21,3.82,3.82,0,0,1,.2-3.48l.2-.35,3.53-6.08,9.63-16.6.63-1.09a0,0,0,0,0,0,0,3.85,3.85,0,0,1-.39-4.93c.4-.62.81-1.23,1.22-1.85s.88-1.36,1.34-2a4,4,0,0,1,4.08-1.82,4.66,4.66,0,0,1,1.49.76l1.85,1.22,5.29,3.5,3.55,2.35h0l4.89-4.2c.74-.64,1.58-1.62,2.64-1,.68.4,1.33.88,2,1.32l6.26,4.14c.14.1.3.18.43.29a1.51,1.51,0,0,1-1.65,2.48c-.64-.37-1.25-.83-1.87-1.23l-6-4h0l-4.32,3.71a0,0,0,0,0,0,0l10.23,6.76,1.45,1S86.58,352.84,86.55,352.81Z" transform="translate(-29.58 -18.98)"/><path d="M82.41,360.47c-.65.83-1.3.2-1.91-.2l-2.33-1.54-7.59-5-13.91-9.2c-.63-.42-1.27-.75-.7-1.7.72-1.19,1.54-2.33,2.31-3.5.33-.5.75-.91,1.4-.55.28.16.55.37.82.54l3.5,2.32,10.91,7.22,8,5.31c.61.4,1.3.77,1.86,1.23.73.6,0,1.37-.33,1.92l-1.32,2-.76,1.15s0,.06.05,0l2.24-3.39c.27-.41.65-.85.46-1.38-.11-.3-.36-.43-.6-.59l-7.34-4.86-11.73-7.76-4.14-2.74-1.3-.86a2.09,2.09,0,0,0-.68-.38c-.56-.11-.89.35-1.16.76l-1.32,2c-.46.69-1.82,2.08-.86,2.85.37.3.82.54,1.22.8l2.81,1.86,8.41,5.57L77,358c1.4.93,2.78,2,4.25,2.81a.92.92,0,0,0,1.25-.3S82.44,360.44,82.41,360.47Z" transform="translate(-29.58 -18.98)"/><path d="M61.41,378.77c-1-4.6-1.94-9.25-3.08-13.82-.41-1.65-2.56-1.18-2.82.33a6,6,0,0,0,.35,2.1l2,9.1c.24,1.06.45,2.13.71,3.19a1.3,1.3,0,0,0,1.31,1.09,1.69,1.69,0,0,0,1.5-2s-.07,0-.06,0a1.62,1.62,0,0,1-1.44,1.91,1.23,1.23,0,0,1-1.24-1c-.06-.21-.09-.43-.14-.64L57.84,376,56,367.77c-.14-.63-.31-1.26-.42-1.9a1.64,1.64,0,0,1,.36-1.39,1.32,1.32,0,0,1,2.19.09,2.89,2.89,0,0,1,.2.7l1.57,7,1.44,6.46S61.42,378.8,61.41,378.77Z" transform="translate(-29.58 -18.98)"/><path d="M67.39,369.75l-.92-4.22L66,363.18c-.12-.54-.24-1.08-.8-1.33A1.61,1.61,0,0,0,63,363.39a6.68,6.68,0,0,0,.26,1.39L64.44,370c.13.62.21,1.31.86,1.61,1.19.55,2.26-.76,2.09-1.87,0,0-.07,0-.06,0,.27,1.71-2.2,2.73-2.69.84-.11-.44-.19-.89-.29-1.33l-1-4.47c-.08-.36-.17-.72-.23-1.08A1.64,1.64,0,0,1,64,362a1.23,1.23,0,0,1,1.78.84c.3,1.1.49,2.24.73,3.36l.78,3.62S67.4,369.78,67.39,369.75Z" transform="translate(-29.58 -18.98)"/><path d="M65.89,20.21a16.35,16.35,0,0,0-7.66-.46c-5.28.85-11,3.86-16.67,8.69S32.1,38.54,30.48,43.63a16.33,16.33,0,0,0-.69,7.64A13.78,13.78,0,0,0,33,58.11a12.67,12.67,0,0,0,6.18,4.06,14.72,14.72,0,0,0,7.36,0c4.82-1.11,10.23-4.22,16.07-9.25S72.37,43,74.18,38.43a14.74,14.74,0,0,0,1.07-7.28,12.64,12.64,0,0,0-3.09-6.71A13.75,13.75,0,0,0,65.89,20.21ZM71.35,37.3C69.74,41.38,66,46,60.65,50.62s-10.5,7.61-14.77,8.59-7.87,0-10.54-3.1S32,49,33.39,44.56A21.33,21.33,0,0,1,35,40.77a19.06,19.06,0,0,1,8.58,3.84,1.53,1.53,0,0,0,1.9-2.39A22.14,22.14,0,0,0,36.79,38a37.22,37.22,0,0,1,3.52-4.19,18.94,18.94,0,0,1,10.36,4.07,1.53,1.53,0,0,0,1.9-2.39,22,22,0,0,0-9.43-4.36l.42-.36a46.51,46.51,0,0,1,4.72-3.58,19,19,0,0,1,9.44,4,1.53,1.53,0,0,0,1.9-2.4,22.14,22.14,0,0,0-7.37-3.85,23.49,23.49,0,0,1,6.48-2.14c4.59-.74,8.44.52,11.14,3.66S73,33.08,71.35,37.3Z" transform="translate(-29.58 -18.98)"/><path d="M65.89,20.18c-4.24-1.33-8.79-.61-12.85,1a41.66,41.66,0,0,0-12,7.63A39.77,39.77,0,0,0,32.28,39.4c-2.1,3.84-3.34,8.33-2.36,12.69a14,14,0,0,0,7.82,9.59c4,1.71,8.46,1,12.35-.58a44.09,44.09,0,0,0,11.26-7,52.75,52.75,0,0,0,10-10.39c2.39-3.43,4.3-7.52,4-11.79a13.54,13.54,0,0,0-6.64-10.42,14,14,0,0,0-2.82-1.28s-.05,0,0,.06a14,14,0,0,1,9,9.22c1.19,4.29-.24,8.72-2.45,12.42A44.17,44.17,0,0,1,64,51.7a54.12,54.12,0,0,1-11.25,8.1c-3.7,1.92-8,3.33-12.19,2.63a13.37,13.37,0,0,1-9.74-7.85C27,46,32.93,36.87,38.84,31a46.64,46.64,0,0,1,11.29-8.42c3.79-2,8.1-3.34,12.42-3a15.17,15.17,0,0,1,3.33.65S65.93,20.19,65.89,20.18Z" transform="translate(-29.58 -18.98)"/><path d="M71.32,37.29A26.33,26.33,0,0,1,67,44.2a55.06,55.06,0,0,1-7.13,7,48.79,48.79,0,0,1-8.08,5.6,21.38,21.38,0,0,1-7.7,2.65,9.7,9.7,0,0,1-7.45-2.11,11.08,11.08,0,0,1-3.92-7.59,13.48,13.48,0,0,1,.5-4.6,19.24,19.24,0,0,1,.92-2.56q.23-.53.49-1c.26-.53.37-.82,1-.68a19,19,0,0,1,6.4,2.61,16.63,16.63,0,0,0,1.86,1.29,1.57,1.57,0,0,0,2.17-1.08c.27-1.2-.91-1.86-1.74-2.44a22.17,22.17,0,0,0-3.9-2.14q-1-.42-2-.74l-1-.3c-.22-.06-.45,0-.47-.29,0-.12.32-.43.41-.55q.82-1.09,1.73-2.11l.77-.84a1.23,1.23,0,0,1,1.29-.4A18.91,18.91,0,0,1,50,37.4a3.12,3.12,0,0,0,1.47.83,1.57,1.57,0,0,0,1.25-.45,1.6,1.6,0,0,0-.29-2.45,20.67,20.67,0,0,0-3.81-2.39,22,22,0,0,0-4.21-1.56c-.17,0-1-.14-1-.24s.4-.51.57-.65q1.13-1,2.31-1.84l.92-.67a5.49,5.49,0,0,1,.94-.65c.73-.29,2,.2,2.76.39a19,19,0,0,1,6.33,3.07,2.43,2.43,0,0,0,1.48.72,1.57,1.57,0,0,0,1.53-1.74,1.71,1.71,0,0,0-.75-1.17,20.24,20.24,0,0,0-1.94-1.35,22.2,22.2,0,0,0-4.05-2,5.54,5.54,0,0,1-1-.34c0-.22,1.19-.64,1.35-.7a24.53,24.53,0,0,1,2.39-.85,17.85,17.85,0,0,1,4.73-.79,11.34,11.34,0,0,1,7.77,2.69,10,10,0,0,1,3.59,7.54,12.86,12.86,0,0,1-1,4.47s0,.05.06,0a11.8,11.8,0,0,0,.87-6,9.91,9.91,0,0,0-2.49-5.08,11.63,11.63,0,0,0-10.12-3.65,22.7,22.7,0,0,0-7.41,2.26,0,0,0,0,0,0,.06,22.5,22.5,0,0,1,5.35,2.42q.59.37,1.16.78c.49.35,1.13.71,1.33,1.32a1.51,1.51,0,0,1-2.35,1.65,25.06,25.06,0,0,0-4.55-2.66,19.06,19.06,0,0,0-2.71-.89q-.62-.15-1.24-.26a3.26,3.26,0,0,0-1-.14c-.21,0-.48.32-.67.45l-.65.46q-.7.5-1.37,1c-.84.65-1.66,1.33-2.45,2a0,0,0,0,0,0,.05,22.3,22.3,0,0,1,6,2.13,22.06,22.06,0,0,1,2.54,1.58c.49.36,1.13.71,1.33,1.32A1.51,1.51,0,0,1,52.25,38c-1.1.55-2.08-.59-2.93-1.15a19,19,0,0,0-8-3c-.36,0-.84-.2-1.15,0A6.75,6.75,0,0,0,39,35.22Q37.8,36.55,36.77,38a0,0,0,0,0,0,0,22.46,22.46,0,0,1,5.53,2.1c1.23.67,5.31,2.73,3.17,4.43-1.06.84-2-.15-2.87-.74a19.07,19.07,0,0,0-2.36-1.39,19.46,19.46,0,0,0-5.2-1.7h0c-2,3.69-3.24,8.16-1.63,12.23a10.33,10.33,0,0,0,8,6.56c3.7.49,7.45-1,10.64-2.74a53.73,53.73,0,0,0,11.33-8.58c3.23-3.12,6.36-6.7,8-10.91C71.39,37.27,71.33,37.26,71.32,37.29Z" transform="translate(-29.58 -18.98)"/><path d="M43.84,170.43l-4.06.91a1.38,1.38,0,1,1-.61-2.69l4.06-.91a1.38,1.38,0,0,1,.61,2.69Zm40.27-9.07-4.06.91a1.38,1.38,0,1,1-.61-2.69l4.06-.91a1.38,1.38,0,1,1,.61,2.69ZM49.8,185.55a1.38,1.38,0,0,1-1.47-2.08L50.56,180a1.38,1.38,0,1,1,2.33,1.47l-2.22,3.51a1.38,1.38,0,0,1-.86.61Zm22.06-34.89a1.38,1.38,0,0,1-1.47-2.08l2.22-3.51a1.38,1.38,0,1,1,2.33,1.47l-2.22,3.51A1.38,1.38,0,0,1,71.86,150.67Zm-14-2.42a1.38,1.38,0,0,1-1.65-1l-.91-4.06a1.38,1.38,0,0,1,2.69-.61l.91,4.06A1.38,1.38,0,0,1,57.87,148.25Zm23.28,30.25a1.38,1.38,0,0,1-1-.18l-3.51-2.22a1.38,1.38,0,0,1,1.47-2.33L81.58,176a1.38,1.38,0,0,1-.43,2.51ZM46.26,156.43a1.38,1.38,0,0,1-1-.18L41.7,154a1.38,1.38,0,1,1,1.47-2.33l3.51,2.22a1.38,1.38,0,0,1-.43,2.51Zm15,32.87a1.38,1.38,0,0,1-.93-2.58L71,181.25a1.38,1.38,0,1,1,1.26,2.46l-10.73,5.49A1.38,1.38,0,0,1,61.22,189.31Zm-.94-4.16a1.38,1.38,0,0,1-.93-2.58l9.88-5.06a15.07,15.07,0,0,1,.16-4.31,1.38,1.38,0,0,1,.35-.65,11.23,11.23,0,1,0-11,3.05,1.38,1.38,0,0,1-.71,2.67,14,14,0,1,1,14-4.12,15.17,15.17,0,0,0,.05,4,1.38,1.38,0,0,1-.74,1.41L60.6,185a1.39,1.39,0,0,1-.33.12ZM67.67,192a6.24,6.24,0,0,1-4.17-.51,1.38,1.38,0,1,1,1.24-2.46,3.47,3.47,0,0,0,4.3-1,1.38,1.38,0,0,1,2.18,1.69A6.24,6.24,0,0,1,67.67,192Z" transform="translate(-29.58 -18.98)"/><path d="M43.83,170.4,41,171c-.39.09-.78.2-1.18.27a1.35,1.35,0,0,1-.61-2.63c.93-.27,1.91-.43,2.86-.64.39-.09.78-.2,1.18-.27a1.35,1.35,0,0,1,.61,2.63,0,0,0,0,0,0,.06,1.42,1.42,0,0,0-.19-2.78,4,4,0,0,0-1.16.19l-2,.45c-.93.21-2.22.29-2.4,1.47a1.43,1.43,0,0,0,1,1.56,2.41,2.41,0,0,0,1.19-.1l3.55-.8S43.87,170.39,43.83,170.4Z" transform="translate(-29.58 -18.98)"/><path d="M84.1,161.33l-2.86.64c-.39.09-.78.2-1.18.27a1.35,1.35,0,0,1-.61-2.63c.93-.27,1.91-.43,2.86-.64.39-.09.78-.2,1.18-.27a1.35,1.35,0,0,1,.61,2.63,0,0,0,0,0,0,.06,1.42,1.42,0,0,0-.19-2.78,4,4,0,0,0-1.16.19l-2,.45c-.93.21-2.22.29-2.4,1.47a1.43,1.43,0,0,0,1,1.56,2.41,2.41,0,0,0,1.19-.1l3.55-.8S84.14,161.32,84.1,161.33Z" transform="translate(-29.58 -18.98)"/><path d="M49.8,185.52a1.37,1.37,0,0,1-1.35-2.18c.26-.44.55-.87.82-1.3l1-1.56c.32-.5.59-1,1.24-1.11a1.36,1.36,0,0,1,1.29,2.14c-.25.42-.52.83-.78,1.24l-1,1.59c-.11.18-1.11,1.5-1.18,1.21,0,0-.07,0-.06,0h0a0,0,0,0,0,0,0c1-.29,1.49-1.59,2-2.38s1.46-1.81,1.31-2.74a1.43,1.43,0,0,0-2.65-.42c-.65,1-1.27,2-1.91,3a1.94,1.94,0,0,0-.45,1.38,1.44,1.44,0,0,0,1.7,1.15S49.84,185.52,49.8,185.52Z" transform="translate(-29.58 -18.98)"/><path d="M71.85,150.64a1.37,1.37,0,0,1-1.35-2.18c.26-.44.55-.87.82-1.3l1-1.56c.32-.5.59-1,1.24-1.11a1.36,1.36,0,0,1,1.29,2.14c-.25.42-.52.83-.78,1.24l-1,1.59c-.33.51-.57,1-1.22,1.18a0,0,0,0,0,0,.06c1-.29,1.49-1.59,2-2.38s1.46-1.81,1.31-2.74a1.43,1.43,0,0,0-2.65-.42c-.65,1-1.27,2-1.91,3a1.94,1.94,0,0,0-.45,1.38,1.44,1.44,0,0,0,1.7,1.15S71.89,150.63,71.85,150.64Z" transform="translate(-29.58 -18.98)"/><path d="M57.86,148.22c-1.71.28-1.81-1.89-2.07-3s-1.12-3.26.56-3.64,1.82,2,2.07,3,1.1,3.15-.56,3.64a0,0,0,0,0,0,.06A1.44,1.44,0,0,0,59,146.77a8.67,8.67,0,0,0-.24-1.11c-.23-1-.42-2.1-.7-3.13a1.42,1.42,0,0,0-2.77.11,3.41,3.41,0,0,0,.17,1.2l.44,1.95c.26,1.13.42,2.75,2,2.49C57.91,148.27,57.9,148.21,57.86,148.22Z" transform="translate(-29.58 -18.98)"/><path d="M81.14,178.46a2.2,2.2,0,0,1-1.61-.55l-1.59-1c-.41-.26-.84-.51-1.24-.78a1.36,1.36,0,0,1,.41-2.52,2,2,0,0,1,1.45.5l1.56,1c.43.27.88.54,1.3.82a1.37,1.37,0,0,1-.29,2.54,0,0,0,0,0,0,.06,1.43,1.43,0,0,0,.3-2.66c-1-.65-2-1.27-3-1.9a2,2,0,0,0-1.18-.45,1.42,1.42,0,0,0-1.35,1.3c-.08,1.13,1.15,1.62,1.94,2.12l1.83,1.15a2,2,0,0,0,1.47.44S81.18,178.46,81.14,178.46Z" transform="translate(-29.58 -18.98)"/><path d="M46.25,156.4a2.2,2.2,0,0,1-1.61-.55l-1.59-1c-.41-.26-.84-.51-1.24-.78a1.36,1.36,0,0,1,.41-2.52,2,2,0,0,1,1.45.5l1.56,1c.43.27.88.54,1.3.82a1.37,1.37,0,0,1-.29,2.54,0,0,0,0,0,0,.06,1.43,1.43,0,0,0,.3-2.66c-1-.65-2-1.27-3-1.9a2,2,0,0,0-1.18-.45,1.42,1.42,0,0,0-1.35,1.3c-.08,1.13,1.15,1.62,1.94,2.12L44.8,156a2,2,0,0,0,1.47.44S46.29,156.4,46.25,156.4Z" transform="translate(-29.58 -18.98)"/><path d="M61.21,189.28a1.36,1.36,0,0,1-.9-2.52l.45-.23,2.39-1.22L69.53,182c.49-.25,1-.53,1.48-.76a1.35,1.35,0,0,1,1.58,2.15,2.32,2.32,0,0,1-.62.39l-5.47,2.8L63,188.4a11,11,0,0,1-1.81.88,0,0,0,0,0,0,.06,10.59,10.59,0,0,0,1.75-.84l3.51-1.79c1.92-1,3.9-1.89,5.77-3a1.42,1.42,0,0,0-.42-2.67,3.54,3.54,0,0,0-1.88.68l-7.18,3.67c-.82.42-1.66.81-2.46,1.26a1.42,1.42,0,0,0,.91,2.66S61.25,189.27,61.21,189.28Z" transform="translate(-29.58 -18.98)"/><path d="M60.27,185.11a1.36,1.36,0,0,1-.9-2.52l.36-.19,2.13-1.09,5.92-3,1.46-.75a0,0,0,0,0,0,0,16.09,16.09,0,0,1,.1-4,2.36,2.36,0,0,1,.67-1.19,11.26,11.26,0,1,0-12.47,3c.8.31,1.92.39,2.15,1.39a1.36,1.36,0,0,1-.57,1.43,1.79,1.79,0,0,1-1.61,0,14,14,0,1,1,15.71-5.55q-.34.5-.71,1c-.14.18-.46.42-.54.63a4.51,4.51,0,0,0-.1,1.33,16.78,16.78,0,0,0,.11,2.3,1.56,1.56,0,0,1-.72,1.76c-.33.19-.67.34-1,.52l-9,4.61a5.8,5.8,0,0,1-1,.46,0,0,0,0,0,0,0h0s.07,0,.06,0a7.55,7.55,0,0,0,1.19-.53L64,183.34l5.92-3c.47-.24,1-.46,1.42-.72,1.27-.72.66-2.32.64-3.51,0-.57-.13-1.57.23-2.06a24.59,24.59,0,0,0,1.54-2.12,14,14,0,0,0,1.82-5.22,14,14,0,1,0-23.7,8.1,14,14,0,0,0,3.93,2.7c1,.47,2.89,1.5,3.77.29a1.42,1.42,0,0,0,.08-1.54c-.37-.63-1.08-.7-1.71-.92a11.21,11.21,0,1,1,12.83-4c-.44.61-1.19,1.16-1.39,1.91a12.06,12.06,0,0,0-.2,3.59c0,.48.2.61-.18.81l-.76.39-5.77,3L60,182.19a2.62,2.62,0,0,0-1.28.94,1.43,1.43,0,0,0,1.56,2S60.31,185.11,60.27,185.11Z" transform="translate(-29.58 -18.98)"/><path d="M67.66,192c-1.3.27-5.63.17-4.8-2.16a1.33,1.33,0,0,1,1.39-.88,6.37,6.37,0,0,1,1.09.37,3.53,3.53,0,0,0,2.09-.05,3.46,3.46,0,0,0,1.45-1A1.7,1.7,0,0,1,70,187.6a1.37,1.37,0,0,1,1.38.94c.32,1-.74,1.91-1.47,2.44a6.44,6.44,0,0,1-2.29,1s0,.07,0,.06a6.46,6.46,0,0,0,2.3-1,4.31,4.31,0,0,0,1.45-1.53,1.42,1.42,0,0,0-1.79-1.88,1.55,1.55,0,0,0-.62.45,4.07,4.07,0,0,1-1.11.94,3.49,3.49,0,0,1-1.72.4,5.58,5.58,0,0,1-1.61-.44,1.42,1.42,0,0,0-1.78,1.85c.29.74,1.18,1,1.88,1.2a6.48,6.48,0,0,0,3,.06S67.7,192,67.66,192Z" transform="translate(-29.58 -18.98)"/><path d="M162.63,95.42c-2.08-3.5-12.1-3.95-15.4-4l-.6-2.12a1.25,1.25,0,0,0-.87-.87l-.16,0a15.56,15.56,0,0,0-2.94-7.55,10.21,10.21,0,0,0-9.41-3.78,54.88,54.88,0,0,0-17.05,5.45,8.57,8.57,0,0,0-4.86,5.67c-1,4.06,1.23,8.39,2.39,10.29l-.14.05a1.26,1.26,0,0,0-.69,1.73l.84,1.71c-1.8,1.25-8.83,6.39-8.79,10.47a3.48,3.48,0,0,0,1.69,3A3.91,3.91,0,0,0,109,116c1.78,0,5-.73,10.25-4.22l.12-.09c.93,0,1.83.12,2.66.22,1,.13,3.64.2,5.55.2,1.1,0,1.92,0,2.31-.06l1.12-.12c3.35-.35,6.81-.72,10.21-1.41a40,40,0,0,0,9.83-3.26,43.61,43.61,0,0,0,6.48-4,44.6,44.6,0,0,0,3.68-2.95,6.38,6.38,0,0,0,1.39-1.62A3.14,3.14,0,0,0,162.63,95.42Zm-49.29,16.46,1-.09a12.22,12.22,0,0,1-5.31,1.68,2.48,2.48,0,0,1-.89-.13l-.06,0h0A14.63,14.63,0,0,1,113.34,111.88Zm2.8-14.3c-.73-1.12-3.21-5.3-2.35-8.8a6.09,6.09,0,0,1,3.54-4,53.74,53.74,0,0,1,16.23-5.2h.08a7.06,7.06,0,0,1,1-.07,7.13,7.13,0,0,1,5.95,2.81,13.22,13.22,0,0,1,2.48,6.33C137.14,89.91,122.42,95.25,116.14,97.58Zm-.66,6.57a1.25,1.25,0,0,0,.94-.32c1.69-1,19.12-6.62,29.8-10a1.24,1.24,0,0,0,.44.09c5.86,0,12.8,1.09,13.79,2.77.06.1.17.29-.09.78a4.48,4.48,0,0,1-.89,1,42.22,42.22,0,0,1-3.46,2.77,41.23,41.23,0,0,1-6.1,3.79,37.56,37.56,0,0,1-9.22,3.05c-3.27.67-6.68,1-10,1.38l-1.12.12c-.29,0-1,0-1.94,0-1.87,0-4.45-.07-5.34-.18a40,40,0,0,0-9.27,0,19.72,19.72,0,0,0-4.81,1.08,29.82,29.82,0,0,1,6.88-6.39A1.27,1.27,0,0,0,115.48,104.14Zm15.29-8c-7.92,2.58-12.58,4.19-14.62,5l-.39-.8c11.35-4.23,25-8.92,28.7-9.48l.22.78Q137.72,93.89,130.77,96.15Z" transform="translate(-29.58 -18.98)"/><path d="M162.65,95.4c-1-1.66-3.23-2.36-5-2.82a38.94,38.94,0,0,0-7.32-1.06c-.94-.06-1.88-.13-2.82-.12-.18,0-.2,0-.28-.08a2.07,2.07,0,0,1-.17-.61c-.12-.43-.23-.86-.36-1.28a1.42,1.42,0,0,0-.62-.89c-.26-.15-.4-.14-.47-.45s-.06-.49-.1-.72a15.23,15.23,0,0,0-1.27-3.93c-1.34-2.82-3.36-5.16-6.43-6.06a12,12,0,0,0-5.13-.26,54.37,54.37,0,0,0-15.81,5.05c-2.71,1.31-5,3.24-5.61,6.32s.43,6.28,1.87,9c.13.24.27.48.4.72s.06.26-.25.49a1.29,1.29,0,0,0-.49,1.3,4.78,4.78,0,0,0,.46,1.05c.11.23.5.81.4,1s-.67.48-.89.64l-1.15.88a36.34,36.34,0,0,0-2.86,2.49c-1.59,1.55-3.46,3.54-3.78,5.84a3.53,3.53,0,0,0,1,3,4.17,4.17,0,0,0,3.13,1.14,14,14,0,0,0,5.62-1.6c.72-.34,1.42-.72,2.12-1.11q.62-.35,1.22-.73a5.55,5.55,0,0,1,1.38-.81,4.67,4.67,0,0,1,1.42,0l1.34.14c.67.07,1.34.1,2,.12,1.65.06,3.32.1,5,0,1,0,2.09-.19,3.13-.3a76.78,76.78,0,0,0,11.84-2,37.53,37.53,0,0,0,9.81-4.17,55.33,55.33,0,0,0,4.82-3.34,14.73,14.73,0,0,0,3.76-3.48,3.35,3.35,0,0,0,.15-3.47,0,0,0,0,0-.05,0,3.6,3.6,0,0,1-.91,4.35,32.81,32.81,0,0,1-3.85,3.19,42.65,42.65,0,0,1-8.39,5c-6.06,2.62-12.63,3.33-19.13,4a44.45,44.45,0,0,1-7.26,0c-.49,0-1-.08-1.46-.14l-1.2-.11a3.23,3.23,0,0,0-1-.06,6.06,6.06,0,0,0-.94.62l-1,.6c-.69.42-1.4.81-2.12,1.18a16.13,16.13,0,0,1-5.64,1.88,4.72,4.72,0,0,1-2.9-.49A3.58,3.58,0,0,1,105,112.2c.13-2.44,2.21-4.6,3.86-6.2a39,39,0,0,1,4.91-4,0,0,0,0,0,0,0c-.52-1.06-1.74-2.8,0-3.45a0,0,0,0,0,0,0c-2-3.34-3.6-7.74-2-11.54a8.89,8.89,0,0,1,4.07-4.19,50.85,50.85,0,0,1,6.88-3,53,53,0,0,1,9.18-2.46,12.42,12.42,0,0,1,6.64.41,10.16,10.16,0,0,1,5.17,4.92,15,15,0,0,1,1.83,5.77,0,0,0,0,0,0,0c1.19.28,1.32,2,1.6,3a0,0,0,0,0,0,0,52.67,52.67,0,0,1,8,.68,21.84,21.84,0,0,1,4.33,1.13,6,6,0,0,1,3,2.18S162.67,95.44,162.65,95.4Z" transform="translate(-29.58 -18.98)"/><path d="M113.34,111.91a2,2,0,0,1,.6-.06c.18,0,.15-.06,0,.07a3.08,3.08,0,0,1-.9.43,16.69,16.69,0,0,1-1.7.66,8.15,8.15,0,0,1-2.2.43c-.19,0-1,.05-1.08-.15,0,0,1.24-.51,1.42-.58a18,18,0,0,1,3.84-.8s0-.07,0-.06a15.17,15.17,0,0,0-5.31,1.43,0,0,0,0,0,0,.05,3.49,3.49,0,0,0,2.21,0,16.09,16.09,0,0,0,4.09-1.55,0,0,0,0,0,0-.06l-1,.09S113.3,111.92,113.34,111.91Z" transform="translate(-29.58 -18.98)"/><path d="M116.16,97.56a14.23,14.23,0,0,1-2.52-7A5.77,5.77,0,0,1,115,86.52,11.63,11.63,0,0,1,119.1,84a52.06,52.06,0,0,1,14.08-4.31,8.77,8.77,0,0,1,4.57.44c2.88,1.17,4.51,4.44,5.13,7.34.07.35.33,1,0,1.22a5.4,5.4,0,0,1-1.27.31c-1,.26-2,.55-3,.85-2.42.72-4.83,1.51-7.22,2.32-5.12,1.73-10.2,3.56-15.26,5.43,0,0,0,.07,0,.06,7.25-2.68,14.52-5.33,21.92-7.58,1.66-.51,3.34-1,5-1.37a0,0,0,0,0,0,0,12.56,12.56,0,0,0-1.2-4.18,8.46,8.46,0,0,0-3.71-4.22,9,9,0,0,0-5.48-.57,51,51,0,0,0-8.49,2.19A57.06,57.06,0,0,0,118,84.41a7.48,7.48,0,0,0-3.87,3.35c-1.48,3.18.25,7.11,2,9.83C116.13,97.62,116.19,97.59,116.16,97.56Z" transform="translate(-29.58 -18.98)"/><path d="M115.48,104.17a6.8,6.8,0,0,0,2.07-.81c.91-.36,1.83-.69,2.75-1,2.84-1,5.7-2,8.55-2.89q5.16-1.7,10.34-3.35l5-1.59a7,7,0,0,1,2.36-.57c1.08.06,2.16,0,3.24.12a44.74,44.74,0,0,1,6.12.76,10,10,0,0,1,4.1,1.44,1.26,1.26,0,0,1,.47.55c.19.64-.7,1.31-1.11,1.68-1,.86-2,1.65-3,2.42a45,45,0,0,1-5.58,3.6,40.16,40.16,0,0,1-12.7,4,68.06,68.06,0,0,1-11.27,1.07c-4.14,0-8.22-.66-12.36-.35-1,.08-2,.18-3,.35-.55.09-1.09.21-1.63.35l-.8.23-.35.11c-.25.08-.29.14-.29,0s.36-.48.46-.6l.47-.55c.35-.39.71-.77,1.08-1.13.74-.73,1.53-1.42,2.33-2.09q.63-.52,1.29-1c.42-.31.87-.8,1.42-.72,0,0,.06-.05,0-.06-.41-.06-.33-.1-.68.14s-.75.54-1.12.83q-1,.8-2,1.67a20.61,20.61,0,0,0-3.45,3.7,0,0,0,0,0,0,0,23,23,0,0,1,6.44-1.23,39.67,39.67,0,0,1,6.86.1,44,44,0,0,0,9.08.12,81.68,81.68,0,0,0,12.93-2.06,36,36,0,0,0,10.74-4.95,45.19,45.19,0,0,0,5.2-4c.4-.36,1.23-1,1-1.66a1.46,1.46,0,0,0-.61-.67,10,10,0,0,0-3.58-1.28,41.18,41.18,0,0,0-5.41-.77q-1.52-.13-3-.17l-.73,0c-.3,0-.67-.11-1-.09a4.18,4.18,0,0,0-.83.26l-4.71,1.49q-5,1.59-9.95,3.21c-2.94,1-5.87,1.93-8.79,2.94-1.72.59-3.49,1.15-5.16,1.9a3.18,3.18,0,0,1-1.32.5A0,0,0,0,0,115.48,104.17Z" transform="translate(-29.58 -18.98)"/><path d="M130.76,96.12c-4,1.29-7.92,2.58-11.83,4l-1.69.62-.66.26a1.36,1.36,0,0,1-.27.11c-.2,0-.06.07-.19-.07a1.31,1.31,0,0,1-.2-.41c-.08-.27-.17-.19.16-.3.57-.19,1.13-.42,1.69-.63l3.44-1.26c4.41-1.6,8.84-3.16,13.3-4.63a87.37,87.37,0,0,1,9.22-2.72c.1,0,.63-.2.71-.14s.1.36.12.42c.09.32.11.3-.24.4-1.5.45-3,.95-4.49,1.42l-9.08,2.92s0,.07,0,.06q6.95-2.26,13.92-4.46a0,0,0,0,0,0,0l-.22-.78a0,0,0,0,0,0,0,54.2,54.2,0,0,0-8.17,2.27C132,94.54,127.7,96,123.43,97.56q-3.85,1.38-7.68,2.8a0,0,0,0,0,0,0l.39.8h0c1.67-.7,3.39-1.28,5.1-1.88,3.16-1.09,6.34-2.13,9.51-3.17C130.81,96.17,130.8,96.11,130.76,96.12Z" transform="translate(-29.58 -18.98)"/><path d="M270.44,45.68c-1.25-4.41-4.26-7.69-9.47-10.33C252.22,30.87,207.1,19.9,201.58,19a2,2,0,0,0-1.62.44,2.2,2.2,0,0,0-.73,1.68c0,3.07,10.21,43.54,13.86,52.25,1.71,4.1,3.75,8.37,7,11.84C222.9,88.17,226.39,89,230,89a36.57,36.57,0,0,0,4.79-.37,44.07,44.07,0,0,0,26.93-15.19C267.69,66.28,272.71,53.6,270.44,45.68Zm-15.63-9.77a5.85,5.85,0,1,1-10.57-3.43c4.06,1.16,7.69,2.28,10.56,3.27C254.8,35.8,254.81,35.85,254.81,35.91ZM210.9,57.56a5.64,5.64,0,0,1,2.47-.57,6.16,6.16,0,0,1,6,6.34,6.24,6.24,0,0,1-4.82,6.21C213.5,66.57,212.24,62.33,210.9,57.56Zm4.29,13.87a8.26,8.26,0,0,0,6.15-8.12,8.18,8.18,0,0,0-8-8.34,7.49,7.49,0,0,0-3,.64c-3.72-13.43-7.81-30-8.41-33.79,5,1,24.9,5.75,40.24,10.08a7.73,7.73,0,0,0-1.11,4,7.85,7.85,0,0,0,15.67.55c1.16.44,2.12.84,2.84,1.2.08,1,.13,2,.13,3A37,37,0,0,1,218.1,77.81c-1-1.78-1.79-3.6-2.55-5.42Zm44.51.33A41.35,41.35,0,0,1,234.46,86c-5.29.72-9.41.55-12.39-2.59a22.72,22.72,0,0,1-2.2-2.74c.93.07,1.88.09,2.82.09a40,40,0,0,0,39.76-40.09c0-.47,0-.95,0-1.43a12.5,12.5,0,0,1,5.47,7.14C269.66,52.64,265.9,64.25,259.7,71.77Z" transform="translate(-29.58 -18.98)"/><path d="M270.47,45.67c-1.32-4.54-4.66-7.76-8.73-10a40.22,40.22,0,0,0-6.12-2.53c-6.46-2.22-13.06-4-19.65-5.81q-10.79-2.91-21.65-5.52c-2.73-.66-5.47-1.31-8.21-1.92-1.49-.33-3-.74-4.52-.93a2.15,2.15,0,0,0-2.35,2.56c.07.63.2,1.25.32,1.87.46,2.36,1,4.71,1.56,7.06,1.67,7.08,3.47,14.13,5.36,21.15,1.7,6.32,3.4,12.67,5.51,18.87a51.68,51.68,0,0,0,4.49,9.9,21.14,21.14,0,0,0,5.16,6.22A12.89,12.89,0,0,0,228.32,89a31.66,31.66,0,0,0,8.62-.66,40.57,40.57,0,0,0,7.6-2.3A45.3,45.3,0,0,0,258,77.47a40.72,40.72,0,0,0,8.84-11.89,37.88,37.88,0,0,0,4.16-14,17.44,17.44,0,0,0-.5-6,0,0,0,0,0-.06,0c1.23,4.38.32,9.19-1,13.43a44.18,44.18,0,0,1-6.72,13.12,43.32,43.32,0,0,1-26.61,16.18c-5.4.93-11.62,1.17-15.76-3-3.46-3.52-5.75-8.22-7.49-12.78-2-5.33-3.5-10.91-5-16.4Q204.86,45.63,202.26,35c-.69-2.81-1.36-5.62-2-8.44a48.79,48.79,0,0,1-1-5,2.58,2.58,0,0,1,.09-1.16,2.09,2.09,0,0,1,2.56-1.27c.67.12,1.34.26,2,.4,2.26.48,4.5,1,6.75,1.53q10.13,2.38,20.19,5c6.85,1.8,13.7,3.65,20.47,5.77C257,33.63,263.2,35.43,267.28,40a14.58,14.58,0,0,1,3.13,5.69A0,0,0,0,0,270.47,45.67Z" transform="translate(-29.58 -18.98)"/><path d="M254.78,35.91a5.82,5.82,0,0,1-11.62.35,5.31,5.31,0,0,1,.88-3.43c.38-.48,1.21,0,1.72.12l1.93.57q1.85.55,3.69,1.14l1.73.56c.26.09,1.65.38,1.67.7,0,0,.07,0,.06,0v-.16a0,0,0,0,0,0,0c-3.49-1.2-7-2.26-10.56-3.27h0a5.87,5.87,0,1,0,10.63,3.45A0,0,0,0,0,254.78,35.91Z" transform="translate(-29.58 -18.98)"/><path d="M210.92,57.59a5.72,5.72,0,0,1,6.23.88,6.54,6.54,0,0,1,2.12,5.41,6.37,6.37,0,0,1-3.09,5,3.75,3.75,0,0,1-1.36.57c-.29,0-.3,0-.41-.28a5.86,5.86,0,0,1-.23-.71q-.48-1.46-.93-2.94c-.81-2.64-1.57-5.29-2.32-7.95a0,0,0,0,0-.06,0c1.13,4,2.27,8,3.6,12a0,0,0,0,0,0,0,6.31,6.31,0,0,0,4.82-5.69,6.48,6.48,0,0,0-3.71-6.45,5.76,5.76,0,0,0-4.74.11S210.88,57.61,210.92,57.59Z" transform="translate(-29.58 -18.98)"/><path d="M215.19,71.46a8.3,8.3,0,0,0,6-6.51,8.64,8.64,0,0,0-3.1-8.36,7.79,7.79,0,0,0-4-1.61,7.44,7.44,0,0,0-2.73.23,3.88,3.88,0,0,1-.84.28c-.27,0-.27-.27-.33-.48l-.44-1.59q-1.64-6-3.19-12c-1.56-6.09-3.18-12.2-4.4-18.37A3.22,3.22,0,0,1,202,22c0-.14.11-.07.3,0l.6.12,2.93.65c2.88.65,5.76,1.34,8.63,2q11.35,2.75,22.62,5.79l2.91.8,1.33.37c.15,0,.58.08.66.19s-.13.54-.22.75a7.87,7.87,0,0,0-.51,5.07,7.87,7.87,0,0,0,14.18,2.63,7.8,7.8,0,0,0,1.28-3.27c0-.1,0-.38.05-.44s.69.13.86.2c.5.2,1,.41,1.49.63a.66.66,0,0,1,.47.55,7,7,0,0,1,.06,1.05q.07,1.48,0,3A37.45,37.45,0,0,1,239.29,74.1,36.52,36.52,0,0,1,224.6,78q-1.38.07-2.77,0-.85,0-1.69-.08a7.33,7.33,0,0,1-1.8-.17c-.51-.19-.76-1.06-1-1.52s-.52-1.08-.77-1.63c-.49-1.07-.94-2.15-1.36-3.24,0,0-.07,0-.06,0q.86,2.27,1.92,4.45.26.54.54,1.08c.11.21.26.72.46.86a1.55,1.55,0,0,0,.5.07q.78.09,1.56.14A36.61,36.61,0,0,0,241.48,73a37.49,37.49,0,0,0,18.2-29.45,36.44,36.44,0,0,0,0-4.68c0-.24.06-1-.08-1.18s-.41-.21-.56-.28c-.76-.35-1.53-.65-2.31-.95,0,0,0,0,0,0a7.81,7.81,0,1,1-14.51-4.54,0,0,0,0,0,0,0q-17.37-4.9-35-8.93c-1.75-.4-3.49-.81-5.25-1.15a0,0,0,0,0,0,0c.5,3.14,1.32,6.25,2.07,9.34q1.85,7.68,3.88,15.33,1.2,4.57,2.46,9.13a0,0,0,0,0,0,0,7.76,7.76,0,0,1,9.41,2.81,8.66,8.66,0,0,1,0,9.73,8,8,0,0,1-4.63,3.22A0,0,0,0,0,215.19,71.46Z" transform="translate(-29.58 -18.98)"/><path d="M259.67,71.74c-7,8.43-17.83,14.2-28.86,14.57a12.28,12.28,0,0,1-6.91-1.45A11.62,11.62,0,0,1,221,82.16q-.38-.47-.73-1c-.11-.15-.34-.3-.17-.47a3.2,3.2,0,0,1,.47,0c.82,0,1.64.06,2.47,0a39.44,39.44,0,0,0,13.26-2.42,40.15,40.15,0,0,0,26.09-35.06q.06-.88.08-1.75,0-.44,0-.88c0-.21-.15-1.07,0-1.19s1.43.89,1.69,1.13A13.46,13.46,0,0,1,265.52,42c3,3.57,3.15,8.17,2.29,12.56a40.12,40.12,0,0,1-5.81,14,35.9,35.9,0,0,1-2.32,3.16s0,.08,0,0A40.39,40.39,0,0,0,267,58.18c1.24-4,2.17-8.68.67-12.72a13.22,13.22,0,0,0-5.18-6.22,0,0,0,0,0,0,0A40.65,40.65,0,0,1,255,64a39.54,39.54,0,0,1-35.12,16.67,0,0,0,0,0,0,0c1.62,2.31,3.47,4.38,6.25,5.2a20.27,20.27,0,0,0,8.38.14,40.06,40.06,0,0,0,17.35-7,40.35,40.35,0,0,0,7.89-7.23S259.7,71.71,259.67,71.74Z" transform="translate(-29.58 -18.98)"/><path d="M215.33,31.13a6.8,6.8,0,1,0,6.8,6.8A6.8,6.8,0,0,0,215.33,31.13Zm0,11.57a4.79,4.79,0,1,1,4.79-4.79A4.8,4.8,0,0,1,215.33,42.7Zm21.88,23A6.18,6.18,0,1,0,231,59.56,6.19,6.19,0,0,0,237.21,65.75Zm0-10.35A4.18,4.18,0,1,1,233,59.58,4.18,4.18,0,0,1,237.21,55.4Z" transform="translate(-29.58 -18.98)"/><path d="M215.33,31.1a6.83,6.83,0,1,0,6.7,5.53,6.91,6.91,0,0,0-6.7-5.53,0,0,0,0,0,0,.06,6.76,6.76,0,1,1-6.63,5.4,6.85,6.85,0,0,1,6.63-5.4A0,0,0,0,0,215.33,31.1Z" transform="translate(-29.58 -18.98)"/><path d="M215.33,42.67A4.76,4.76,0,1,1,220,38.85a4.83,4.83,0,0,1-4.67,3.83,0,0,0,0,0,0,.06,4.82,4.82,0,1,0-4.75-4,4.89,4.89,0,0,0,4.75,4A0,0,0,0,0,215.33,42.67Z" transform="translate(-29.58 -18.98)"/><path d="M237.21,65.78a6.21,6.21,0,1,0-6.09-5,6.3,6.3,0,0,0,6.09,5,0,0,0,0,0,0-.06,6.15,6.15,0,1,1,6-5,6.24,6.24,0,0,1-6,5A0,0,0,0,0,237.21,65.78Z" transform="translate(-29.58 -18.98)"/><path d="M237.21,55.43a4.15,4.15,0,1,1-4.06,3.31,4.21,4.21,0,0,1,4.06-3.31,0,0,0,0,0,0-.06,4.21,4.21,0,1,0,4.14,3.44,4.27,4.27,0,0,0-4.14-3.44A0,0,0,0,0,237.21,55.43Z" transform="translate(-29.58 -18.98)"/></svg>